<?xml version="1.0" encoding="UTF-8" standalone="no"?>
<!-- Created with Inkscape (http://www.inkscape.org/) -->

<svg
   xmlns:dc="http://purl.org/dc/elements/1.1/"
   xmlns:cc="http://creativecommons.org/ns#"
   xmlns:rdf="http://www.w3.org/1999/02/22-rdf-syntax-ns#"
   xmlns:svg="http://www.w3.org/2000/svg"
   xmlns="http://www.w3.org/2000/svg"
   xmlns:sodipodi="http://sodipodi.sourceforge.net/DTD/sodipodi-0.dtd"
   xmlns:inkscape="http://www.inkscape.org/namespaces/inkscape"
   width="201.04088mm"
   height="70.77948mm"
   viewBox="0 0 712.34957 250.79343"
   id="svg4189"
   version="1.1"
   inkscape:version="0.91 r13725"
   sodipodi:docname="liu.svg">
  <defs
     id="defs4191" />
  <sodipodi:namedview
     id="base"
     pagecolor="#ffffff"
     bordercolor="#666666"
     borderopacity="1.0"
     inkscape:pageopacity="0.0"
     inkscape:pageshadow="2"
     inkscape:zoom="0.7"
     inkscape:cx="916.56962"
     inkscape:cy="-25.447279"
     inkscape:document-units="px"
     inkscape:current-layer="layer1"
     showgrid="false"
     fit-margin-top="0"
     fit-margin-left="0"
     fit-margin-right="0"
     fit-margin-bottom="0"
     inkscape:window-width="1920"
     inkscape:window-height="1138"
     inkscape:window-x="1672"
     inkscape:window-y="39"
     inkscape:window-maximized="1" />
  <metadata
     id="metadata4194">
    <rdf:RDF>
      <cc:Work
         rdf:about="">
        <dc:format>image/svg+xml</dc:format>
        <dc:type
           rdf:resource="http://purl.org/dc/dcmitype/StillImage" />
        <dc:title></dc:title>
      </cc:Work>
    </rdf:RDF>
  </metadata>
  <g
     inkscape:label="Layer 1"
     inkscape:groupmode="layer"
     id="layer1"
     transform="translate(-18.848161,-401.36351)">
    <path
       style="fill:#000000"
       d="m 24.714285,651.27396 c -3.689147,-1.50994 -5.967369,-5.00766 -5.862663,-9.00087 0.114899,-4.3819 8.172566,-22.58468 15.295626,-34.55377 2.618533,-4.4 9.719903,-16.325 15.780821,-26.5 6.060918,-10.175 12.253142,-20.975 13.760497,-24 1.507355,-3.025 3.74788,-6.625 4.978944,-8 2.780962,-3.10611 11.189715,-18.01891 18.221945,-32.31635 2.92603,-5.949 6.611386,-12.699 8.189686,-15 1.5783,-2.30101 4.15189,-6.65865 5.719089,-9.68365 1.56721,-3.025 4.66444,-7.80812 6.88276,-10.62916 7.62696,-9.69926 16.20752,-21.42429 24.53329,-33.52387 1.925,-2.79754 7.55,-9.92975 12.5,-15.84935 4.95,-5.9196 10.8,-13.12925 13,-16.02144 5.53727,-7.27947 12.40184,-13.91344 15.09704,-14.58989 3.07994,-0.77302 6.19314,0.35313 7.44556,2.69331 2.43133,4.54299 -7.8602,17.78798 -25.33561,32.60641 -3.18615,2.70173 -7.68615,7.66452 -10,11.02841 -6.39212,9.29295 -9.75762,13.86505 -14.8979,20.23912 -2.58,3.19926 -5.64022,7.8364 -6.80048,10.30476 -1.16027,2.46836 -3.2352,5.54539 -4.61096,6.83785 -1.37576,1.29246 -3.30986,4.16206 -4.29799,6.37689 -0.98813,2.21483 -3.39796,5.93198 -5.35519,8.26033 -1.95722,2.32835 -7.00022,10.84288 -11.206659,18.92116 -4.20644,8.07829 -8.748256,15.9953 -10.092936,17.59336 -1.34468,1.59806 -2.44487,3.25916 -2.44487,3.69133 0,0.43217 -1.32524,2.45337 -2.94498,4.49154 -1.61974,2.03818 -3.47516,5.36256 -4.123171,7.38751 -0.648006,2.02495 -1.979632,4.58173 -2.95917,5.68173 -0.979537,1.1 -2.516272,3.78353 -3.414966,5.9634 -0.898694,2.17987 -2.399032,4.80877 -3.334085,5.84199 -2.24052,2.47574 -5.989457,8.97009 -12.215478,21.16106 -2.799467,5.48154 -5.676732,10.65654 -6.393921,11.5 -0.71719,0.84345 -2.079774,3.5326 -3.027965,5.97588 -0.948191,2.44329 -2.546618,5.59762 -3.552059,7.00963 -2.436723,3.42207 -3.027104,8.42677 -1.034205,8.76704 2.36285,0.40344 18.039493,-15.60316 23.144963,-23.63211 0.904729,-1.42279 4.054729,-5.138 7,-8.25603 2.94527,-3.11803 6.930037,-8.21986 8.855037,-11.3374 1.925,-3.11754 5.8625,-8.32502 8.75,-11.57217 2.887496,-3.24715 5.249996,-6.3006 5.249996,-6.78545 0,-0.48484 2.48501,-3.91321 5.522259,-7.61859 3.03724,-3.70538 6.62369,-8.6001 7.96989,-10.87716 1.34621,-2.27705 4.29223,-5.91597 6.54671,-8.0865 2.25448,-2.17052 9.32267,-10.86265 15.70708,-19.31584 6.38441,-8.45318 12.87837,-16.02635 14.43104,-16.82927 1.55266,-0.80291 2.82302,-1.913 2.82302,-2.46686 0,-1.16246 30.77143,-31.94162 31.9336,-31.94162 0.42467,0 5.00084,-4.08329 10.16926,-9.07397 9.51604,-9.18878 13.86466,-11.92603 18.94668,-11.92603 3.10884,0 6.95046,3.96129 6.95046,7.16698 0,3.49374 -2.93039,8.96174 -7.5657,14.11731 -2.52749,2.81118 -5.5233,6.93474 -6.65735,9.16347 -1.13406,2.22873 -4.4255,6.75224 -7.31432,10.05224 -2.88883,3.3 -7.55483,9.79522 -10.3689,14.43383 -2.81406,4.63861 -5.7692,9.15508 -6.56697,10.0366 -0.79777,0.88152 -2.18423,3.35887 -3.08103,5.50521 -0.8968,2.14635 -2.71396,5.49684 -4.03814,7.44554 -1.32417,1.9487 -2.40759,4.33863 -2.40759,5.31095 0,2.70736 2.89818,2.10157 4.6987,-0.98213 0.88313,-1.5125 3.71455,-4.38728 6.29205,-6.3884 2.5775,-2.00112 7.23525,-7.17612 10.35057,-11.5 5.09442,-7.07077 12.81632,-16.51899 19.09313,-23.3616 1.26131,-1.375 4.48682,-5.875 7.1678,-10 4.19051,-6.44758 11.55505,-16.16059 16.87025,-22.25 2.12284,-2.43206 9.64542,-2.38217 11.87251,0.0787 3.44601,3.80779 0.77987,11.07046 -5.49199,14.96043 -1.84416,1.14379 -4.18657,3.63808 -5.20536,5.54286 -1.01879,1.90477 -4.39379,5.63058 -7.5,8.27957 -3.10621,2.64898 -6.05835,5.48588 -6.5603,6.30421 -0.50196,0.81832 -4.10196,5.12079 -8,9.56103 -14.18401,16.15693 -17.4115,20.20111 -21.58628,27.04851 -2.33879,3.83606 -7.74357,10.57465 -12.01061,14.97465 -31.28054,32.25525 -32.73391,33.5 -39.11445,33.5 -3.33556,0 -8.87602,-4.65839 -8.87602,-7.46291 0,-3.06581 9.46321,-18.94399 15.81579,-26.53709 1.61051,-1.925 4.33244,-6.29302 6.04874,-9.70671 1.71631,-3.41369 4.39224,-7.68869 5.94652,-9.5 1.55429,-1.81131 3.43047,-4.86829 4.1693,-6.79329 0.73883,-1.925 2.09019,-4.4 3.00303,-5.5 3.54575,-4.27274 9.02497,-12.58296 11.44441,-17.35751 1.3938,-2.75052 2.99274,-5.28436 3.55319,-5.63074 1.59494,-0.98572 1.19639,-4.51175 -0.50997,-4.51175 -3.7073,0 -26.75408,20.72438 -30.02565,27 -2.38987,4.58432 -3.86937,6.49865 -17.94536,23.21959 -12.77387,15.17414 -19.01091,23.40472 -28.25069,37.28041 -4.761169,7.15 -11.970639,16.6 -16.021045,21 -4.05041,4.4 -8.19157,9.575 -9.20257,11.5 -4.74047,9.02611 -14.878635,23.01776 -24.540489,33.86826 -2.758139,3.09746 -6.08938,7.14775 -7.402759,9.00064 -3.55104,5.00976 -10.631293,9.14428 -15.528223,9.06771 -2.22982,-0.0349 -4.954219,-0.43175 -6.054219,-0.88197 z M 666.21428,586.57302 c 0,-0.90546 2.025,-3.81118 4.5,-6.45715 2.475,-2.64598 4.5,-5.49359 4.5,-6.32803 0,-0.83444 2.59221,-4.56622 5.76047,-8.29284 8.77044,-10.31612 13.00147,-17.03075 20.22248,-32.09303 2.19308,-4.57454 5.76796,-11.99954 7.94419,-16.5 2.17622,-4.50046 4.25258,-9.98265 4.61414,-12.18265 0.36155,-2.2 1.53472,-6.925 2.60704,-10.5 3.50367,-11.68088 2.43057,-31.02463 -2.22763,-40.15547 -3.73178,-7.31487 -1.19554,-15.70457 4.32842,-14.31814 3.69155,0.92652 6.09406,3.98097 9.74956,12.39517 3.22425,7.42156 3.22425,7.42156 2.77172,24 -0.45252,16.57844 -0.45252,16.57844 -6.70068,34.07844 -3.43648,9.625 -7.00883,18.4 -7.93856,19.5 -2.76907,3.27623 -7.74604,10.85493 -8.51905,12.97245 -1.60193,4.38818 -17.31997,24.37089 -26.17072,33.27144 -3.96184,3.98414 -7.94228,8.37164 -8.84542,9.75 -1.91213,2.91828 -6.59596,3.52884 -6.59596,0.85981 z M 444.79565,575.42555 c -7.81043,-2.70937 -9.08523,-5.24599 -9.06187,-18.0315 0.0195,-10.67473 0.0195,-10.67473 6.61856,-22.67473 3.62949,-6.6 6.94591,-13.11449 7.36982,-14.47665 0.42392,-1.36215 2.28307,-4.67515 4.13144,-7.36221 1.84838,-2.68706 3.36068,-5.30119 3.36068,-5.80918 0,-0.50799 5.24854,-9.57 11.66343,-20.13779 16.29739,-26.84811 25.33657,-43.02434 25.33657,-45.34154 0,-2.22156 7.54949,-9.37263 9.89482,-9.37263 4.01801,0 8.10518,2.81957 8.10518,5.59142 0,3.23824 -1.36602,5.77101 -6.23469,11.55987 -2.15155,2.55821 -5.19172,7.28321 -6.75593,10.5 -1.5642,3.21679 -5.1508,8.77371 -7.97021,12.34871 -7.30359,9.26094 -13.34597,18.66195 -18.13589,28.21668 -2.2839,4.55583 -5.00733,9.49306 -6.05208,10.97164 -2.26601,3.20695 -9.26434,17.27284 -10.35463,20.81168 -0.42363,1.375 -1.8007,3.73285 -3.06016,5.23968 -1.52473,1.8242 -2.50569,4.6645 -2.93564,8.5 -0.35515,3.16817 -1.25957,7.66922 -2.00982,10.00232 -1.18479,3.68439 -1.16587,4.44022 0.1439,5.75 0.82941,0.8294 2.03836,1.50569 2.68658,1.50288 2.82933,-0.0123 9.15283,-5.26034 18.67021,-15.49488 13.8129,-14.85374 18.43193,-21.25783 21.08694,-29.23613 2.15572,-6.47795 4.57187,-9.69685 10.04447,-13.38171 1.32151,-0.88981 3.84819,-4.48981 5.61483,-8 1.76664,-3.51019 4.6061,-8.06966 6.3099,-10.13216 2.69697,-3.26475 3.65065,-3.75 7.37004,-3.75 6.45154,0 7.58218,1.83872 7.58218,12.33062 0,8.67314 0,8.67314 8.72955,8.42126 8.72955,-0.25188 8.72955,-0.25188 11.75,4.51218 4.8046,7.57814 7.39397,7.40277 19.02045,-1.28826 2.75,-2.05568 10.175,-6.36918 16.5,-9.58556 11.5,-5.84797 11.5,-5.84797 22.5,-6.15985 13.83293,-0.3922 15.27053,0.26617 18.11693,8.29695 1.78393,5.03316 2.52902,6.02223 4.73671,6.2878 1.44088,0.17333 9.6713,-0.88661 18.28982,-2.35541 15.38678,-2.62227 21.1392,-2.71492 23.94577,-0.38568 4.09173,3.39584 -1.6085,7.42699 -11.95623,8.45534 -4.30197,0.42753 -9.00504,1.65382 -11.84976,3.08974 -2.59421,1.30948 -5.21925,2.38087 -5.83341,2.38087 -0.61416,0 -4.52053,1.36298 -8.68082,3.02884 -4.16028,1.66586 -9.62545,3.49078 -12.1448,4.05538 -2.51935,0.5646 -5.94044,2.05835 -7.60243,3.31945 -1.66198,1.26111 -4.66052,2.82999 -6.66343,3.48642 -2.00291,0.65642 -5.7162,2.56762 -8.25175,4.24709 -7.51589,4.97833 -16.60699,5.15083 -18.7914,0.35657 -0.95521,-2.09646 -0.706,-3.04383 1.7226,-6.5483 1.56166,-2.25347 4.44202,-4.98972 6.40079,-6.08055 12.37379,-6.89087 21.10004,-15.9947 19.45084,-20.29246 -0.8272,-2.15564 -1.96691,-1.96805 -8.86397,1.45894 -3.286,1.63274 -6.5118,2.96862 -7.16846,2.96862 -0.65665,0 -6.09507,3.31224 -12.08538,7.36053 -12.80393,8.65301 -25.68885,15.63947 -28.84338,15.63947 -1.48719,0 -4.09813,-2.09676 -7.78263,-6.25 -5.54463,-6.25 -5.54463,-6.25 -9.34512,-4.0336 -2.09027,1.21903 -6.05049,3.30799 -8.80049,4.64214 -6.13904,2.97832 -8.45806,5.46755 -12.0855,12.97249 -1.55011,3.20706 -4.10739,6.91566 -5.68286,8.24133 -2.72068,2.2893 -3.01529,2.33232 -5.8684,0.85692 -1.65215,-0.85436 -3.91671,-3.10046 -5.03235,-4.99133 -2.3362,-3.95957 -6.28028,-4.74812 -7.32261,-1.46404 -0.34457,1.08566 -1.66581,2.79145 -2.93609,3.79065 -1.27028,0.9992 -3.15618,3.44779 -4.19089,5.44131 -2.76482,5.32682 -21.2773,24.85273 -25.06216,26.43415 -4.12714,1.72443 -5.68181,1.66697 -11.73777,-0.43379 z m 67.2427,-64.53549 c 0.2818,-2.46021 0.0209,-2.78631 -2,-2.5 -1.70795,0.24197 -2.40998,1.07931 -2.64814,3.15852 -0.2818,2.46021 -0.0209,2.78631 2,2.5 1.70795,-0.24197 2.40998,-1.07931 2.64814,-3.15852 z m -327.60156,46.77256 c -1.22238,-0.85619 -2.22251,-2.49058 -2.22251,-3.63197 0,-3.05157 3.60089,-8.35351 7.28229,-10.72241 1.76974,-1.1388 5.69271,-4.11127 8.71771,-6.60551 3.025,-2.49423 7.975,-6.40965 11,-8.70093 3.025,-2.29127 9.83841,-8.64078 15.14091,-14.11 8.84791,-9.12613 9.87608,-9.88866 12.5,-9.27062 3.99739,0.94156 7.36408,5.02795 7.33573,8.9039 -0.0246,3.35969 -3.52812,10.13126 -8.33754,16.11461 -1.61816,2.01312 -2.60917,4.21524 -2.28139,5.06942 0.93782,2.44392 5.98349,1.75268 10.74181,-1.47159 2.42026,-1.63999 4.82343,-2.98999 5.34037,-3 0.51693,-0.01 3.89193,-1.7769 7.5,-3.92642 3.60806,-2.14952 7.94086,-4.19232 9.62845,-4.53956 1.68759,-0.34723 5.37732,-2.30103 8.19942,-4.34178 6.35881,-4.59825 18.52561,-18.58348 20.70503,-23.79956 0.89247,-2.13597 2.44483,-4.78973 3.44969,-5.89723 1.00487,-1.10751 2.59014,-4.36287 3.52284,-7.23413 1.89759,-5.84166 6.29112,-10.27952 10.17686,-10.27952 1.3578,0 3.61637,1.14764 5.01905,2.55032 1.9892,1.9892 2.40311,3.14432 1.88122,5.25 -1.58545,6.39697 -4.99524,11.94322 -17.09821,27.8114 -2.98333,3.91144 -5.42424,7.58941 -5.42424,8.17327 0,0.58386 -1.13401,2.40926 -2.52003,4.05644 -1.38601,1.64719 -3.42383,5.03807 -4.52847,7.53531 -1.10464,2.49723 -2.44563,4.81062 -2.97997,5.14086 -0.53434,0.33024 -0.97153,1.47388 -0.97153,2.54142 0,2.84462 7.73001,2.72779 11.41721,-0.17256 1.47781,-1.16245 4.5956,-2.68796 6.92841,-3.39004 2.33282,-0.70207 5.85802,-2.33848 7.83379,-3.63646 4.06705,-2.67184 8.19346,-5.2168 14.39503,-8.87812 2.3459,-1.38499 6.15286,-4.66258 8.45992,-7.28353 5.53027,-6.28272 7.32727,-7.09903 22.51592,-10.22812 7.09199,-1.46106 14.57958,-3.51612 16.63909,-4.5668 2.05951,-1.05068 6.12193,-2.39805 9.0276,-2.99414 2.90567,-0.59609 10.55109,-2.89826 16.98982,-5.11592 8.86901,-3.05472 12.54228,-3.87539 15.15345,-3.38553 7.32414,1.37402 4.8647,6.64529 -4.28625,9.18665 -7.7339,2.14783 -17.80789,6.11172 -22.60447,8.89436 -2.21676,1.28601 -5.81676,2.6697 -8,3.07487 -2.18323,0.40516 -6.81939,2.24409 -10.30257,4.08649 -3.48318,1.84241 -7.53318,3.35802 -9,3.36803 -1.46682,0.01 -4.64717,1.36001 -7.06743,3 -2.42027,1.63999 -5.12027,2.99168 -6,3.00376 -0.87974,0.0121 -3.39952,0.913 -5.59952,2.00203 -3.87103,1.91623 -5.54977,2.97285 -18.13163,11.41229 -5.46276,3.66421 -9.7623,6.04383 -27.86837,15.42398 -6.34487,3.28706 -7.68493,3.61026 -14.31832,3.45335 -10.25518,-0.2426 -11.64883,-1.34757 -14.79697,-11.7319 -0.48659,-1.60505 -1.35465,-3.0742 -1.92901,-3.26476 -0.57437,-0.19057 -3.94937,1.42316 -7.5,3.58606 -3.55064,2.1629 -11.86369,6.73445 -18.47346,10.15901 -11.78445,6.10558 -12.12797,6.21269 -17.69428,5.51723 -4.07111,-0.50866 -6.72706,-1.54411 -9.3911,-3.66121 -4.5318,-3.60143 -6.59213,-3.22292 -11.39686,2.09376 -5.30888,5.87455 -12.14088,7.67911 -16.77749,4.4315 z"
       id="path4908"
       inkscape:connector-curvature="0"
       inkscape:export-xdpi="300"
       inkscape:export-ydpi="300" />
  </g>
</svg>
