<?xml version="1.0" encoding="UTF-8" standalone="no"?>
<!-- Created with Inkscape (http://www.inkscape.org/) -->

<svg
   xmlns:dc="http://purl.org/dc/elements/1.1/"
   xmlns:cc="http://creativecommons.org/ns#"
   xmlns:rdf="http://www.w3.org/1999/02/22-rdf-syntax-ns#"
   xmlns:svg="http://www.w3.org/2000/svg"
   xmlns="http://www.w3.org/2000/svg"
   xmlns:sodipodi="http://sodipodi.sourceforge.net/DTD/sodipodi-0.dtd"
   xmlns:inkscape="http://www.inkscape.org/namespaces/inkscape"
   width="95.489456mm"
   height="37.982365mm"
   viewBox="0 0 338.34847 134.58318"
   id="svg2"
   version="1.1"
   inkscape:version="0.91 r13725"
   sodipodi:docname="togneri.svg"
   inkscape:export-filename="D:\phd\documents_prepared\Thesis\signatures\togneri.png"
   inkscape:export-xdpi="300"
   inkscape:export-ydpi="300">
  <defs
     id="defs4" />
  <sodipodi:namedview
     id="base"
     pagecolor="#ffffff"
     bordercolor="#666666"
     borderopacity="1.0"
     inkscape:pageopacity="0.0"
     inkscape:pageshadow="2"
     inkscape:zoom="0.7"
     inkscape:cx="261.95139"
     inkscape:cy="-206.53302"
     inkscape:document-units="px"
     inkscape:current-layer="layer1"
     showgrid="false"
     fit-margin-top="0"
     fit-margin-left="0"
     fit-margin-right="0"
     fit-margin-bottom="0"
     inkscape:window-width="1920"
     inkscape:window-height="1138"
     inkscape:window-x="1672"
     inkscape:window-y="39"
     inkscape:window-maximized="1" />
  <metadata
     id="metadata7">
    <rdf:RDF>
      <cc:Work
         rdf:about="">
        <dc:format>image/svg+xml</dc:format>
        <dc:type
           rdf:resource="http://purl.org/dc/dcmitype/StillImage" />
        <dc:title></dc:title>
      </cc:Work>
    </rdf:RDF>
  </metadata>
  <g
     inkscape:label="Layer 1"
     inkscape:groupmode="layer"
     id="layer1"
     transform="translate(-126.41352,-133.01669)">
    <path
       style="fill:#000000"
       d="m 163.8497,265.89309 c -1.06946,-3.51778 1.18579,-36.28004 2.91958,-42.41305 0.72503,-2.56468 1.15,-4.8313 0.94438,-5.03692 -0.39906,-0.39907 2.04588,-21.61033 2.97388,-25.80003 0.49866,-2.25133 4.55942,-33.132 4.55942,-34.67278 0,-0.35046 -0.9,0.17729 -2,1.17278 -1.1,0.99548 -2,2.41523 -2,3.15498 0,0.73976 -0.45,1.34502 -1,1.34502 -0.55,0 -1,0.60442 -1,1.34317 0,3.97112 -17.90819,24.97112 -27.77818,32.57402 -4.73415,3.64674 -12.20325,6.33035 -14.19416,5.0999 -2.02821,-1.2535 -0.43207,-2.67784 4.3503,-3.88205 2.42657,-0.61102 6.6348,-2.868 9.35161,-5.01552 5.38202,-4.25424 17.97415,-17.74761 21.75602,-23.31313 7.25876,-10.68222 14.62742,-25.8913 15.28103,-31.54039 0.26943,-2.32869 1.10184,-4.74187 1.84979,-5.36262 2.88988,-2.39839 3.00016,3.29702 0.35041,18.09662 -0.99109,5.53547 -4.2315,29.07019 -5.92051,43 -0.50016,4.125 -1.3585,9.75 -1.90741,12.5 -0.54891,2.75 -1.24619,7.69999 -1.5495,11 -0.5489,5.97186 -0.54455,5.98422 0.92955,2.63518 0.81458,-1.85064 1.48105,-4.0687 1.48105,-4.92899 0,-1.95904 1.7578,-7.61843 3.79124,-12.20619 0.85321,-1.92501 1.65777,-4.05132 1.7879,-4.72515 0.13013,-0.67383 1.17805,-2.42201 2.32873,-3.88486 1.15067,-1.46284 2.09213,-3.22944 2.09213,-3.92577 0,-2.52183 9.04392,-13.25718 12.58337,-14.93677 4.0787,-1.93546 6.88329,-1.52142 10.8547,1.60249 4.43734,3.49042 6.72531,10.10582 6.90515,19.96553 0.0919,5.04122 -0.30308,9.17624 -0.95533,9.99999 -0.61166,0.77249 -1.38291,2.5431 -1.71388,3.93469 -0.33096,1.39158 -2.63338,5.66658 -5.11649,9.5 -4.43832,6.8519 -5.28579,10.14949 -3.91928,15.25026 0.58765,2.19351 0.892,2.25494 7.98634,1.61206 4.75293,-0.4307 7.37542,-0.30817 7.37542,0.34459 0,1.30858 -4.85862,2.26294 -11.5205,2.26294 -5.20344,0 -5.29723,-0.054 -7.37162,-4.24676 -2.10113,-4.24676 -2.10113,-4.24676 0.3955,-9.34967 1.37314,-2.8066 2.49662,-5.59821 2.49662,-6.20355 0,-0.60536 0.59732,-1.46051 1.32739,-1.90033 1.41151,-0.85037 4.32121,-6.11332 7.17338,-12.97489 1.72568,-4.15153 1.69009,-6.10752 -0.27209,-14.95367 -1.07248,-4.83512 -4.60115,-10.91635 -6.8307,-11.77191 -3.09795,-1.1888 -4.60094,-0.52038 -9.70784,4.31736 -7.49043,7.09563 -12.27056,17.25359 -16.50956,35.08342 -1.11147,4.67499 -3.01166,11.19999 -4.22264,14.5 -2.38846,6.50867 -2.93701,10.47219 -3.25238,23.5 -0.11317,4.675 -0.56978,9.0625 -1.01468,9.75 -1.1733,1.81308 -3.47033,1.53213 -4.08814,-0.5 z m 135.39726,-6.38074 c 0,-1.3066 0.93711,-5.5242 2.08247,-9.37245 3.27618,-11.00755 3.74803,-13.07633 6.61357,-28.99682 2.17293,-12.07243 2.75129,-18.61067 2.96333,-33.5 0.14491,-10.175 0.5334,-20.4125 0.86332,-22.75 0.48368,-3.42692 0.99791,-4.25 2.65521,-4.25 1.70007,0 1.91812,0.38894 1.26139,2.25 -0.43669,1.2375 -0.92198,11.925 -1.07843,23.75 -0.15841,11.97315 -0.79641,23.49399 -1.43982,26 -0.63545,2.475 -1.48504,7.2 -1.88797,10.5 -0.85691,7.01798 -6.86379,30.56467 -8.15062,31.95 -0.48535,0.5225 -0.88245,1.70491 -0.88245,2.62756 0,0.92265 -0.675,2.23775 -1.5,2.92244 -1.26174,1.04715 -1.5,0.86755 -1.5,-1.13074 z m 116.00914,-5.11926 c 0.0156,-2.12716 4.58559,-10.82195 5.30825,-10.09929 0.37543,0.37545 0.68261,0.2022 0.68261,-0.38497 0,-0.58716 1.94528,-3.69966 4.32284,-6.91667 6.91856,-9.36125 9.23737,-17.83069 6.51664,-23.80203 -0.63828,-1.40088 -1.9163,-2.54704 -2.84003,-2.54704 -0.92374,0 -5.23901,0.91855 -9.58949,2.04123 -4.35048,1.12268 -9.4975,1.93434 -11.43783,1.80371 -1.94033,-0.13065 -4.07783,0.10235 -4.75,0.51778 -0.67217,0.41542 -1.22213,1.86057 -1.22213,3.21144 0,1.35088 -1.38641,4.91271 -3.08091,7.91521 -5.57017,9.8698 -17.34113,16.08502 -23.19683,12.24822 -1.27597,-0.83605 -2.82593,-3.16874 -3.44436,-5.18376 -1.04044,-3.39007 -0.82954,-4.23019 2.82422,-11.25004 2.17175,-4.17251 3.75816,-7.77685 3.52536,-8.00966 -0.23281,-0.2328 -2.96309,0.93205 -6.06729,2.58855 -5.77578,3.08213 -16.38516,11.04548 -22.46359,16.86107 -1.87187,1.79093 -3.78437,3.25625 -4.25,3.25625 -1.98924,0 -0.52153,-2.45576 4.07815,-6.82354 8.56146,-8.12983 14.3921,-12.70564 20.57525,-16.14722 3.3,-1.83679 6.675,-3.8947 7.5,-4.57313 0.825,-0.67844 3.70522,-1.6935 6.40049,-2.25569 4.70916,-0.98225 7.59951,-0.72481 7.59951,0.67687 0,0.36483 -3.08659,3.80418 -6.8591,7.64302 -6.09524,6.2024 -10.83925,13.11089 -10.97313,15.97969 -0.0799,1.71087 4.0857,5.5 6.04638,5.5 2.51607,0 9.27212,-3.52684 12.83182,-6.69854 5.86875,-5.2291 8.79922,-14.52521 5.45403,-17.30146 -0.825,-0.6847 -1.5,-1.63979 -1.5,-2.12245 0,-1.14924 4.71963,-1.14022 5.43074,0.0104 0.64039,1.03616 13.13527,0.81496 16.06926,-0.28449 1.1,-0.41219 2.76785,-1.15815 3.70633,-1.65766 0.93847,-0.49951 3.47639,-1.19124 5.63981,-1.53718 3.19507,-0.51091 4.32962,-0.23286 6.04367,1.48119 1.7513,1.7513 2.11556,3.34323 2.14179,9.36019 0.0316,7.25 0.0316,7.25 2.38156,4.58193 2.73742,-3.10798 14.81513,-11.80562 18.88389,-13.59905 3.34311,-1.47357 6.36342,-1.59126 7.17411,-0.27955 0.32405,0.52433 -1.18285,1.43049 -3.34867,2.01369 -3.81539,1.02738 -12.99613,6.65653 -16.19074,9.92733 -0.86253,0.88311 -3.11253,2.98443 -5,4.6696 -4.19077,3.74163 -6.60834,7.10062 -10.7993,15.00469 -5.30946,10.01353 -14.15781,18.89825 -14.12331,14.18137 z m -171.92395,-14 c -1.00402,-2.65657 -0.54308,-3.75 1.58082,-3.75 0.98206,0 1.33223,0.56221 0.95784,1.53785 -0.3358,0.87506 0.0491,1.78314 0.89301,2.10698 2.16684,0.83151 1.81161,2.35517 -0.54908,2.35517 -1.18887,0 -2.38512,-0.93374 -2.88259,-2.25 z m 95.91481,-86.93242 c -6.28628,-2.93448 -11.28556,-4.38762 -25,-7.26679 -10.63808,-2.23332 -27.49764,-3.59979 -30.94061,-2.50773 -0.82317,0.26109 -1.60988,-0.32032 -1.83555,-1.35655 -0.24111,-1.1071 0.12528,-1.72629 0.94061,-1.58963 0.73455,0.12312 2.46055,-0.24258 3.83555,-0.81266 2.84525,-1.17966 19.2675,-0.0885 26.2045,1.74117 2.36253,0.62312 6.0955,1.59295 8.2955,2.15517 8.48352,2.16801 16.18927,5.1497 20.75,8.02907 2.6125,1.64937 4.75,3.40195 4.75,3.89461 0,0.49267 -0.1125,0.86241 -0.25,0.82166 -0.1375,-0.0407 -3.175,-1.43949 -6.75,-3.10832 z"
       id="path4187"
       inkscape:connector-curvature="0" />
  </g>
</svg>
