<?xml version="1.0" encoding="UTF-8" standalone="no"?>
<!-- Created with Inkscape (http://www.inkscape.org/) -->

<svg
   xmlns:dc="http://purl.org/dc/elements/1.1/"
   xmlns:cc="http://creativecommons.org/ns#"
   xmlns:rdf="http://www.w3.org/1999/02/22-rdf-syntax-ns#"
   xmlns:svg="http://www.w3.org/2000/svg"
   xmlns="http://www.w3.org/2000/svg"
   xmlns:sodipodi="http://sodipodi.sourceforge.net/DTD/sodipodi-0.dtd"
   xmlns:inkscape="http://www.inkscape.org/namespaces/inkscape"
   width="69.031715mm"
   height="24.253555mm"
   viewBox="0 0 244.60057 85.937794"
   id="svg2"
   version="1.1"
   inkscape:version="0.91 r13725"
   sodipodi:docname="white.svg"
   inkscape:export-filename="D:\phd\documents_prepared\Thesis\signatures\white.png"
   inkscape:export-xdpi="300"
   inkscape:export-ydpi="300">
  <defs
     id="defs4" />
  <sodipodi:namedview
     id="base"
     pagecolor="#ffffff"
     bordercolor="#666666"
     borderopacity="1.0"
     inkscape:pageopacity="0.0"
     inkscape:pageshadow="2"
     inkscape:zoom="1.979899"
     inkscape:cx="72.896853"
     inkscape:cy="-0.58594347"
     inkscape:document-units="px"
     inkscape:current-layer="layer1"
     showgrid="false"
     fit-margin-top="0"
     fit-margin-left="0"
     fit-margin-right="0"
     fit-margin-bottom="0"
     inkscape:window-width="695"
     inkscape:window-height="416"
     inkscape:window-x="1940"
     inkscape:window-y="291"
     inkscape:window-maximized="0" />
  <metadata
     id="metadata7">
    <rdf:RDF>
      <cc:Work
         rdf:about="">
        <dc:format>image/svg+xml</dc:format>
        <dc:type
           rdf:resource="http://purl.org/dc/dcmitype/StillImage" />
        <dc:title></dc:title>
      </cc:Work>
    </rdf:RDF>
  </metadata>
  <g
     inkscape:label="Layer 1"
     inkscape:groupmode="layer"
     id="layer1"
     transform="translate(-73.492883,-185.63496)">
    <path
       style="opacity:1;fill:#000000;fill-opacity:1;stroke:#000000;stroke-width:3;stroke-linecap:round;stroke-miterlimit:4;stroke-dasharray:none"
       d="m 86.873119,189.22552 c 0.139736,20.16134 -3.366224,39.83717 -5.662821,59.79883 0.326861,5.93707 -4.092467,13.60767 4.490085,16.91454 40.696587,-0.40125 81.382367,-1.39375 122.086527,-0.95779 23.6061,-1.13243 77.9604,1.3529 82.73289,-19.99556 2.38474,-11.26424 -7.10536,-20.16203 -13.51147,-28.15538 -10.75976,-9.47845 -25.82424,-10.56234 -39.50889,-10.98339 -28.68769,-3.0757 -57.11978,-9.83027 -86.13321,-8.56147 -13.9298,-0.0504 -27.86062,-0.0914 -41.7895,0.11042 1.66093,14.59398 2.35793,29.36737 -0.0364,43.92181 -0.68656,4.52313 0.037,22.51188 -6.14092,13.95031 0.79203,-8.22825 3.86492,-16.65419 9.21619,-23.07767 8.17578,-9.42057 19.58998,-15.35945 31.36841,-18.89882 7.30903,-3.18446 21.59575,-7.64901 22.88744,3.89623 3.20157,10.36699 5.37206,21.07706 9.57826,31.11517 7.78091,0.48214 15.8441,-17.37408 21.99729,-4.16463 4.74037,13.34883 14.61298,0.0727 20.28422,-5.11806 8.49572,-7.57623 14.3298,-18.32312 25.50343,-22.50412 13.97398,-7.63977 27.85827,-14.91609 43.67593,-19.44118 8.56435,-2.75104 21.1296,-6.9914 27.6761,-2.89303 -6.20334,5.42831 -17.13939,2.81214 -25.00621,6.35736 -13.08588,2.94855 -25.43588,8.42346 -36.74735,15.57058 -11.79388,4.49562 -21.1587,12.72957 -28.90476,22.48828 -7.40283,4.80057 -15.63432,21.28801 -25.4151,13.54766 -3.97332,-4.97479 -7.6423,-12.86496 -12.72505,-4.18763 -7.4841,8.89837 -17.20586,2.8004 -17.32451,-7.23457 -2.72165,-8.99963 -5.30843,-18.04041 -7.73231,-27.12487 -11.04307,0.59968 -21.72681,4.79001 -31.51617,9.67591 -10.95622,6.15477 -21.74302,16.36766 -21.80052,29.79871 0.32036,6.27496 -7.03899,6.53642 -4.14872,-0.0638 1.38802,-14.69687 4.12581,-29.44827 2.21746,-44.23048 -1.95903,-7.5003 -1.33901,-18.78287 9.52674,-15.50714 27.66777,0.21685 55.54693,-1.46377 82.96139,3.21895 17.76755,2.44611 35.50044,5.67175 53.44663,6.18631 12.64466,1.82668 26.01929,6.74773 33.15463,18.02608 7.20096,8.60857 13.32465,20.91033 6.32815,31.54063 -11.80381,13.7526 -43.13865,17.8126 -60.02433,17.23163 -37.9012,0.0336 -76.05526,-0.70499 -113.95127,0.0885 -13.26548,-0.23826 -26.53612,1.20411 -39.787832,0.0564 -5.676805,-7.26677 -2.138834,-17.3752 -1.124461,-25.71864 2.551439,-18.46127 5.73284,-36.93447 5.94309,-55.59594 0.781214,-1.97183 4.215201,-1.33307 3.916972,0.91978 z"
       id="path4138"
       inkscape:connector-curvature="0"
       sodipodi:nodetypes="ccccccccccccccccccccccccccccccccccccccccccc" />
  </g>
</svg>
