<?xml version="1.0" encoding="UTF-8" standalone="no"?>
<!-- Created with Inkscape (http://www.inkscape.org/) -->

<svg
   xmlns:dc="http://purl.org/dc/elements/1.1/"
   xmlns:cc="http://creativecommons.org/ns#"
   xmlns:rdf="http://www.w3.org/1999/02/22-rdf-syntax-ns#"
   xmlns:svg="http://www.w3.org/2000/svg"
   xmlns="http://www.w3.org/2000/svg"
   xmlns:sodipodi="http://sodipodi.sourceforge.net/DTD/sodipodi-0.dtd"
   xmlns:inkscape="http://www.inkscape.org/namespaces/inkscape"
   id="svg4136"
   version="1.1"
   inkscape:version="0.91 r13725"
   xml:space="preserve"
   width="267.45001"
   height="303.625"
   viewBox="0 0 267.45001 303.625"
   sodipodi:docname="UWA-logo-only.svg"><metadata
     id="metadata4142"><rdf:RDF><cc:Work
         rdf:about=""><dc:format>image/svg+xml</dc:format><dc:type
           rdf:resource="http://purl.org/dc/dcmitype/StillImage" /><dc:title></dc:title></cc:Work></rdf:RDF></metadata><defs
     id="defs4140"><clipPath
       clipPathUnits="userSpaceOnUse"
       id="clipPath4152"><path
         d="m 0,0 7390.91,0 0,2429 L 0,2429 0,0 Z"
         id="path4154"
         inkscape:connector-curvature="0" /></clipPath></defs><sodipodi:namedview
     pagecolor="#ffffff"
     bordercolor="#666666"
     borderopacity="1"
     objecttolerance="10"
     gridtolerance="10"
     guidetolerance="10"
     inkscape:pageopacity="0"
     inkscape:pageshadow="2"
     inkscape:window-width="1413"
     inkscape:window-height="625"
     id="namedview4138"
     showgrid="false"
     inkscape:zoom="0.51089854"
     inkscape:cx="561.24639"
     inkscape:cy="121.38803"
     inkscape:window-x="643"
     inkscape:window-y="264"
     inkscape:window-maximized="0"
     inkscape:current-layer="g4150"
     fit-margin-top="0"
     fit-margin-left="0"
     fit-margin-right="0"
     fit-margin-bottom="0" /><g
     id="g4144"
     inkscape:groupmode="layer"
     inkscape:label="ink_ext_XXXXXX"
     transform="matrix(1.25,0,0,-1.25,0,303.625)"><g
       id="g4146"
       transform="scale(0.1,0.1)"><g
         id="g4148"><g
           id="g4150"
           clip-path="url(#clipPath4152)"><path
             d="M 1918.1,732.121 C 1736.05,433.852 1419.58,255.879 1070.31,255.879 c -349.263,0 -665.747,177.973 -847.771,476.25 L 31.8047,555.738 C 138.328,396.391 280.813,262.469 447.012,166.551 635.703,57.6016 851.27,0 1070.31,0 c 219.03,0 434.55,57.6016 623.32,166.551 161.4,93.148 305.33,239.89 410.8,393.25 l -186.33,172.32"
             style="fill:#293d9b;fill-opacity:1;fill-rule:nonzero;stroke:none"
             id="path4156"
             inkscape:connector-curvature="0" /><path
             d="m 243.906,2366.29 1652.83,0 0,62.7773 -1652.83,0 0,-62.7773 z"
             style="fill:#daac06;fill-opacity:1;fill-rule:nonzero;stroke:none"
             id="path4158"
             inkscape:connector-curvature="0" /><path
             d="M 1896.74,1767.61 C 1893.59,1583.3 1936.91,851.84 1070.33,340.082 203.73,851.84 247.051,1583.3 243.906,1767.61 l 0,598.68 1652.834,0 0,-598.68"
             style="fill:#293d9b;fill-opacity:1;fill-rule:nonzero;stroke:none"
             id="path4160"
             inkscape:connector-curvature="0" /><path
             d="M 353.145,1125.2 C 458.047,867.832 664.316,579.852 1070.33,340.082 c 406.02,239.77 612.29,527.75 717.17,785.118 L 1070.31,1788.45 353.145,1125.2"
             style="fill:#daac06;fill-opacity:1;fill-rule:nonzero;stroke:none"
             id="path4162"
             inkscape:connector-curvature="0" /><path
             d="m 935.664,2202.84 c 0,-106.25 0,-212.46 0,-318.71 -85.566,31.41 -188.73,6.39 -243.476,-33.92 0,105.24 0,210.52 0,315.74 48.085,46.84 161.425,67.76 243.476,36.89"
             style="fill:#ffffff;fill-opacity:1;fill-rule:evenodd;stroke:none"
             id="path4164"
             inkscape:connector-curvature="0" /><path
             d="m 425.156,2202 c 0,-106.24 0,-212.45 0,-318.7 85.508,31.41 188.692,6.38 243.457,-33.92 0,105.24 0,210.52 0,315.73 -48.066,46.84 -161.406,67.77 -243.457,36.89"
             style="fill:#ffffff;fill-opacity:1;fill-rule:evenodd;stroke:none"
             id="path4166"
             inkscape:connector-curvature="0" /><path
             d="m 1009.02,1949.22 -0.7,0.11 c -12.234,1.31 -21.574,2.01 -27.929,2.38 l 0,103.95 c 6.211,-0.37 15.285,-1.05 27.229,-2.33 l 1.4,-0.04 c 24.44,-1.1 27.8,11.36 27.8,11.36 -5.55,12.89 -17.87,18.71 -27.8,19.52 l -0.7,0.08 c -12.234,1.32 -21.574,2.03 -27.929,2.41 l 0,87.8 -21.621,0 0,-320.44 c -117.754,25.13 -206.758,12.18 -278.418,-40.39 -71.622,52.57 -160.625,65.5 -278.379,40.39 l 0,320.44 -21.621,0 0,-87.8 c -4.539,-0.27 -10.539,-0.69 -18.145,-1.39 l 0,3.26 c 0,2.44 -1.992,4.43 -4.824,4.41 l -29.375,-3.17 c -2.363,-0.16 -4.199,-2.06 -4.199,-4.47 l 0,-37.57 c 0,-2.45 2.011,-4.43 5.039,-4.35 l 29.257,2.86 c 2.266,0.23 4.102,2.18 4.102,4.47 l 0,3.58 c 7.606,0.72 13.613,1.14 18.145,1.4 l 0,-103.98 c -4.539,-0.27 -10.539,-0.69 -18.145,-1.41 l 0,3.33 c 0,2.44 -1.992,4.38 -4.824,4.38 l -29.375,-3.18 c -2.363,-0.12 -4.199,-2.06 -4.199,-4.51 l 0,-37.5 c 0,-2.44 2.011,-4.44 5.039,-4.38 l 29.257,2.96 c 2.266,0.15 4.102,2.07 4.102,4.41 l 0,3.56 c 7.606,0.71 13.613,1.13 18.145,1.39 l 0,-93.84 13.281,3.08 c 121.23,28.27 210.234,16.05 280.058,-38.41 l 6.661,-5.27 6.699,5.27 c 69.804,54.46 158.828,66.66 280.078,38.41 l 13.262,-3.08 0,93.81 c 6.211,-0.36 15.285,-1.04 27.229,-2.32 l 1.4,-0.06 c 24.44,-1.1 27.8,11.37 27.8,11.37 -5.55,12.88 -17.87,18.7 -27.8,19.5"
             style="fill:#ffffff;fill-opacity:1;fill-rule:nonzero;stroke:none"
             id="path4168"
             inkscape:connector-curvature="0" /><path
             d="m 397.688,314.641 c -11.559,-14.961 -31.047,-17.36 -51.825,-1.301 -11.172,8.621 -18.242,17.879 -22.543,25.558 l 11.106,14.372 c 0.828,1.07 2.113,1.019 3.445,-0.2 l 6.762,-5.98 c 0.469,-0.36 0.887,-1.059 0.363,-1.981 l -4.719,-6.597 c 4.567,-5.621 9.606,-10.653 13.399,-13.582 10.812,-8.348 22.086,-11.18 29.703,-1.321 8.164,10.571 5.781,15.821 -7.465,36.493 -9.449,15.257 -13.363,29.089 -3.18,42.269 11.465,14.84 30.364,15.988 50.434,0.481 7.359,-5.68 13.82,-11.813 19.18,-18.614 L 430.332,368.68 c -0.82,-1.071 -2.113,-1.02 -3.453,0.199 l -6.75,5.98 c -0.481,0.371 -0.891,1.071 -0.359,1.981 l 4.71,6.601 c -2.925,2.84 -5.949,5.547 -8.917,7.84 -11.047,8.528 -22.235,9.028 -28.567,0.828 -6.601,-8.55 -4,-15.488 7.77,-33.879 12.39,-19.05 12.097,-31.718 2.922,-43.589"
             style="fill:#ffffff;fill-opacity:1;fill-rule:nonzero;stroke:none"
             id="path4170"
             inkscape:connector-curvature="0" /><path
             d="m 512.813,227.359 c 0.648,-0.367 0.808,-1 0.433,-1.64 l -9.301,-15.77 -62.683,36.942 c -1.028,0.609 -1.094,1.691 -0.207,2.91 l 4.199,6.23 c 0.23,0.379 0.797,0.75 1.648,0.418 l 3.899,-1.949 47.519,80.66 -3.851,2.621 c -0.906,0.528 -0.77,1.668 0.051,2.75 l 4.203,6.239 c 0.375,0.64 0.988,0.812 1.636,0.421 l 60.493,-35.64 -9.293,-15.77 c -0.614,-1.043 -1.688,-1.09 -2.899,-0.211 l -6.25,4.2 c -0.379,0.23 -0.746,0.789 -0.414,1.64 l 1.949,3.91 -32.187,18.961 -18.047,-30.633 36.457,-21.476 -7.02,-11.891 -36.445,21.481 -19.871,-33.742 34.379,-20.258 2.617,3.847 c 0.535,0.911 1.66,0.77 2.754,-0.05 l 6.231,-4.2"
             style="fill:#ffffff;fill-opacity:1;fill-rule:nonzero;stroke:none"
             id="path4172"
             inkscape:connector-curvature="0" /><path
             d="m 644.082,166.031 c 0.688,-0.301 0.93,-0.89 0.637,-1.582 l -7.258,-16.808 -66.832,28.82 c -1.102,0.48 -1.289,1.551 -0.563,2.859 l 3.387,6.711 c 0.176,0.41 0.692,0.848 1.574,0.629 l 4.114,-1.449 37.089,85.98 -4.156,2.118 c -0.965,0.421 -0.961,1.562 -0.281,2.742 l 3.379,6.719 c 0.297,0.679 0.887,0.921 1.574,0.621 l 64.488,-27.809 -7.25,-16.812 c -0.472,-1.11 -1.543,-1.301 -2.855,-0.571 l -6.711,3.383 c -0.414,0.188 -0.844,0.699 -0.629,1.59 l 1.445,4.109 -34.304,14.801 -14.09,-32.66 38.851,-16.762 -5.461,-12.68 -38.859,16.77 -15.512,-35.969 36.653,-15.812 2.129,4.152 c 0.414,0.969 1.55,0.969 2.73,0.289 l 6.711,-3.379"
             style="fill:#ffffff;fill-opacity:1;fill-rule:nonzero;stroke:none"
             id="path4174"
             inkscape:connector-curvature="0" /><path
             d="m 821.938,211.359 c 1.152,-0.32 1.484,-1.347 0.937,-2.75 l -2.469,-7.097 c -0.125,-0.43 -0.57,-0.93 -1.476,-0.832 l -4.262,0.89 -46.977,-27.922 20.602,-61.886 4.25,-1.512 c 1.012,-0.289 1.156,-1.418 0.645,-2.668 l -2.461,-7.102 c -0.204,-0.73 -0.754,-1.0386 -1.481,-0.8316 l -15.441,4.3396 -20.336,61.203 -13.078,-7.703 -8.411,-29.879 4.391,-1.55 c 1.012,-0.289 1.168,-1.418 0.656,-2.68 l -2.472,-7.098 c -0.203,-0.722 -0.754,-1.031 -1.473,-0.832 l -24.691,6.949 c -1.157,0.321 -1.489,1.364 -0.942,2.762 l 2.461,7.102 c 0.133,0.429 0.578,0.929 1.485,0.82 l 4.265,-0.891 25.36,90.098 -4.387,1.563 c -1.02,0.277 -1.168,1.41 -0.656,2.668 l 2.468,7.101 c 0.207,0.719 0.758,1.027 1.473,0.828 l 24.691,-6.949 c 1.153,-0.32 1.496,-1.352 0.942,-2.762 l -2.465,-7.097 c -0.121,-0.43 -0.574,-0.922 -1.481,-0.832 l -4.265,0.89 -11.34,-40.277 49.16,29.637 -4.39,1.55 c -1.004,0.282 -1.157,1.411 -0.641,2.672 l 2.461,7.098 c 0.203,0.723 0.754,1.031 1.48,0.832 l 27.868,-7.852"
             style="fill:#ffffff;fill-opacity:1;fill-rule:nonzero;stroke:none"
             id="path4176"
             inkscape:connector-curvature="0" /><path
             d="m 1086.25,180.762 c 1.21,-0.063 1.75,-0.992 1.53,-2.492 l -0.85,-7.461 c -0.02,-0.457 -0.34,-1.039 -1.26,-1.137 l -4.21,-0.082 -30.52,-98.34 c -1.07,-3.25 -3.87,-5.0586 -7.16,-4.8906 l -11.68,1.0625 c -1.64,0.0898 -2.18,1.1679 -2.55,2.8398 l -15.8,88.7383 -0.17,0.012 -24.439,-82.7307 c -0.911,-2.961 -3.078,-7.0508 -8.317,-6.6329 l -11.219,1.043 c -1.347,0.0586 -2.203,0.8594 -2.55,2.8281 l -19.274,103.0395 -4.468,0.543 c -1.063,0.058 -1.458,1.128 -1.239,2.468 l 0.84,7.461 c 0.039,0.758 0.52,1.18 1.27,1.141 l 24.726,-1.293 c 1.203,-0.059 1.754,-0.988 1.524,-2.481 l -0.84,-7.468 c -0.024,-0.45 -0.36,-1.032 -1.266,-1.141 l -4.211,-0.078 14.633,-88.3712 0.141,-0.0078 26.229,90.75 c 1.47,5.18 4.11,6.848 7.7,6.508 l 8.52,-0.899 c 1.49,-0.23 2.05,-1.011 2.4,-2.972 l 16.75,-96.5979 0.14,-0.0117 24.65,86.3206 -4.47,0.531 c -1.06,0.059 -1.46,1.141 -1.24,2.48 l 0.84,7.469 c 0.04,0.75 0.52,1.172 1.27,1.129 l 24.57,-1.277"
             style="fill:#ffffff;fill-opacity:1;fill-rule:nonzero;stroke:none"
             id="path4178"
             inkscape:connector-curvature="0" /><path
             d="m 1180.28,82.8789 c 1.04,0.082 1.58,-0.918 1.54,-2.2773 l 0.19,-7.5196 c 0.06,-0.7422 -0.35,-1.2304 -1.1,-1.3007 l -25.56,-2.1407 c -1.2,-0.1015 -1.86,0.7383 -1.85,2.25 l -0.18,7.5078 c -0.03,0.4532 0.21,1.0821 1.09,1.3008 l 4.31,0.6602 -7.84,93.2696 -4.67,-0.09 c -1.05,-0.09 -1.57,0.922 -1.54,2.27 l -0.18,7.523 c -0.07,0.75 0.34,1.227 1.09,1.289 l 25.56,2.16 c 1.2,0.09 1.87,-0.75 1.84,-2.25 l 0.19,-7.519 c 0.03,-0.442 -0.21,-1.071 -1.1,-1.293 l -4.31,-0.668 7.85,-93.2619 4.67,0.0898"
             style="fill:#ffffff;fill-opacity:1;fill-rule:nonzero;stroke:none"
             id="path4180"
             inkscape:connector-curvature="0" /><path
             d="m 1321.83,126.082 c 3.58,-18.551 -7.51,-34.7422 -33.29,-39.7109 -13.85,-2.6602 -25.45,-1.8398 -34.06,0.0078 l -3.43,17.8321 c -0.25,1.32 0.63,2.25 2.43,2.449 l 8.95,1.11 c 0.59,0.109 1.38,-0.04 1.72,-1.04 l 1.84,-7.898 c 7.22,-0.2929 14.32,0.1563 19.03,1.0664 13.41,2.5816 22.98,9.1606 20.62,21.3906 -2.52,13.102 -8.04,14.793 -32.28,18.52 -17.68,3.011 -30.64,9.222 -33.79,25.57 -3.54,18.41 8.1,33.332 32.99,38.121 9.13,1.762 17.99,2.551 26.63,2.07 l 3.72,-19.289 c 0.25,-1.32 -0.64,-2.261 -2.44,-2.449 l -8.94,-1.121 c -0.59,-0.109 -1.39,0.039 -1.74,1.051 l -1.82,7.886 c -4.06,-0.316 -8.09,-0.789 -11.78,-1.5 -13.69,-2.636 -21.45,-10.699 -19.5,-20.859 2.05,-10.609 8.96,-13.25 30.54,-16.578 22.48,-3.301 31.76,-11.902 34.6,-26.629"
             style="fill:#ffffff;fill-opacity:1;fill-rule:nonzero;stroke:none"
             id="path4182"
             inkscape:connector-curvature="0" /><path
             d="m 1432.05,138.102 c 30.14,10.128 30.14,33.23 22.54,55.839 -8.41,25.02 -19.96,39.649 -52.68,28.668 l -12.36,-4.16 28.57,-85.027 13.93,4.68 z m -34.2,97.058 c 44.08,14.809 62.72,-2.5 73.9,-35.781 13.89,-41.367 -1.13,-62.57 -39.38,-75.41 l -30.14,-10.129 c -1.14,-0.391 -2,0.281 -2.33,1.742 l -1.96,7.258 c -0.15,0.43 -0.06,1.09 0.75,1.519 l 4.03,1.672 -29.81,88.719 -4.51,-1.191 c -0.99,-0.329 -1.75,0.511 -2.04,1.839 l -1.96,7.262 c -0.24,0.711 0.04,1.281 0.75,1.52 l 32.7,10.98"
             style="fill:#ffffff;fill-opacity:1;fill-rule:nonzero;stroke:none"
             id="path4184"
             inkscape:connector-curvature="0" /><path
             d="m 1544.35,230.539 c 8.8,-17.551 24.27,-38.32 46.26,-27.277 18.22,9.148 18.32,28.668 5.87,53.457 -9.01,17.972 -24.55,37.851 -46.13,27.019 -21.97,-11.039 -14.75,-35.769 -6,-53.199 z m 68.08,33.852 c 17.83,-35.512 10.76,-60.539 -15.51,-73.731 -25.99,-13.051 -50.83,-3.371 -68.39,31.61 -12.66,25.199 -17,57.582 15.7,74 28.02,14.062 52.45,-0.52 68.2,-31.879"
             style="fill:#ffffff;fill-opacity:1;fill-rule:nonzero;stroke:none"
             id="path4186"
             inkscape:connector-curvature="0" /><path
             d="m 1793.02,327.73 c 0.86,0.61 1.83,0.008 2.5,-1.171 l 3.97,-6.379 c 0.44,-0.61 0.33,-1.239 -0.29,-1.68 l -20.54,-14.59 c -0.97,-0.691 -1.99,-0.301 -2.73,1.012 l -3.98,6.367 c -0.27,0.371 -0.36,1.031 0.29,1.672 l 3.25,2.68 -42.87,57.5 15.54,-72.129 c 0.56,-2.352 0.56,-4.93 -1.27,-6.231 -1.35,-0.961 -3.43,-2.429 -4.74,-3.179 -1.43,-0.84 -2.42,-0.993 -3.69,-0.243 l -65.4,39.481 39.93,-59.578 3.97,2.437 c 0.86,0.61 1.83,0.02 2.48,-1.168 l 3.99,-6.383 c 0.43,-0.609 0.32,-1.226 -0.28,-1.668 l -20.06,-14.242 c -0.98,-0.687 -2,-0.308 -2.74,1 l -3.98,6.371 c -0.26,0.371 -0.35,1.039 0.3,1.672 l 3.35,2.77 -51.49,78.219 -3.85,-2.36 c -0.85,-0.609 -1.83,-0.012 -2.49,1.172 l -3.98,6.379 c -0.43,0.609 -0.32,1.238 0.29,1.68 l 14.67,10.418 c 0.62,0.429 1.24,0.32 1.83,0.011 l 76.95,-46.172 -19.03,86.383 c -0.29,1.449 0.06,2.25 1.15,3.028 l 15.29,10.863 c 0.98,0.687 1.99,0.308 2.73,-1.012 l 3.98,-6.371 c 0.26,-0.367 0.37,-1.027 -0.27,-1.68 l -3.38,-2.757 56.76,-74.493 3.84,2.371"
             style="fill:#ffffff;fill-opacity:1;fill-rule:nonzero;stroke:none"
             id="path4188"
             inkscape:connector-curvature="0" /><path
             d="m 78.75,642.109 121.523,112.27 27.579,25.953 15.39,-25.461 c 26.504,-43.949 56.055,-85.18 88.145,-123.621 l 41.23,37.5 c -55.898,67.441 -101.523,143.211 -134.98,225.352 -12.617,30.957 -23.321,62.5 -32.168,94.457 L 139.355,818.809 0,799.301 c 0.214844,-0.59 0.429688,-1.172 0.644531,-1.719 L 78.75,642.109"
             style="fill:#293d9b;fill-opacity:1;fill-rule:nonzero;stroke:none"
             id="path4190"
             inkscape:connector-curvature="0" /><path
             d="m 1716.5,2202.84 c 0,-106.25 0,-212.46 0,-318.71 -85.56,31.41 -188.73,6.39 -243.47,-33.92 0,105.24 0,210.52 0,315.74 48.08,46.84 161.42,67.76 243.47,36.89"
             style="fill:#ffffff;fill-opacity:1;fill-rule:evenodd;stroke:none"
             id="path4192"
             inkscape:connector-curvature="0" /><path
             d="m 1206,2202 c 0,-106.24 0,-212.45 0,-318.7 85.5,31.41 188.69,6.38 243.45,-33.92 0,105.24 0,210.52 0,315.73 -48.06,46.84 -161.4,67.77 -243.45,36.89"
             style="fill:#ffffff;fill-opacity:1;fill-rule:evenodd;stroke:none"
             id="path4194"
             inkscape:connector-curvature="0" /><path
             d="m 1789.86,1949.22 -0.7,0.11 c -12.24,1.31 -21.57,2.01 -27.93,2.38 l 0,103.95 c 6.21,-0.37 15.28,-1.05 27.23,-2.33 l 1.4,-0.04 c 24.44,-1.1 27.8,11.36 27.8,11.36 -5.55,12.89 -17.87,18.71 -27.8,19.52 l -0.7,0.08 c -12.24,1.32 -21.57,2.03 -27.93,2.41 l 0,87.8 -21.62,0 0,-320.44 c -117.75,25.13 -206.76,12.18 -278.42,-40.39 -71.62,52.57 -160.62,65.5 -278.38,40.39 l 0,320.44 -21.62,0 0,-87.8 c -4.54,-0.27 -10.54,-0.69 -18.14,-1.39 l 0,3.26 c 0,2.44 -2,4.43 -4.83,4.41 l -29.37,-3.17 c -2.37,-0.16 -4.2,-2.06 -4.2,-4.47 l 0,-37.57 c 0,-2.45 2.01,-4.43 5.04,-4.35 l 29.26,2.86 c 2.26,0.23 4.1,2.18 4.1,4.47 l 0,3.58 c 7.6,0.72 13.61,1.14 18.14,1.4 l 0,-103.98 c -4.54,-0.27 -10.54,-0.69 -18.14,-1.41 l 0,3.33 c 0,2.44 -2,4.38 -4.83,4.38 l -29.37,-3.18 c -2.37,-0.12 -4.2,-2.06 -4.2,-4.51 l 0,-37.5 c 0,-2.44 2.01,-4.44 5.04,-4.38 l 29.26,2.96 c 2.26,0.15 4.1,2.07 4.1,4.41 l 0,3.56 c 7.6,0.71 13.61,1.13 18.14,1.39 l 0,-93.84 13.28,3.08 c 121.23,28.27 210.24,16.05 280.06,-38.41 l 6.66,-5.27 6.7,5.27 c 69.81,54.46 158.83,66.66 280.08,38.41 l 13.26,-3.08 0,93.81 c 6.21,-0.36 15.28,-1.04 27.23,-2.32 l 1.4,-0.06 c 24.44,-1.1 27.8,11.37 27.8,11.37 -5.55,12.88 -17.87,18.7 -27.8,19.5"
             style="fill:#ffffff;fill-opacity:1;fill-rule:nonzero;stroke:none"
             id="path4196"
             inkscape:connector-curvature="0" /><path
             d="m 2060.85,642.109 -121.52,112.27 -27.58,25.953 -15.39,-25.461 c -26.51,-43.949 -56.06,-85.18 -88.15,-123.621 l -41.23,37.5 c 55.9,67.441 101.53,143.211 134.98,225.352 12.62,30.957 23.32,62.5 32.17,94.457 l 66.11,-169.75 139.36,-19.508 c -0.22,-0.59 -0.43,-1.172 -0.64,-1.719 l -78.11,-155.473"
             style="fill:#293d9b;fill-opacity:1;fill-rule:nonzero;stroke:none"
             id="path4198"
             inkscape:connector-curvature="0" /><path
             d="m 1112.36,870.59 c 48.79,-24.399 90.63,-36.469 115.92,-34.852 0.76,0.043 2.62,0.082 3.4,0.121 8.65,0.629 19.8,3.032 28.12,8.051 7.58,4.551 12.62,9.391 16.94,15.641 5,7.347 7.17,13.578 7.58,21.347 -3.17,-1.207 -6.31,-2.168 -9.24,-2.91 -0.78,-0.187 -2.7,-0.566 -3.48,-0.738 -28.34,-4.43 -63.81,-0.59 -112.75,12.672 -7.99,-8.981 -24.47,-13.981 -41.99,-9.801 -1.47,-3.281 -2.95,-6.391 -4.5,-9.531"
             style="fill:#ffffff;fill-opacity:1;fill-rule:nonzero;stroke:none"
             id="path4200"
             inkscape:connector-curvature="0" /><path
             d="m 1181.7,1138.36 c -1.27,-3.08 -2.64,-6.03 -4.34,-9.06 -7.28,-12.62 -17.28,-22.01 -27.36,-26.97 0.12,-3.23 0.16,-6.45 0.2,-9.71 20.99,9.14 42.3,19.65 63.51,31.05 78.71,42.19 134.24,89.09 151.47,122.46 0.43,0.8 1.48,2.7 1.87,3.52 4.69,9 8.91,21.66 8.91,33.02 0,19.3 -8.21,36.12 -20.55,45.12 -16.27,-37.81 -46.07,-80.62 -86.89,-120.69 -27.7,-27.23 -57.37,-50.46 -86.82,-68.74"
             style="fill:#ffffff;fill-opacity:1;fill-rule:nonzero;stroke:none"
             id="path4202"
             inkscape:connector-curvature="0" /><path
             d="m 1171.07,939.672 c -6.91,-7.582 -18.9,-14.551 -32.98,-15.801 -2.86,-0.23 -5.41,-0.391 -8.15,-0.312 -0.82,-2.868 -1.7,-5.668 -2.64,-8.477 70.77,-19.762 129.89,-24.023 160.14,-14.32 0.74,0.199 2.66,0.75 3.4,0.976 8.71,2.793 19.47,8.153 26.72,15.352 6.56,6.621 10.51,12.808 13.32,20.371 3.22,8.687 2.17,16.121 2.17,16.121 -2.97,-2.07 -17.72,-6.844 -17.72,-6.844 -27.73,-10.097 -75.12,-12.168 -144.26,-7.066"
             style="fill:#ffffff;fill-opacity:1;fill-rule:nonzero;stroke:none"
             id="path4204"
             inkscape:connector-curvature="0" /><path
             d="m 1370.72,1123.23 c -26.11,-28.72 -93.42,-60.61 -182.59,-82.06 -5.71,-9.12 -16.29,-17.55 -29.79,-22.46 -3.89,-1.44 -7.79,-2.46 -11.58,-3.14 -0.35,-3.03 -0.72,-5.86 -1.08,-8.85 7.03,0.24 14.05,0.57 21.12,0.96 89.2,5 159.33,24.06 189.04,47.01 0.74,0.53 2.52,1.82 3.2,2.32 8.01,6.23 17.27,15.92 22.07,26.22 4.36,9.35 6.08,17.34 6.16,26.26 0.05,10.32 -1.94,17.86 -6.59,25.59 -2.32,-3.24 -4.72,-6.25 -7.07,-8.81 -0.62,-0.72 -2.22,-2.32 -2.89,-3.04"
             style="fill:#ffffff;fill-opacity:1;fill-rule:nonzero;stroke:none"
             id="path4206"
             inkscape:connector-curvature="0" /><path
             d="m 1216.09,812.68 c -28.12,0.64 -68.55,13.379 -115.78,36.929 -2.2,-3.668 -4.37,-7.187 -6.68,-10.621 36.35,-18.968 69.08,-31.898 95.84,-38.168 -1.29,-1.441 -2.65,-2.871 -4.26,-4.351 -5.62,-5.16 -11.62,-8.688 -20,-11.469 -9.23,-3.012 -20.68,-2.871 -29.23,-1.418 -0.78,0.09 -2.6,0.469 -3.34,0.617 -15.84,2.582 -36.86,11.992 -60.84,27.383 -2.82,-2.852 -5.65,-5.523 -8.52,-8.062 25,-16.598 47.35,-27.579 64.96,-32.032 -4.57,-3.597 -9.18,-5.816 -15.72,-7.617 -7.75,-2.051 -17.11,-1.43 -24.14,0.078 -0.63,0.121 -2.07,0.531 -2.7,0.641 -12.16,2.68 -27.87,10.531 -45.6,22.871 -3.99,-2.031 -8.05,-3.731 -12.07,-5.191 -7.62,-2.27 -18.34,-4.399 -26.23,-4.399 -23.577,0 -45.96,10.731 -65.901,30 -0.801,0.75 -6.641,-5.25 -5.84,-6.012 19.785,-21.64 45.645,-33.847 71.251,-33.847 8.3,0 28.46,2.91 35.94,7.558 21.09,-14.629 38.28,-21.582 52.3,-23.91 0.68,-0.109 2.33,-0.449 3.01,-0.539 7.77,-1.23 18.12,-1.391 26.52,1.34 7.56,2.461 13.01,5.687 18.11,10.371 2.07,1.918 4.16,3.969 5.62,5.918 8.91,-0.988 19.61,-0.738 28.48,2.109 9.24,3.012 15.84,6.973 22.01,12.641 5.14,4.711 10,9.059 12.4,14.238 13.85,-0.566 24.75,1.742 24.75,1.742 5.21,0.84 11.17,2.61 16.15,7.051 3.56,3.219 5.96,6.149 7.5,10.039 -10.99,-3.23 -22.97,-4.34 -32.79,-4.179 -1.11,0.07 -4,0.211 -5.2,0.289"
             style="fill:#ffffff;fill-opacity:1;fill-rule:nonzero;stroke:none"
             id="path4208"
             inkscape:connector-curvature="0" /><path
             d="m 1261.09,1127.76 c -22.52,-13.79 -45.46,-25.61 -68.2,-35.26 -2.56,-4.43 -5.78,-8.88 -9.53,-13.04 -10.12,-11.23 -22.27,-18.52 -33.52,-21.04 -0.13,-3.16 -0.33,-6.37 -0.46,-9.51 13.04,2.95 26.3,6.31 39.55,9.88 86.17,23.44 150.82,56.66 175.11,85.33 0.59,0.65 2.07,2.27 2.62,2.97 6.58,7.74 13.57,19.1 16.15,30.18 4.34,18.81 0.94,33.82 -9.02,45.34 -24.36,-33.13 -63.97,-64.93 -112.7,-94.85"
             style="fill:#ffffff;fill-opacity:1;fill-rule:nonzero;stroke:none"
             id="path4210"
             inkscape:connector-curvature="0" /><path
             d="m 1363.89,1040.96 c -0.75,-0.61 -2.91,-2.17 -3.64,-2.73 -28.49,-22.02 -92.03,-39.75 -174.2,-46.8 l -0.07,-0.039 c -5.49,-5.332 -12.46,-11.582 -20.43,-15.309 -8.62,-4.012 -17.42,-6.41 -25.59,-7.031 -0.58,-3.192 -1.25,-5.039 -1.89,-8.192 0.54,-0.058 0.97,-0.078 1.56,-0.168 88.73,-10.531 161.11,-3.992 194.33,13.489 0.83,0.41 2.8,1.332 3.56,1.699 9.02,4.832 19.77,12.703 26.29,22.012 5.9,8.459 9,16.019 10.64,24.769 1.78,10.17 1.27,17.13 -1.95,25.58 -2.85,-2.79 -5.84,-5.15 -8.61,-7.28"
             style="fill:#ffffff;fill-opacity:1;fill-rule:nonzero;stroke:none"
             id="path4212"
             inkscape:connector-curvature="0" /><path
             d="m 1183.77,1209.35 c 0.04,-10.54 -3.3,-22.75 -9.94,-34.23 -7.23,-12.46 -16.97,-21.91 -26.97,-26.88 0.33,-3.34 0.66,-6.64 0.95,-10.03 35.33,19.33 71.84,46.23 105.3,79.09 40,39.34 69.14,80.96 85.07,118 4.4,10.15 6.57,22.45 5.69,35.65 -1.86,26.83 -15.88,49.11 -33.75,56.51 0.35,-5.1 0.11,-10.46 -0.61,-15.94 -3.92,-37.34 -38.55,-101.47 -96.56,-169.41 -9.57,-11.19 -19.28,-22.21 -29.18,-32.76"
             style="fill:#ffffff;fill-opacity:1;fill-rule:nonzero;stroke:none"
             id="path4214"
             inkscape:connector-curvature="0" /><path
             d="m 1198.03,1251.44 c 57.22,68.66 91.05,133.19 94.53,170.59 2.85,23.45 -3.11,45.2 -16.29,52.87 -1.06,-33.39 -46.37,-114.74 -118.2,-205.77 6.73,-12.65 3.65,-33.93 -7.27,-52.56 -3.65,-6.29 -5.82,-8.47 -12.3,-14.95 0.84,-4.08 1.6,-8.41 2.34,-12.57 19.39,18.88 38.67,40.14 57.19,62.39"
             style="fill:#ffffff;fill-opacity:1;fill-rule:nonzero;stroke:none"
             id="path4216"
             inkscape:connector-curvature="0" /><path
             d="m 745.215,1212.46 c -1.758,0.69 -3.516,1.31 -5.293,1.8 0.762,-7.95 0.801,-16.56 0.762,-25.49 -0.176,-22.01 -3.047,-42.93 -7.559,-60.13 -1.152,-4.61 0.879,-9.05 4.824,-10.65 1.25,-0.51 2.656,-0.66 3.965,-0.49 l 0.078,0.24 c 7.031,16.07 16.113,33.75 27.051,51.77 2.012,3.36 4.004,6.64 6.016,9.87 -3.672,14.14 -14.356,26.79 -29.844,33.08"
             style="fill:#231f20;fill-opacity:1;fill-rule:nonzero;stroke:none"
             id="path4218"
             inkscape:connector-curvature="0" /><path
             d="m 1359.04,1057.01 c -0.68,-0.5 -2.46,-1.79 -3.2,-2.32 -29.71,-22.95 -99.84,-42.01 -189.04,-47.01 -7.07,-0.39 -14.09,-0.72 -21.12,-0.96 0.36,2.99 0.73,5.82 1.08,8.85 3.79,0.68 7.69,1.7 11.58,3.14 13.5,4.91 24.08,13.34 29.79,22.46 89.17,21.45 156.48,53.34 182.59,82.06 0.67,0.72 2.27,2.32 2.89,3.04 2.35,2.56 4.75,5.57 7.07,8.81 4.65,-7.73 6.64,-15.27 6.59,-25.59 -0.08,-8.92 -1.8,-16.91 -6.16,-26.26 -4.8,-10.3 -14.06,-19.99 -22.07,-26.22 z m 8.01,192.64 c -0.39,-0.82 -1.44,-2.72 -1.87,-3.52 -17.23,-33.37 -72.76,-80.27 -151.47,-122.46 -21.21,-11.4 -42.52,-21.91 -63.51,-31.05 -0.04,3.26 -0.08,6.48 -0.2,9.71 10.08,4.96 20.08,14.35 27.36,26.97 1.7,3.03 3.07,5.98 4.34,9.06 29.45,18.28 59.12,41.51 86.82,68.74 40.82,40.07 70.62,82.88 86.89,120.69 12.34,-9 20.55,-25.82 20.55,-45.12 0,-11.36 -4.22,-24.02 -8.91,-33.02 z m 15.76,-72.38 c -2.58,-11.08 -9.57,-22.44 -16.15,-30.18 -0.55,-0.7 -2.03,-2.32 -2.62,-2.97 -24.29,-28.67 -88.94,-61.89 -175.11,-85.33 -13.25,-3.57 -26.51,-6.93 -39.55,-9.88 0.13,3.14 0.33,6.35 0.46,9.51 11.25,2.52 23.4,9.81 33.52,21.04 3.75,4.16 6.97,8.61 9.53,13.04 22.74,9.65 45.68,21.47 68.2,35.26 48.73,29.92 88.34,61.72 112.7,94.85 9.96,-11.52 13.36,-26.53 9.02,-45.34 z m -72.69,250.19 c 17.87,-7.4 31.89,-29.68 33.75,-56.51 0.88,-13.2 -1.29,-25.5 -5.69,-35.65 -15.93,-37.04 -45.07,-78.66 -85.07,-118 -33.46,-32.86 -69.97,-59.76 -105.3,-79.09 -0.29,3.39 -0.62,6.69 -0.95,10.03 10,4.97 19.74,14.42 26.97,26.88 6.64,11.48 9.98,23.69 9.94,34.23 9.9,10.55 19.61,21.57 29.18,32.76 58.01,67.94 92.64,132.07 96.56,169.41 0.72,5.48 0.96,10.84 0.61,15.94 z m -17.56,-5.43 c -3.48,-37.4 -37.31,-101.93 -94.53,-170.59 -18.52,-22.25 -37.8,-43.51 -57.19,-62.39 -0.74,4.16 -1.5,8.49 -2.34,12.57 6.48,6.48 8.65,8.66 12.3,14.95 10.92,18.63 14,39.91 7.27,52.56 71.83,91.03 117.14,172.38 118.2,205.77 13.18,-7.67 19.14,-29.42 16.29,-52.87 z m -60.88,-586.171 c -0.78,-0.039 -2.64,-0.078 -3.4,-0.121 -25.29,-1.617 -67.13,10.453 -115.92,34.852 1.55,3.14 3.03,6.25 4.5,9.531 17.52,-4.18 34,0.82 41.99,9.801 48.94,-13.262 84.41,-17.102 112.75,-12.672 0.78,0.172 2.7,0.551 3.48,0.738 2.93,0.742 6.07,1.703 9.24,2.91 -0.41,-7.769 -2.58,-14 -7.58,-21.347 -4.32,-6.25 -9.36,-11.09 -16.94,-15.641 -8.32,-5.019 -19.47,-7.422 -28.12,-8.051 z m -1.25,-36.379 c 0,0 -10.9,-2.308 -24.75,-1.742 -2.4,-5.179 -7.26,-9.527 -12.4,-14.238 -6.17,-5.668 -12.77,-9.629 -22.01,-12.641 -8.87,-2.847 -19.57,-3.097 -28.48,-2.109 -1.46,-1.949 -3.55,-4 -5.62,-5.918 -5.1,-4.684 -10.55,-7.91 -18.11,-10.371 -8.4,-2.731 -18.75,-2.57 -26.52,-1.34 -0.68,0.09 -2.33,0.43 -3.01,0.539 -14.02,2.328 -31.21,9.281 -52.3,23.91 -7.48,-4.648 -27.64,-7.558 -35.94,-7.558 -25.606,0 -51.466,12.207 -71.251,33.847 -0.801,0.762 5.039,6.762 5.84,6.012 19.941,-19.269 42.324,-30 65.901,-30 7.89,0 18.61,2.129 26.23,4.399 4.02,1.46 8.08,3.16 12.07,5.191 17.73,-12.34 33.44,-20.191 45.6,-22.871 0.63,-0.11 2.07,-0.52 2.7,-0.641 7.03,-1.508 16.39,-2.129 24.14,-0.078 6.54,1.801 11.15,4.02 15.72,7.617 -17.61,4.453 -39.96,15.434 -64.96,32.032 2.87,2.539 5.7,5.21 8.52,8.062 23.98,-15.391 45,-24.801 60.84,-27.383 0.74,-0.148 2.56,-0.527 3.34,-0.617 8.55,-1.453 20,-1.594 29.23,1.418 8.38,2.781 14.38,6.309 20,11.469 1.61,1.48 2.97,2.91 4.26,4.351 -26.76,6.27 -59.49,19.2 -95.84,38.168 2.31,3.434 4.48,6.953 6.68,10.621 47.23,-23.55 87.66,-36.289 115.78,-36.929 1.2,-0.078 4.09,-0.219 5.2,-0.289 9.82,-0.161 21.8,0.949 32.79,4.179 -1.54,-3.89 -3.94,-6.82 -7.5,-10.039 -4.98,-4.441 -10.94,-6.211 -16.15,-7.051 z m 100.45,137.981 c -2.81,-7.563 -6.76,-13.75 -13.32,-20.371 -7.25,-7.199 -18.01,-12.559 -26.72,-15.352 -0.74,-0.226 -2.66,-0.777 -3.4,-0.976 -30.25,-9.703 -89.37,-5.442 -160.14,14.32 0.94,2.809 1.82,5.609 2.64,8.477 2.74,-0.079 5.29,0.082 8.15,0.312 14.08,1.25 26.07,8.219 32.98,15.801 69.14,-5.102 116.53,-3.031 144.26,7.066 0,0 14.75,4.774 17.72,6.844 0,0 1.05,-7.434 -2.17,-16.121 z m 43.57,85.199 c -1.64,-8.75 -4.74,-16.31 -10.64,-24.769 -6.52,-9.309 -17.27,-17.18 -26.29,-22.012 -0.76,-0.367 -2.73,-1.289 -3.56,-1.699 -33.22,-17.481 -105.6,-24.02 -194.33,-13.489 -0.59,0.09 -1.02,0.11 -1.56,0.168 0.64,3.153 1.31,5 1.89,8.192 8.17,0.621 16.97,3.019 25.59,7.031 7.97,3.727 14.94,9.977 20.43,15.309 l 0.07,0.039 c 82.17,7.05 145.71,24.78 174.2,46.8 0.73,0.56 2.89,2.12 3.64,2.73 2.77,2.13 5.76,4.49 8.61,7.28 3.22,-8.45 3.73,-15.41 1.95,-25.58 z m 36.31,88.44 c -0.96,13.9 -5.37,26.89 -12.09,37.46 8.32,12.24 12.7,27.75 12.11,45.25 -0.6,19 -7.4,36.44 -18.05,49.43 6.84,12.11 10.3,26.38 9.75,42.52 -0.98,28.48 -14.55,53.24 -34.49,66.21 0.68,5.44 0.84,10.72 0.72,16.47 -1.29,42.79 -19.76,69.75 -49.43,81.24 -6.31,30.73 -26.99,59.09 -45.45,72.95 -22.44,-95.17 -93.09,-186.66 -118.56,-222.81 -40.97,-58.13 -50.54,-113.41 -73.36,-180.11 -26.93,-78.69 -45.82,-162.312 -117.945,-211.839 0,7.84 0.43,15.899 1.367,24.258 11.875,107.211 98.518,281.731 67.148,383.491 -1.89,6.16 -4.08,12.21 -6.72,18.07 -30.877,69.76 -101.112,80.62 -173.045,48.17 -44.805,-20.18 -91.367,-37.26 -112.793,-86.14 -8.613,-19.68 -11.66,-39.8 -9.688,-57.02 0.43,-3.85 2.52,-6.95 5.801,-8.06 4.473,-1.53 9.551,1.11 12.207,6.08 1.992,3.41 3.34,8.19 3.692,13.45 0,0.22 0.039,0.42 0.078,0.64 0.078,1.16 0.312,2.45 0.781,3.67 2.266,5.53 8.223,8.33 13.379,6.27 5.137,-2.12 7.402,-8.31 5.176,-13.82 -0.391,-0.98 -0.86,-1.82 -1.485,-2.65 -1.308,-1.78 -2.597,-3.83 -3.847,-6.01 -2.696,-4.97 -4.356,-9.89 -4.961,-13.9 -0.84,-5.74 2.343,-11.61 7.89,-13.97 0.371,-0.2 0.957,-0.47 1.348,-0.64 20.332,-8.29 44.531,2.29 59.082,23.85 5.332,8.04 10.41,17.2 15,27.08 7.188,15.45 6.816,31.19 18.516,44.89 19.668,22.87 77.07,37.86 102.031,7.56 48.538,-58.91 -5.43,-135.11 -39.082,-185.21 -42.383,-63.1 -101.367,-135.348 -131.016,-206.399 -77.5,-185.672 54.766,-367.84 268.066,-367.84 135.47,0 220.02,59.008 268.09,129.5 -92.52,7.2 -142.82,67.071 -142.82,67.071 0,0 18.5,1.867 30.49,21.968 0,0 8.65,1 16.37,1.989 18.67,2.441 35.76,11.992 42.89,32.793 6.05,17.558 6.41,28.578 6.41,28.578 0,0 12.46,5.23 19.72,22.051 4.1,9.531 5.2,14.257 5.24,23.89 21.42,7.199 37.79,25.598 46.79,48.938 4.73,12.383 5.67,18.32 4.56,30.269 24.1,12.114 42.24,46.352 41.3,74.112 -0.29,9.47 -2.67,18.02 -6.17,26.09 10.78,12.54 16.39,30.04 15,50.16"
             style="fill:#231f20;fill-opacity:1;fill-rule:nonzero;stroke:none"
             id="path4220"
             inkscape:connector-curvature="0" /><path
             d="m 1293.27,2053.32 -46.54,0 0,74.37 45.55,0 c 0.43,-1.21 0.77,-3.52 0.77,-6.6 0,-2.41 -0.23,-4.51 -0.77,-6.82 l -29.82,0 0,-16.06 25.2,0 c 0.44,-1.21 0.77,-3.41 0.77,-6.5 0,-2.41 -0.23,-4.39 -0.77,-6.7 l -25.2,0 0,-18.26 30.81,0 c 0.44,-1.21 0.76,-3.52 0.76,-6.61 0,-2.42 -0.21,-4.51 -0.76,-6.82"
             style="fill:#293d9b;fill-opacity:1;fill-rule:nonzero;stroke:none"
             id="path4284"
             inkscape:connector-curvature="0" /><path
             d="m 1328.35,2115.38 c -2.42,0 -5.39,-0.12 -7.26,-0.23 l 0,-22 5.5,0 c 9.03,0 12.98,3.3 12.98,11.44 0,8.14 -3.95,10.79 -11.22,10.79 z m 31.8,-61.95 c -2.86,-0.44 -5.83,-0.66 -9.24,-0.66 -3.09,0 -6.16,0.11 -8.25,0.55 l -15.08,26.73 -6.49,0 0,-26.73 c -2.75,-0.44 -5.06,-0.55 -8.03,-0.55 -2.64,0 -4.95,0.11 -7.7,0.55 l 0,74.37 c 5.06,0.33 15.62,0.56 22,0.56 18.7,0 28.06,-6.61 28.06,-23.77 0,-9.13 -5.51,-18.26 -13.2,-21.56 l 17.93,-29.49"
             style="fill:#293d9b;fill-opacity:1;fill-rule:nonzero;stroke:none"
             id="path4286"
             inkscape:connector-curvature="0" /><path
             d="m 1414.49,2053.32 -46.54,0 0,74.37 45.55,0 c 0.44,-1.21 0.77,-3.52 0.77,-6.6 0,-2.41 -0.23,-4.51 -0.77,-6.82 l -29.82,0 0,-16.06 25.2,0 c 0.44,-1.21 0.77,-3.41 0.77,-6.5 0,-2.41 -0.23,-4.39 -0.77,-6.7 l -25.2,0 0,-18.26 30.81,0 c 0.44,-1.21 0.76,-3.52 0.76,-6.61 0,-2.42 -0.21,-4.51 -0.76,-6.82"
             style="fill:#293d9b;fill-opacity:1;fill-rule:nonzero;stroke:none"
             id="path4288"
             inkscape:connector-curvature="0" /><path
             d="m 1269.73,2012.76 c -2.21,0 -5.07,-0.11 -7.27,-0.22 l 0,-21.89 6.83,0 c 8.46,0 12.98,2.2 12.98,11.22 0,7.7 -3.85,10.89 -12.54,10.89 z m 0.44,-35.31 -7.71,0 0,-26.63 c -2.09,-0.33 -4.62,-0.55 -7.92,-0.55 -2.97,0 -5.72,0.22 -7.81,0.55 l 0,74.27 c 6.39,0.32 16.06,0.66 22.33,0.66 16.84,0 29.05,-5.84 29.05,-23.33 0,-17.05 -10.68,-24.97 -27.94,-24.97"
             style="fill:#293d9b;fill-opacity:1;fill-rule:nonzero;stroke:none"
             id="path4290"
             inkscape:connector-curvature="0" /><path
             d="m 1354.36,1950.82 -46.54,0 0,74.37 45.55,0 c 0.44,-1.21 0.77,-3.52 0.77,-6.6 0,-2.41 -0.22,-4.51 -0.77,-6.82 l -29.82,0 0,-16.06 25.19,0 c 0.45,-1.21 0.77,-3.41 0.77,-6.5 0,-2.41 -0.21,-4.39 -0.77,-6.7 l -25.19,0 0,-18.26 30.81,0 c 0.43,-1.21 0.77,-3.52 0.77,-6.61 0,-2.42 -0.23,-4.51 -0.77,-6.82"
             style="fill:#293d9b;fill-opacity:1;fill-rule:nonzero;stroke:none"
             id="path4292"
             inkscape:connector-curvature="0" /><path
             d="m 1388.19,2012.88 c -2.42,0 -5.39,-0.12 -7.26,-0.23 l 0,-22 5.5,0 c 9.02,0 12.98,3.3 12.98,11.44 0,8.14 -3.96,10.79 -11.22,10.79 z m 31.79,-61.95 c -2.85,-0.44 -5.83,-0.66 -9.24,-0.66 -3.07,0 -6.16,0.11 -8.25,0.55 l -15.07,26.73 -6.49,0 0,-26.73 c -2.75,-0.44 -5.06,-0.55 -8.03,-0.55 -2.65,0 -4.95,0.11 -7.7,0.55 l 0,74.37 c 5.05,0.33 15.62,0.56 22,0.56 18.7,0 28.05,-6.61 28.05,-23.77 0,-9.13 -5.49,-18.26 -13.2,-21.56 l 17.93,-29.49"
             style="fill:#293d9b;fill-opacity:1;fill-rule:nonzero;stroke:none"
             id="path4294"
             inkscape:connector-curvature="0" /><path
             d="m 1571.74,2081.49 -6.49,21.01 c -0.77,2.42 -1.54,5.5 -2.2,8.91 l -0.22,0 c -0.55,-3.41 -1.43,-6.49 -2.2,-8.91 l -6.16,-21.01 17.27,0 z m 26.29,-28.17 c -1.43,-0.33 -4.84,-0.55 -8.47,-0.55 -2.86,0 -6.16,0.33 -7.59,0.55 l -5.5,15.07 -26.41,0 -5.17,-15.07 c -2.41,-0.33 -5.28,-0.55 -8.14,-0.55 -2.86,0 -6.16,0.22 -7.81,0.55 l 25.97,74.37 c 1.54,0.33 5.17,0.56 7.59,0.56 2.97,0 6.49,-0.23 7.7,-0.56 l 27.83,-74.37"
             style="fill:#293d9b;fill-opacity:1;fill-rule:nonzero;stroke:none"
             id="path4296"
             inkscape:connector-curvature="0" /><path
             d="m 1627.5,2115.38 c -2.42,0 -5.39,-0.12 -7.26,-0.23 l 0,-22 5.5,0 c 9.03,0 12.99,3.3 12.99,11.44 0,8.14 -3.96,10.79 -11.23,10.79 z m 31.8,-61.95 c -2.86,-0.44 -5.83,-0.66 -9.24,-0.66 -3.08,0 -6.16,0.11 -8.25,0.55 l -15.08,26.73 -6.49,0 0,-26.73 c -2.74,-0.44 -5.06,-0.55 -8.03,-0.55 -2.64,0 -4.95,0.11 -7.7,0.55 l 0,74.37 c 5.06,0.33 15.62,0.56 22,0.56 18.7,0 28.06,-6.61 28.06,-23.77 0,-9.13 -5.5,-18.26 -13.2,-21.56 l 17.93,-29.49"
             style="fill:#293d9b;fill-opacity:1;fill-rule:nonzero;stroke:none"
             id="path4298"
             inkscape:connector-curvature="0" /><path
             d="m 1564.53,2011.77 -19.7,0 0,-60.95 c -2.09,-0.33 -5.05,-0.55 -7.8,-0.55 -2.76,0 -5.73,0.22 -7.93,0.55 l 0,60.95 -19.69,0 c -0.44,1.43 -0.77,4.84 -0.77,6.71 0,1.88 0.44,5.28 0.88,6.71 l 55.01,0 c 0.44,-1.43 0.77,-4.83 0.77,-6.71 0,-1.87 -0.33,-5.28 -0.77,-6.71"
             style="fill:#293d9b;fill-opacity:1;fill-rule:nonzero;stroke:none"
             id="path4300"
             inkscape:connector-curvature="0" /><path
             d="m 1620.11,1950.82 -46.54,0 0,74.37 45.55,0 c 0.44,-1.21 0.77,-3.52 0.77,-6.6 0,-2.41 -0.22,-4.51 -0.77,-6.82 l -29.81,0 0,-16.06 25.19,0 c 0.44,-1.21 0.77,-3.41 0.77,-6.5 0,-2.41 -0.22,-4.39 -0.77,-6.7 l -25.19,0 0,-18.26 30.8,0 c 0.44,-1.21 0.77,-3.52 0.77,-6.61 0,-2.42 -0.22,-4.51 -0.77,-6.82"
             style="fill:#293d9b;fill-opacity:1;fill-rule:nonzero;stroke:none"
             id="path4302"
             inkscape:connector-curvature="0" /><path
             d="m 1653.08,1949.72 c -8.04,0 -16.84,1.54 -23.11,4.41 -0.33,1.53 -0.55,3.51 -0.55,5.27 0,2.64 0.33,5.17 1.1,8.15 6.49,-2.64 15.07,-4.3 21.78,-4.3 7.82,0 12,3.64 12,8.59 0,5.5 -3.52,7.8 -14.2,11.11 -11.88,3.63 -20.57,9.35 -20.57,22.11 0,13.64 11.77,21.23 27.29,21.23 7.14,0 13.53,-1.1 17.82,-2.53 0.33,-1.21 0.55,-3.19 0.55,-6.05 0,-2.08 -0.22,-5.28 -0.66,-7.04 -5.5,1.43 -11.78,2.21 -16.83,2.21 -8.26,0 -12.77,-2.76 -12.77,-7.16 0,-5.17 4.07,-7.26 13.98,-10.34 11.88,-3.74 20.68,-9.35 20.68,-22.56 0,-14.4 -11.33,-23.1 -26.51,-23.1"
             style="fill:#293d9b;fill-opacity:1;fill-rule:nonzero;stroke:none"
             id="path4304"
             inkscape:connector-curvature="0" /><path
             d="m 497.992,2085.89 c 1.653,-4.62 3.301,-9.79 4.074,-14.19 l 0.219,0 c 0.766,4.4 2.309,9.57 3.961,14.19 l 8.141,23.54 c 2.09,6.05 3.301,11.88 3.406,18.26 2.203,0.33 5.281,0.56 7.812,0.56 2.309,0 5.61,-0.23 7.594,-0.56 0,-7.37 -1.324,-14.4 -4.293,-22.22 l -19.914,-52.15 c -1.316,-0.33 -4.398,-0.55 -7.039,-0.55 -2.969,0 -5.39,0.22 -7.375,0.55 L 475,2105.25 c -2.973,7.81 -4.293,15.07 -4.293,22.44 1.984,0.33 4.621,0.56 7.922,0.56 2.531,0 5.723,-0.23 7.703,-0.56 0,-6.82 1.207,-12.21 3.297,-18.26 l 8.363,-23.54"
             style="fill:#293d9b;fill-opacity:1;fill-rule:nonzero;stroke:none"
             id="path4306"
             inkscape:connector-curvature="0" /><path
             d="m 558.816,2053.32 c -2.086,-0.33 -4.617,-0.55 -7.918,-0.55 -2.972,0 -5.722,0.22 -7.812,0.55 l 0,74.37 c 2.09,0.33 5.172,0.56 7.922,0.56 3.078,0 5.828,-0.23 7.808,-0.56 l 0,-74.37"
             style="fill:#293d9b;fill-opacity:1;fill-rule:nonzero;stroke:none"
             id="path4308"
             inkscape:connector-curvature="0" /><path
             d="m 623.832,2114.27 -19.691,0 0,-60.95 c -2.09,-0.33 -5.059,-0.55 -7.809,-0.55 -2.754,0 -5.723,0.22 -7.926,0.55 l 0,60.95 -19.691,0 c -0.438,1.43 -0.77,4.84 -0.77,6.71 0,1.88 0.446,5.28 0.883,6.71 l 55.004,0 c 0.441,-1.43 0.773,-4.83 0.773,-6.71 0,-1.87 -0.332,-5.28 -0.773,-6.71"
             style="fill:#293d9b;fill-opacity:1;fill-rule:nonzero;stroke:none"
             id="path4310"
             inkscape:connector-curvature="0" /><path
             d="m 508.059,1978.99 -6.493,21.01 c -0.769,2.42 -1.543,5.5 -2.203,8.91 l -0.218,0 c -0.551,-3.41 -1.43,-6.49 -2.204,-8.91 l -6.156,-21.01 17.274,0 z m 26.293,-28.17 c -1.43,-0.33 -4.84,-0.55 -8.473,-0.55 -2.859,0 -6.16,0.33 -7.594,0.55 l -5.496,15.07 -26.406,0 -5.172,-15.07 c -2.418,-0.33 -5.277,-0.55 -8.141,-0.55 -2.859,0 -6.16,0.22 -7.812,0.55 l 25.969,74.37 c 1.539,0.33 5.168,0.56 7.586,0.56 2.972,0 6.496,-0.23 7.707,-0.56 l 27.832,-74.37"
             style="fill:#293d9b;fill-opacity:1;fill-rule:nonzero;stroke:none"
             id="path4312"
             inkscape:connector-curvature="0" /><path
             d="m 618.281,1950.82 c -1.316,-0.33 -4.293,-0.55 -7.367,-0.55 -3.301,0 -6.383,0.33 -7.707,0.55 l -1.316,44.67 -16.286,-37.63 c -1.207,-0.43 -3.847,-0.65 -5.5,-0.65 -1.98,0 -4.398,0.22 -5.609,0.54 l -16.281,37.74 -1.434,-44.67 c -1.429,-0.33 -4.84,-0.55 -7.804,-0.55 -1.766,0 -4.735,0.22 -6.715,0.55 l 3.191,74.37 c 2.09,0.22 4.18,0.56 6.379,0.56 2.641,0 5.172,-0.23 6.492,-0.56 l 21.781,-50.49 21.899,50.49 c 2.195,0.33 4.398,0.56 6.375,0.56 2.535,0 4.844,-0.23 6.492,-0.56 l 3.41,-74.37"
             style="fill:#293d9b;fill-opacity:1;fill-rule:nonzero;stroke:none"
             id="path4314"
             inkscape:connector-curvature="0" /><path
             d="m 778.809,2053.32 -46.539,0 0,74.37 45.546,0 c 0.442,-1.21 0.77,-3.52 0.77,-6.6 0,-2.41 -0.223,-4.51 -0.77,-6.82 l -29.812,0 0,-16.06 25.187,0 c 0.446,-1.21 0.774,-3.41 0.774,-6.5 0,-2.41 -0.219,-4.39 -0.774,-6.7 l -25.187,0 0,-18.26 30.805,0 c 0.437,-1.21 0.765,-3.52 0.765,-6.61 0,-2.42 -0.219,-4.51 -0.765,-6.82"
             style="fill:#293d9b;fill-opacity:1;fill-rule:nonzero;stroke:none"
             id="path4316"
             inkscape:connector-curvature="0" /><path
             d="m 796.168,2073.46 14.082,19.14 -12.871,17.93 c -4.18,5.72 -6.82,11 -7.699,17.16 1.758,0.33 5.386,0.56 7.699,0.56 2.75,0 5.941,-0.23 7.812,-0.56 0.547,-4.83 3.301,-8.8 6.157,-12.98 l 7.707,-11.22 7.918,11.11 c 2.64,3.74 5.172,8.47 5.609,13.09 1.871,0.22 5.172,0.56 7.813,0.56 2.418,0 5.718,-0.23 7.48,-0.56 -0.879,-7.04 -3.738,-12.43 -8.25,-18.7 l -11.66,-16.06 14.082,-19.8 c 4.949,-6.83 7.262,-13.54 7.699,-19.81 -1.871,-0.33 -5.062,-0.55 -7.812,-0.55 -2.422,0 -5.61,0.22 -7.7,0.55 -0.332,4.84 -1.984,9.47 -4.73,13.64 l -10.449,15.74 -10.239,-15.41 c -2.632,-4.06 -4.175,-9.13 -4.175,-13.97 -1.758,-0.33 -5.5,-0.55 -7.922,-0.55 -2.641,0 -5.828,0.33 -7.699,0.55 0.218,6.71 1.429,12.33 7.148,20.14"
             style="fill:#293d9b;fill-opacity:1;fill-rule:nonzero;stroke:none"
             id="path4318"
             inkscape:connector-curvature="0" /><path
             d="m 905.422,2112.18 c -5.285,1.65 -11.887,2.86 -17.164,2.86 -12.543,0 -20.684,-8.91 -20.684,-24.86 0,-14.63 6.379,-24.21 20.571,-24.21 5.285,0 11.226,1.1 16.503,2.75 0.774,-1.97 1.321,-5.06 1.321,-7.36 0,-1.88 -0.11,-4.18 -0.328,-5.18 -5.504,-2.52 -12.543,-3.96 -19.036,-3.96 -23.652,0 -35.316,14.31 -35.316,37.63 0,22.66 12.543,38.94 35.977,38.94 5.722,0 13.203,-1.42 18.48,-3.74 0.332,-1.1 0.442,-3.52 0.442,-4.95 0,-3.41 -0.442,-6.6 -0.766,-7.92"
             style="fill:#293d9b;fill-opacity:1;fill-rule:nonzero;stroke:none"
             id="path4320"
             inkscape:connector-curvature="0" /><path
             d="m 757.191,2012.76 c -9.461,0 -14.851,-7.26 -14.851,-24.75 0,-17.49 5.39,-24.76 14.851,-24.76 9.457,0 14.852,7.27 14.852,24.76 0,17.49 -5.395,24.75 -14.852,24.75 z m 0,-63.04 c -20.355,0 -31.136,14.08 -31.136,38.29 0,24.2 10.781,38.28 31.136,38.28 20.352,0 31.133,-14.08 31.133,-38.28 0,-24.21 -10.781,-38.29 -31.133,-38.29"
             style="fill:#293d9b;fill-opacity:1;fill-rule:nonzero;stroke:none"
             id="path4322"
             inkscape:connector-curvature="0" /><path
             d="m 842.715,1950.82 -45.547,0 0,74.37 c 2.09,0.33 4.949,0.56 7.699,0.56 3.082,0 6.051,-0.23 8.031,-0.56 l 0,-60.94 29.817,0 c 0.437,-1.21 0.769,-3.52 0.769,-6.61 0,-2.42 -0.222,-4.51 -0.769,-6.82"
             style="fill:#293d9b;fill-opacity:1;fill-rule:nonzero;stroke:none"
             id="path4324"
             inkscape:connector-curvature="0" /><path
             d="m 905.254,1979.1 c 0,-18.92 -7.262,-29.38 -28.383,-29.38 -21.344,0 -28.058,10.46 -28.058,29.38 l 0,46.09 c 2.203,0.33 5.066,0.56 7.703,0.56 3.078,0 5.832,-0.23 8.031,-0.56 l 0,-47.19 c 0,-10.12 2.859,-15.84 12.43,-15.84 9.57,0 12.871,5.72 12.871,15.84 l 0,47.19 c 1.984,0.33 5.285,0.56 7.812,0.56 2.422,0 5.723,-0.23 7.594,-0.56 l 0,-46.09"
             style="fill:#293d9b;fill-opacity:1;fill-rule:nonzero;stroke:none"
             id="path4326"
             inkscape:connector-curvature="0" /></g></g></g></g></svg>