<?xml version="1.0" encoding="UTF-8" standalone="no"?>
<!-- Created with Inkscape (http://www.inkscape.org/) -->

<svg
   xmlns:dc="http://purl.org/dc/elements/1.1/"
   xmlns:cc="http://creativecommons.org/ns#"
   xmlns:rdf="http://www.w3.org/1999/02/22-rdf-syntax-ns#"
   xmlns:svg="http://www.w3.org/2000/svg"
   xmlns="http://www.w3.org/2000/svg"
   xmlns:sodipodi="http://sodipodi.sourceforge.net/DTD/sodipodi-0.dtd"
   xmlns:inkscape="http://www.inkscape.org/namespaces/inkscape"
   width="210mm"
   height="297mm"
   viewBox="0 0 744.09448819 1052.3622047"
   id="svg2"
   version="1.1"
   inkscape:version="0.91 r13725"
   sodipodi:docname="CompositionOfIdeas.svg">
  <defs
     id="defs4" />
  <sodipodi:namedview
     id="base"
     pagecolor="#ffffff"
     bordercolor="#666666"
     borderopacity="1.0"
     inkscape:pageopacity="0.0"
     inkscape:pageshadow="2"
     inkscape:zoom="0.98994949"
     inkscape:cx="214.7199"
     inkscape:cy="616.16276"
     inkscape:document-units="px"
     inkscape:current-layer="layer1"
     showgrid="false"
     inkscape:window-width="1920"
     inkscape:window-height="1138"
     inkscape:window-x="1672"
     inkscape:window-y="39"
     inkscape:window-maximized="1" />
  <metadata
     id="metadata7">
    <rdf:RDF>
      <cc:Work
         rdf:about="">
        <dc:format>image/svg+xml</dc:format>
        <dc:type
           rdf:resource="http://purl.org/dc/dcmitype/StillImage" />
        <dc:title></dc:title>
      </cc:Work>
    </rdf:RDF>
  </metadata>
  <g
     inkscape:label="Layer 1"
     inkscape:groupmode="layer"
     id="layer1">
    <path
       style="opacity:1;fill:#ff5555;fill-opacity:1;stroke-width:1.0145781;stroke-miterlimit:4;stroke-dasharray:none;stroke-dashoffset:0"
       id="path4451"
       d="m 207.48837,298.94985 c 2.7787,0.64522 5.5615,1.24321 8.39397,1.59347 2.22225,0.25928 4.45915,0.18597 6.6804,0.42851 2.56681,0.39683 5.08568,1.01378 7.65618,1.39073 3.02433,0.19084 5.97394,0.7907 8.92217,1.45486 3.2271,0.81567 6.43603,1.71111 9.61349,2.70379 3.25822,1.08789 6.46662,2.29151 9.72817,3.37325 4.03182,1.34197 7.9612,2.95398 11.93696,4.44359 3.29704,0.94935 6.55918,2.02894 9.88736,2.86518 3.32741,0.60076 6.5314,1.69807 9.80456,2.51945 4.47345,1.29504 8.88367,2.65777 13.48036,3.44936 4.57693,0.93371 9.22532,1.3863 13.8465,2.0304 3.48141,0.48835 6.99095,0.70537 10.50206,0.81595 3.62116,0.0756 7.24355,0.0579 10.8653,0.0553 4.11973,-0.005 8.23946,-0.008 12.35919,-0.01 3.16744,-0.001 6.33487,-0.001 9.5023,-0.002 2.65441,-2e-5 5.30883,3e-5 7.96325,6e-5 2.31999,-0.0995 4.66979,0.1789 6.97817,-0.10147 2.53187,-0.25345 5.01227,-0.78261 7.51844,-1.1987 3.32601,-0.42954 6.66538,-0.62699 9.97162,-1.212 3.67582,-0.88767 7.39635,-1.60773 11.03432,-2.6439 3.13061,-1.15403 6.38696,-1.91138 9.54376,-2.98166 2.87228,-0.8832 5.69458,-1.96874 8.42481,-3.22483 2.70286,-1.14575 5.42972,-2.24414 8.07516,-3.51913 2.25792,-1.30443 4.65853,-2.34435 6.92769,-3.62471 2.56373,-1.4167 5.24867,-2.58708 7.8726,-3.88343 2.70578,-1.25363 5.45599,-2.39678 8.16658,-3.63898 2.96857,-1.03655 5.99732,-1.86917 8.92183,-3.03746 2.33351,-1.05362 4.73234,-1.89786 7.14582,-2.74077 2.13558,-0.6594 4.15797,-1.61247 6.18407,-2.54313 2.42882,-1.29145 4.96795,-2.3405 7.61611,-3.07609 2.84178,-0.31902 5.54297,-1.05839 8.275,-1.85522 2.12445,-0.45684 4.22508,-0.96112 6.34128,-1.44876 2.88239,-0.38696 5.77002,-0.68345 8.65313,-1.08443 1.76214,-0.15219 3.44766,-0.71121 5.17179,-1.07782 5.59202,-1.17573 7.25475,6.73259 1.66273,7.90832 l 0,0 c -1.90669,0.39477 -3.76991,1.02194 -5.72149,1.17371 -2.66011,0.36984 -5.3201,0.69097 -7.99008,0.96385 -1.95661,0.4251 -3.89032,0.94023 -5.85662,1.32368 -2.78195,0.80979 -5.54675,1.6176 -8.44398,1.90248 -2.2255,0.55952 -4.29693,1.57958 -6.33645,2.61464 -2.26489,1.03899 -4.53124,2.08843 -6.91395,2.83607 -2.30717,0.79209 -4.58783,1.60883 -6.81422,2.6179 -2.79887,1.09908 -5.65856,2.00849 -8.53586,2.87303 -2.63932,1.20338 -5.30905,2.33017 -7.94781,3.535 -2.50379,1.23564 -5.06332,2.35485 -7.51465,3.69542 -2.42756,1.34223 -4.95827,2.4889 -7.3739,3.85565 -2.69632,1.28409 -5.4541,2.43441 -8.2105,3.58239 -2.99295,1.35643 -6.06467,2.57093 -9.20741,3.53372 -3.2883,1.09512 -6.65885,1.92547 -9.92276,3.09862 -3.90927,1.09281 -7.88956,1.91078 -11.84272,2.82761 -3.33197,0.57104 -6.68692,0.8436 -10.04202,1.22393 -2.68007,0.43765 -5.3354,1.00192 -8.04257,1.26754 -2.58432,0.22287 -5.17549,0.12283 -7.768,0.14015 -2.65433,-3e-5 -5.30866,-8e-5 -7.96299,-6e-5 -3.16626,7e-5 -6.33252,2.5e-4 -9.49878,0.002 -4.11899,0.002 -8.23798,0.005 -12.35696,0.01 -3.70923,0.003 -7.41915,0.0209 -11.12774,-0.0593 -3.79845,-0.12156 -7.59492,-0.36032 -11.36114,-0.88924 -4.71117,-0.65666 -9.44985,-1.12128 -14.11606,-2.07263 -4.79399,-0.84143 -9.4186,-2.19306 -14.07782,-3.57674 -3.2705,-0.83352 -6.47897,-1.90679 -9.80366,-2.51922 -3.61731,-0.92013 -7.17524,-2.06326 -10.74963,-3.1354 -3.87393,-1.46094 -7.70886,-3.02166 -11.63777,-4.33776 -3.22263,-1.06959 -6.39506,-2.25369 -9.61139,-3.33548 -2.95768,-0.94149 -5.958,-1.75054 -8.9619,-2.52808 -2.75383,-0.62068 -5.50149,-1.17581 -8.329,-1.34429 -2.51069,-0.37454 -4.97803,-0.93681 -7.47804,-1.36639 -2.19297,-0.36195 -4.48154,-0.012 -6.67969,-0.42842 -2.87554,-0.364 -5.72168,-0.89967 -8.53243,-1.61203 -5.65685,-0.80812 -4.51399,-8.80812 1.14286,-8 z"
       inkscape:connector-curvature="0" />
    <text
       xml:space="preserve"
       style="font-style:normal;font-variant:normal;font-weight:600;font-stretch:normal;font-size:35px;line-height:177.99999714%;font-family:'Segoe UI';-inkscape-font-specification:'Segoe UI, Semi-Bold';text-align:end;letter-spacing:0px;word-spacing:0px;writing-mode:lr-tb;text-anchor:end;fill:#008000;fill-opacity:1;stroke:none;stroke-width:1px;stroke-linecap:butt;stroke-linejoin:miter;stroke-opacity:1"
       x="415.1727"
       y="76.554848"
       id="text4136"
       sodipodi:linespacing="178%"><tspan
         sodipodi:role="line"
         id="tspan4138"
         x="415.1727"
         y="76.554848">Refitting</tspan></text>
    <text
       xml:space="preserve"
       style="font-style:normal;font-variant:normal;font-weight:600;font-stretch:normal;font-size:35px;line-height:110.00000238%;font-family:'Segoe UI';-inkscape-font-specification:'Segoe UI, Semi-Bold';text-align:end;letter-spacing:0px;word-spacing:0px;writing-mode:lr-tb;text-anchor:end;fill:#008000;fill-opacity:1;stroke:none;stroke-width:1px;stroke-linecap:butt;stroke-linejoin:miter;stroke-opacity:1"
       x="193.89174"
       y="239.13"
       id="text4136-2"
       sodipodi:linespacing="110%"><tspan
         sodipodi:role="line"
         x="193.89174"
         y="239.13"
         id="tspan4162">Geometric</tspan><tspan
         sodipodi:role="line"
         x="193.89174"
         y="277.63"
         id="tspan4166">Smoothing</tspan></text>
    <text
       xml:space="preserve"
       style="font-style:normal;font-variant:normal;font-weight:600;font-stretch:normal;font-size:35px;line-height:177.99999714%;font-family:'Segoe UI';-inkscape-font-specification:'Segoe UI, Semi-Bold';text-align:end;letter-spacing:0px;word-spacing:0px;writing-mode:lr-tb;text-anchor:end;fill:#008000;fill-opacity:1;stroke:none;stroke-width:1px;stroke-linecap:butt;stroke-linejoin:miter;stroke-opacity:1"
       x="450.52802"
       y="277.57523"
       id="text4168"
       sodipodi:linespacing="178%"><tspan
         sodipodi:role="line"
         x="450.52802"
         y="277.57523"
         id="tspan4176">RefittedSim</tspan></text>
    <text
       xml:space="preserve"
       style="font-style:normal;font-variant:normal;font-weight:600;font-stretch:normal;font-size:35px;line-height:101.99999809%;font-family:'Segoe UI';-inkscape-font-specification:'Segoe UI, Semi-Bold';text-align:end;letter-spacing:0px;word-spacing:0px;writing-mode:lr-tb;text-anchor:end;fill:#008000;fill-opacity:1;stroke:none;stroke-width:1px;stroke-linecap:butt;stroke-linejoin:miter;stroke-opacity:1"
       x="667.37811"
       y="244.05376"
       id="text4168-1"
       sodipodi:linespacing="102%"><tspan
         sodipodi:role="line"
         x="667.37811"
         y="244.05376"
         id="tspan4176-2"
         style="line-height:101.99999809%">Oneshot</tspan><tspan
         sodipodi:role="line"
         x="667.37811"
         y="279.75375"
         id="tspan4198"
         style="line-height:101.99999809%">learning</tspan><tspan
         sodipodi:role="line"
         x="667.37811"
         y="315.45374"
         id="tspan4200"
         style="line-height:101.99999809%">For WSD</tspan></text>
    <path
       style="opacity:1;fill:#008000;fill-opacity:1;stroke-width:1.0145781;stroke-miterlimit:4;stroke-dasharray:none;stroke-dashoffset:0"
       id="path4216"
       d="m 100.16366,198.10552 c 2.00318,-1.83219 3.93908,-3.73539 5.92717,-5.58357 2.13047,-1.85561 4.62048,-3.19851 7.00868,-4.67874 2.50659,-1.45145 5.17439,-2.59152 7.75924,-3.89401 3.20064,-1.49386 6.39979,-2.96863 9.67597,-4.28871 2.09356,-0.50293 3.38307,-1.84503 4.94539,-3.20591 2.12175,-1.63384 4.21343,-3.30217 6.37979,-4.8765 2.5858,-1.86574 5.33657,-3.50629 8.1143,-5.07187 2.64996,-1.44731 5.08233,-3.22859 7.59906,-4.89042 2.33053,-1.3677 4.57145,-2.8773 6.92285,-4.20934 2.12985,-0.95506 4.16924,-2.08871 6.19949,-3.23644 2.34604,-1.33161 4.56772,-2.86885 6.95331,-4.12823 1.64558,-0.9688 3.34368,-1.84489 5.04494,-2.71365 2.42074,-1.37239 4.97103,-2.49416 7.42995,-3.79461 3.091,-1.75146 6.19779,-3.47122 9.47865,-4.84427 3.10905,-1.44081 6.3466,-2.47487 9.61372,-3.484 3.26767,-0.95853 6.34886,-2.40544 9.5303,-3.59544 2.24965,-1.10441 4.57152,-2.01033 6.93667,-2.82981 3.28555,-1.389 6.65454,-2.58359 10.03798,-3.71134 2.71738,-1.04291 5.55779,-1.73573 8.18931,-2.99385 2.34436,-1.4286 4.83399,-2.60018 7.31693,-3.7642 2.84252,-1.13437 5.53706,-2.58557 8.33145,-3.8229 1.95078,-0.85419 3.87077,-1.74521 5.73422,-2.7719 1.39173,-1.13516 3.05022,-1.87473 4.62698,-2.7092 2.47313,-1.25847 4.98952,-2.41067 7.39968,-3.79197 2.6681,-1.58129 5.40477,-2.99436 8.21897,-4.29272 2.02076,-0.73122 3.95581,-1.627826 5.89257,-2.551545 1.89178,-0.863085 3.85311,-1.77228 5.56701,-2.964205 -2.82205,1.826214 -1.09642,4.218483 0.23262,6.11483 0.12835,0.18313 0.43342,0.15678 0.59335,0.31309 0.0105,0.0102 -0.18212,6.8e-4 -0.90654,-0.0287 -2.11461,-0.0443 -4.23008,-0.0209 -6.34498,-0.0125 -2.17212,0.009 -4.34425,0.0128 -6.51639,0.0148 -1.69315,0.001 -3.38631,0.001 -5.07947,0.001 -5.71428,1e-4 -5.71444,-8.081118 -1.5e-4,-8.081225 l 0,0 c 1.69078,-3.2e-5 3.38156,-2.4e-5 5.07233,-0.0012 2.16389,-0.002 4.32777,-0.0055 6.49164,-0.01471 2.25696,-0.0089 4.51474,-0.03624 6.77121,0.02209 1.02411,0.05517 3.10068,-0.007 3.87458,0.740251 2.92231,2.821873 3.39397,4.968047 0.24921,7.686054 -2.07517,1.32939 -4.28865,2.50704 -6.53431,3.50852 -1.96632,0.93137 -3.92708,1.85911 -5.97851,2.59179 -2.60323,1.19998 -5.13356,2.50351 -7.59861,3.97348 -2.49361,1.41724 -5.07652,2.63936 -7.63802,3.92269 -1.54265,0.80956 -3.11607,1.55194 -4.4942,2.63766 -2.07584,1.14313 -4.21278,2.14107 -6.38342,3.09246 -2.74319,1.19174 -5.36941,2.64506 -8.15665,3.74364 -2.48973,1.16212 -4.95954,2.36711 -7.32548,3.7682 -2.9346,1.34743 -6.02306,2.25048 -9.05822,3.33943 -3.35397,1.10931 -6.67964,2.31616 -9.93942,3.67791 -2.30816,0.79972 -4.55483,1.71653 -6.76293,2.76737 -3.32879,1.23211 -6.54558,2.75919 -9.96671,3.74388 -3.02785,0.93363 -6.0295,1.87165 -8.90381,3.22804 -3.06238,1.25114 -5.91377,2.92882 -8.80265,4.52687 -2.49479,1.31181 -5.07158,2.462 -7.52823,3.84558 -1.68424,0.8571 -3.36281,1.72138 -4.9884,2.68454 -2.31894,1.17574 -4.41733,2.75305 -6.70382,3.99293 -2.03401,1.14965 -4.07381,2.3042 -6.2147,3.24501 -2.19341,1.22142 -4.25297,2.66193 -6.4315,3.90948 -2.67391,1.76545 -5.26928,3.64706 -8.08423,5.1868 -2.50826,1.41347 -5.00367,2.87665 -7.33141,4.56918 -1.97511,1.43512 -3.87541,2.96258 -5.82388,4.43393 -2.18764,1.90375 -4.35697,3.82355 -7.23215,4.60684 -3.06732,1.2354 -6.06152,2.61641 -9.06066,4.01042 -2.37508,1.19558 -4.8178,2.2564 -7.14159,3.54823 -1.95006,1.20515 -3.98022,2.29625 -5.77182,3.73753 -2.1,1.93312 -4.11757,3.95459 -6.24319,5.86118 -4.38983,3.65819 -9.563305,-2.54997 -5.17347,-6.20817 z"
       inkscape:connector-curvature="0" />
    <path
       style="opacity:1;fill:#008000;fill-opacity:1;stroke-width:1.0145781;stroke-miterlimit:4;stroke-dasharray:none;stroke-dashoffset:0"
       id="path4218"
       d="m 300.69309,95.906304 c 2.86029,3.765955 4.20679,5.879136 3.02277,10.759876 -0.9608,2.75424 -3.07786,4.39543 -5.45111,5.87393 -4.85661,3.01105 -9.11487,-3.85724 -4.25825,-6.86828 l 0,0 c 0.64642,-0.39824 1.3309,-0.79895 1.93003,-1.19382 0.6309,-1.32974 -0.30128,0.35864 0.40815,-0.0448 0.48656,-0.27671 -1.66108,-3.10759 -1.85976,-3.35342 -3.65819,-4.389831 2.54997,-9.563302 6.20817,-5.173466 z"
       inkscape:connector-curvature="0" />
    <path
       style="opacity:1;fill:#008000;fill-opacity:1;stroke-width:1.0145781;stroke-miterlimit:4;stroke-dasharray:none;stroke-dashoffset:0"
       id="path4220"
       d="m 352.54324,100.75501 c 0,4.50263 0,9.00527 0,13.50791 0,5.47522 0,10.95044 0,16.42567 0,4.003 0,8.00601 0,12.00901 0,2.46984 0,4.93967 0,7.40951 0,2.37481 0,4.74962 0,7.12443 0.0626,3.71958 0.006,7.42315 -0.30164,11.13054 -0.34493,3.40716 -0.54357,6.82494 -0.64497,10.2472 -0.0646,2.58663 -0.0697,5.17419 -0.0707,7.76147 10e-4,2.15937 0.004,4.31873 0.006,6.4781 0.001,2.4775 0.001,4.95499 0.001,7.43248 6e-5,2.37954 3e-5,4.75908 10e-6,7.13862 -2e-5,2.11255 -2e-5,4.22511 -2e-5,6.33766 0,2.1164 0,4.2328 0,6.3492 0,2.51364 0,5.02727 0,7.5409 0,2.1068 0,4.21361 0,6.32041 0,2.26208 0,4.52416 0,6.78624 -0.24147,1.9469 0.56703,4.43448 -0.4192,6.25411 -0.49586,0.91487 -1.30989,1.61729 -1.96483,2.42593 -1.15133,0.22482 -2.28225,0.73017 -3.454,0.67445 -2.21392,-0.10527 -5.73285,-3.14862 -7.53027,-4.46914 -2.36177,-1.71123 -4.67589,-3.44967 -6.89302,-5.34442 -0.29556,-0.25384 -0.58075,-0.52027 -0.88668,-0.76152 -0.017,-0.0134 -1.12187,-0.71548 -1.01578,-0.70747 0.26872,0.0203 0.54798,0.65132 0.68958,0.42203 4.47434,-7.24543 0.9781,-8.42519 4.52924,-6.8238 2.37843,0.78349 4.6047,1.93025 6.91961,2.86911 2.20046,0.72514 4.30705,1.71218 6.42729,2.64289 2.29871,0.82651 4.25431,2.19032 6.0211,3.84668 0.0231,0.0266 1.2526,1.45716 1.50761,1.70447 0.053,0.0514 0.24657,0.16124 0.18984,0.11402 -2.21376,-1.8425 -3.7024,-0.55984 -5.25586,0.88321 -0.0404,-2.21649 0.61754,-4.49746 1.18235,-6.63043 0.36938,-1.46731 1.12354,-2.77463 1.85493,-4.08163 2.79871,-4.98199 9.84432,-1.02401 7.0456,3.95799 l 0,0 c -0.40809,0.72288 -0.87646,1.38195 -1.08962,2.19628 -0.67072,2.52177 -0.96358,5.08314 -1.51677,7.62506 -0.63378,0.85307 -0.9584,2.06903 -1.90133,2.55921 -3.29697,1.71389 -5.7648,-0.0228 -7.57652,-2.46344 -1.08526,-1.04757 -2.26647,-1.84436 -3.72465,-2.31839 -2.05122,-0.91191 -4.09582,-1.85487 -6.22918,-2.55858 -2.39799,-0.99085 -4.71908,-2.14873 -7.18195,-2.98211 -3.15076,-1.42699 -2.29563,-0.70396 1.61,-8.11686 0.11963,-0.22705 3.58078,2.22275 3.65447,2.4825 2.06363,1.76701 4.22467,3.37899 6.42646,4.97417 0.29109,0.21417 4.05209,2.80993 4.0749,2.89635 0.23103,0.87523 -5.71169,-2.76544 -2.58268,0.83929 -0.352,0.59168 -0.76995,1.14881 -1.05599,1.77504 -0.0556,0.12176 0.0509,0.52965 0.0641,0.39644 0.14047,-1.41317 -0.10865,-2.86511 0,-4.28144 0,-2.26208 0,-4.52416 0,-6.78624 0,-2.1068 0,-4.21361 0,-6.32041 0,-2.51363 0,-5.02726 0,-7.5409 0,-2.1164 -10e-6,-4.23281 0,-6.34921 0,-2.11257 0,-4.22514 2e-5,-6.33771 2e-5,-2.3794 5e-5,-4.7588 -10e-6,-7.1382 -1.1e-4,-2.47594 -2.1e-4,-4.95189 -0.001,-7.42784 -10e-4,-2.16211 -0.004,-4.32423 -0.006,-6.48634 10e-4,-2.66657 0.007,-5.33343 0.0743,-7.99932 0.10716,-3.56611 0.31095,-7.1279 0.66939,-10.67844 0.29257,-3.48349 0.32933,-6.96265 0.27362,-10.45821 0,-2.37481 0,-4.74962 0,-7.12443 0,-2.46984 0,-4.93967 0,-7.40951 0,-4.003 0,-8.00601 0,-12.00901 0,-5.47523 0,-10.95045 0,-16.42567 0,-4.50264 0,-9.00528 0,-13.50791 0,-5.714288 8.08122,-5.714288 8.08122,0 z"
       inkscape:connector-curvature="0" />
    <path
       style="opacity:1;fill:#008000;fill-opacity:1;stroke-width:1.0145781;stroke-miterlimit:4;stroke-dasharray:none;stroke-dashoffset:0"
       id="path4222"
       d="m 426.12004,64.433015 c 2.89344,0.138475 5.75759,-0.288976 8.62717,-0.586893 3.23446,-0.326149 6.48551,-0.375211 9.73321,-0.409638 5.01379,0.143517 9.99708,-0.387836 14.97581,-0.894397 5.72586,-0.585731 11.47744,-0.781076 17.20558,-1.330559 3.85427,-0.436809 7.72577,-0.657918 11.60165,-0.764804 4.28162,-0.0772 8.56424,-0.06467 12.84637,-0.06349 5.18871,0.0034 10.37741,0.0062 15.56612,0.0078 5.2634,-0.02115 10.51803,-0.0825 15.76978,0.299911 3.81942,0.312419 7.645,0.436442 11.44117,0.974451 2.95764,0.299625 5.81803,0.830051 8.64106,1.767053 3.87186,1.806043 7.74409,3.614071 11.6039,5.447145 5.01486,2.557781 10.16009,4.818163 15.39064,6.893022 3.01314,1.382581 6.38107,2.444645 8.94102,4.646786 0.56263,0.48399 1.04168,1.057405 1.56251,1.586108 2.102,2.497485 3.27252,5.539461 4.11668,8.650712 0.81513,2.934001 1.76599,5.825845 2.67088,8.733851 1.36159,3.392717 2.30652,6.902987 2.84609,10.513147 0.34196,2.59679 0.38484,5.21762 0.39755,7.83259 -0.0324,2.02318 0.46038,4.01199 0.90153,5.97496 0.72905,3.33041 0.90101,6.73697 1.02248,10.13266 0.0855,2.90062 0.0826,5.80278 0.081,8.70435 0.0392,2.68029 0.0475,5.3371 -0.34161,7.99269 -0.63711,2.82598 -1.41141,5.62022 -1.97915,8.46159 -0.52427,2.53372 -0.52731,5.12721 -0.85896,7.68279 -0.38562,1.96517 -0.64895,3.94434 -0.77851,5.94187 -0.0992,1.92575 -0.0981,3.85476 -0.10142,5.7825 7.3e-4,2.55853 0.004,5.11705 0.006,7.67558 10e-4,1.72097 0.002,3.44194 0.002,5.16292 10e-4,5.71428 -8.08006,5.71592 -8.08122,0.002 l 0,0 c -3.5e-4,-1.71978 -7.9e-4,-3.43956 -0.002,-5.15934 -0.002,-2.56493 -0.005,-5.12986 -0.006,-7.69479 0.004,-2.10142 0.005,-4.20427 0.11912,-6.30324 0.14802,-2.1927 0.40958,-4.37203 0.83906,-6.52904 0.43134,-2.69784 0.27333,-5.4882 0.94084,-8.16171 0.55159,-2.70429 1.23065,-5.38131 1.90794,-8.05636 0.34703,-2.2565 0.2534,-4.52142 0.25268,-6.80166 0.002,-2.80455 0.005,-5.60967 -0.0759,-8.41335 -0.10174,-2.89594 -0.22268,-5.80379 -0.83091,-8.64722 -0.56884,-2.53138 -1.1315,-5.09947 -1.09809,-7.70875 -0.0102,-2.23551 -0.035,-4.47642 -0.31212,-6.69814 -0.45763,-3.20015 -1.37727,-6.27865 -2.56691,-9.28537 -0.93825,-3.017323 -1.92087,-6.019088 -2.76584,-9.063683 -0.47452,-1.857429 -1.11626,-3.71855 -2.27086,-5.269855 -1.52151,-2.224956 -5.26019,-2.968142 -7.52013,-4.17342 -5.39271,-2.143183 -10.70314,-4.467551 -15.8754,-7.104113 -3.57313,-1.697222 -7.17722,-3.329217 -10.72001,-5.089607 -2.34585,-0.809421 -4.73476,-1.153784 -7.19919,-1.424078 -3.61173,-0.519105 -7.25754,-0.597994 -10.89108,-0.91511 -5.05518,-0.373746 -10.11432,-0.287973 -15.181,-0.27826 -5.18865,-0.0015 -10.37731,-0.0043 -15.56597,-0.0078 -4.2077,-0.0012 -8.41587,-0.01341 -12.6231,0.06047 -3.6925,0.100185 -7.38051,0.312793 -11.05217,0.731011 -5.71264,0.546376 -11.4472,0.751955 -17.15809,1.32587 -5.22201,0.531304 -10.45053,1.074737 -15.70879,0.935455 -2.99753,0.03129 -5.99841,0.06974 -8.98414,0.366924 -3.14579,0.326271 -6.28975,0.768831 -9.46126,0.630055 -5.71428,0 -5.71428,-8.081221 0,-8.081221 z"
       inkscape:connector-curvature="0" />
    <path
       style="opacity:1;fill:#008000;fill-opacity:1;stroke-width:1.0145781;stroke-miterlimit:4;stroke-dasharray:none;stroke-dashoffset:0"
       id="path4224"
       d="m 582.79388,182.77266 c 3.13458,2.28415 6.15144,4.73685 9.08616,7.2716 1.30221,0.95545 2.41442,2.09836 3.49677,3.28649 0.22726,0.24946 0.43341,0.52001 0.68225,0.74794 0.024,0.0219 0.11136,-0.0209 0.0875,-0.0429 -0.18683,-0.17225 -0.41205,-0.29753 -0.61807,-0.4463 -2.70321,0.02 -2.02424,-0.0843 -1.06148,-1.63141 0.9258,-1.48769 0.54406,-0.85835 1.45811,-2.43445 1.52672,-2.62015 3.34592,-4.98365 5.58881,-7.02201 1.79905,-1.32002 0.86706,-0.7075 2.79631,-1.837 4.96771,-2.82399 8.96143,4.20142 3.99372,7.02541 l 0,0 c -0.9914,0.53095 -0.51317,0.24229 -1.43563,0.86441 -1.66484,1.39054 -2.81564,3.21001 -3.95741,5.03179 -1.29528,2.22198 -3.40786,6.33026 -5.93732,7.24248 -1.0999,0.39666 -2.30546,0.3915 -3.45819,0.58725 -0.69915,-0.2756 -1.43959,-0.46351 -2.09745,-0.82681 -1.93806,-1.07028 -2.86186,-3.38201 -4.83006,-4.43757 -2.66976,-2.32244 -5.43845,-4.54178 -8.27665,-6.65493 -4.75457,-3.16972 -0.27192,-9.8937 4.48265,-6.72398 z"
       inkscape:connector-curvature="0" />
    <text
       xml:space="preserve"
       style="font-style:normal;font-variant:normal;font-weight:600;font-stretch:normal;font-size:13.75px;line-height:87.99999356%;font-family:'Segoe UI';-inkscape-font-specification:'Segoe UI, Semi-Bold';text-align:end;letter-spacing:0px;word-spacing:0px;writing-mode:lr-tb;text-anchor:end;fill:#000000;fill-opacity:1;stroke:none;stroke-width:1px;stroke-linecap:butt;stroke-linejoin:miter;stroke-opacity:1"
       x="121.95581"
       y="197.46579"
       id="text4226"
       sodipodi:linespacing="87.999994%"
       transform="matrix(0.88915213,-0.45761172,0.45761172,0.88915213,0,0)"><tspan
         sodipodi:role="line"
         id="tspan4228"
         x="121.95581"
         y="197.46579"
         style="font-size:17.5px;line-height:87.99999356%;fill:#008080">theoretically</tspan><tspan
         sodipodi:role="line"
         x="121.95581"
         y="212.86578"
         style="font-size:17.5px;line-height:87.99999356%;fill:#008080"
         id="tspan4425">Improves</tspan></text>
    <text
       xml:space="preserve"
       style="font-style:normal;font-variant:normal;font-weight:600;font-stretch:normal;font-size:13.75px;line-height:177.99999714%;font-family:'Segoe UI';-inkscape-font-specification:'Segoe UI, Semi-Bold';text-align:end;letter-spacing:0px;word-spacing:0px;writing-mode:lr-tb;text-anchor:end;fill:#000000;fill-opacity:1;stroke:none;stroke-width:1px;stroke-linecap:butt;stroke-linejoin:miter;stroke-opacity:1"
       x="-54.304562"
       y="354.07614"
       id="text4226-0"
       sodipodi:linespacing="178%"
       transform="matrix(0.23767645,-0.97134438,0.97134438,0.23767645,0,0)"><tspan
         sodipodi:role="line"
         id="tspan4228-8"
         x="-54.304562"
         y="354.07614"
         style="font-size:17.5px;fill:#008080">Allows for</tspan></text>
    <text
       xml:space="preserve"
       style="font-style:normal;font-variant:normal;font-weight:600;font-stretch:normal;font-size:13.75px;line-height:177.99999714%;font-family:'Segoe UI';-inkscape-font-specification:'Segoe UI, Semi-Bold';text-align:end;letter-spacing:0px;word-spacing:0px;writing-mode:lr-tb;text-anchor:end;fill:#000000;fill-opacity:1;stroke:none;stroke-width:1px;stroke-linecap:butt;stroke-linejoin:miter;stroke-opacity:1"
       x="567.76587"
       y="-270.22748"
       id="text4226-0-4"
       sodipodi:linespacing="178%"
       transform="matrix(0.82271899,0.5684483,-0.5684483,0.82271899,0,0)"
       inkscape:transform-center-x="43.436559"
       inkscape:transform-center-y="29.294424"><tspan
         sodipodi:role="line"
         id="tspan4228-8-5"
         x="567.76587"
         y="-270.22748"
         style="font-size:17.5px;fill:#008080">Allows for</tspan></text>
    <text
       xml:space="preserve"
       style="font-style:normal;font-variant:normal;font-weight:600;font-stretch:normal;font-size:35px;line-height:177.99999714%;font-family:'Segoe UI';-inkscape-font-specification:'Segoe UI, Semi-Bold';text-align:end;letter-spacing:0px;word-spacing:0px;writing-mode:lr-tb;text-anchor:end;fill:#008000;fill-opacity:1;stroke:none;stroke-width:1px;stroke-linecap:butt;stroke-linejoin:miter;stroke-opacity:1"
       x="341.09882"
       y="448.10455"
       id="text4168-7"
       sodipodi:linespacing="178%"><tspan
         sodipodi:role="line"
         x="341.09882"
         y="448.10455"
         id="tspan4176-7"
         style="fill:#000080">AvgSimC</tspan></text>
    <text
       xml:space="preserve"
       style="font-style:normal;font-variant:normal;font-weight:600;font-stretch:normal;font-size:35px;line-height:117.99999475%;font-family:'Segoe UI';-inkscape-font-specification:'Segoe UI, Semi-Bold';text-align:end;letter-spacing:0px;word-spacing:0px;writing-mode:lr-tb;text-anchor:end;fill:#008000;fill-opacity:1;stroke:none;stroke-width:1px;stroke-linecap:butt;stroke-linejoin:miter;stroke-opacity:1"
       x="451.20547"
       y="575.38379"
       id="text4168-0"
       sodipodi:linespacing="117.99999%"><tspan
         sodipodi:role="line"
         x="451.20547"
         y="575.38379"
         style="line-height:117.99999475%;fill:#000080"
         id="tspan4294">Self-relabelled</tspan><tspan
         sodipodi:role="line"
         x="451.20547"
         y="616.68378"
         style="line-height:117.99999475%;fill:#000080"
         id="tspan4298">Method</tspan><tspan
         sodipodi:role="line"
         x="451.20547"
         y="657.98376"
         style="line-height:117.99999475%;fill:#000080"
         id="tspan4429">(Chen et al.)</tspan></text>
    <text
       xml:space="preserve"
       style="font-style:normal;font-variant:normal;font-weight:600;font-stretch:normal;font-size:35px;line-height:117.99999475%;font-family:'Segoe UI';-inkscape-font-specification:'Segoe UI, Semi-Bold';text-align:end;letter-spacing:0px;word-spacing:0px;writing-mode:lr-tb;text-anchor:end;fill:#008000;fill-opacity:1;stroke:none;stroke-width:1px;stroke-linecap:butt;stroke-linejoin:miter;stroke-opacity:1"
       x="710.80811"
       y="555.10052"
       id="text4168-0-8"
       sodipodi:linespacing="117.99999%"><tspan
         sodipodi:role="line"
         x="710.80811"
         y="555.10052"
         style="line-height:117.99999475%;fill:#000080"
         id="tspan4298-5">Mapping</tspan><tspan
         sodipodi:role="line"
         x="710.80811"
         y="596.40051"
         style="line-height:117.99999475%;fill:#000080"
         id="tspan4349">Induced</tspan><tspan
         sodipodi:role="line"
         x="710.80811"
         y="637.7005"
         style="line-height:117.99999475%;fill:#000080"
         id="tspan4353">Sense</tspan><tspan
         sodipodi:role="line"
         x="710.80811"
         y="679.00055"
         style="line-height:117.99999475%;fill:#000080"
         id="tspan4357">via corpus</tspan><tspan
         sodipodi:role="line"
         x="710.80811"
         y="720.30054"
         style="line-height:117.99999475%;fill:#000080"
         id="tspan4359">(Agrirre et al)</tspan></text>
    <path
       style="opacity:1;fill:#0000ff;fill-opacity:1;stroke-width:1.0145781;stroke-miterlimit:4;stroke-dasharray:none;stroke-dashoffset:0"
       id="path4361"
       d="m 324.58153,309.33489 c -5.36154,5.60972 -10.63387,11.29736 -15.67783,17.19844 -4.66912,5.43712 -9.25116,10.95275 -13.99052,16.32864 -1.7084,2.10297 -3.55799,4.13427 -5.01424,6.42741 -1.26302,1.82797 -2.32585,3.75907 -3.75106,5.47556 -1.60128,1.96473 -3.19972,3.93392 -4.85221,5.85484 -1.78941,1.94853 -3.70646,3.7746 -5.59389,5.62691 -1.17775,1.40712 -2.29768,2.89769 -3.20678,4.4978 -0.57339,1.74245 -1.08699,3.50509 -1.69042,5.24619 -0.98649,2.33436 -1.7449,4.75212 -2.83403,7.04161 -0.73911,1.80928 -1.80538,3.46076 -2.58932,5.2461 l -0.50423,27.31223 c -2.48202,5.1471 5.05076,36.36549 -2.22833,6.59141 l -6.06091,-7.07107 -1.59727,-9.96604 c 0.85466,-1.85108 -1.12385,2.46342 -0.33092,0.58164 1.02934,-1.94168 7.55395,-30.4041 8.5097,-32.38317 0.77518,-2.23495 1.3114,-4.55255 2.35141,-6.68118 1.30581,-2.19389 2.79596,-4.29914 4.52075,-6.18324 1.73205,-1.6998 3.48882,-3.37729 5.14634,-5.15066 1.64736,-1.88303 3.19704,-3.85453 4.79119,-5.78357 1.24814,-1.42135 2.00685,-3.17217 3.15214,-4.67152 1.71805,-2.59085 3.71687,-4.98742 5.72304,-7.3586 4.71766,-5.33933 9.26116,-10.83374 13.90861,-16.23437 5.04968,-5.89879 10.30369,-11.6084 15.68306,-17.20455 3.71881,-4.33861 9.85453,0.92058 6.13572,5.25919 z"
       inkscape:connector-curvature="0"
       sodipodi:nodetypes="cccccccccccccccccccccccccc" />
    <path
       style="opacity:1;fill:#0000ff;fill-opacity:1;stroke-width:1.0145781;stroke-miterlimit:4;stroke-dasharray:none;stroke-dashoffset:0"
       id="path4363"
       d="m 255.60439,406.12888 c 1.68674,3.19136 3.16221,6.48722 4.41988,9.87152 -0.35772,-0.64814 1.15937,2.38603 1.15993,1.9816 4.8e-4,-0.34943 -0.53804,-0.6498 -0.78217,-0.77165 1.67634,-0.62233 3.36253,-1.25868 5.05994,-1.84054 2.80078,-0.87294 5.71923,-1.18605 8.63426,-1.35654 5.70492,-0.32692 6.16726,7.74106 0.46233,8.06798 l 0,0 c -2.18399,0.12203 -4.37417,0.32494 -6.48442,0.93596 -2.39548,0.81476 -4.73135,1.9215 -7.25309,2.26349 -0.70311,-0.0261 -1.41688,0.0464 -2.10933,-0.0784 -3.32642,-0.59938 -5.15984,-3.49024 -6.26787,-6.40131 -1.19703,-3.26333 -2.67005,-6.40542 -4.26728,-9.48877 -2.25097,-5.25226 5.17685,-8.43561 7.42782,-3.18335 z"
       inkscape:connector-curvature="0" />
    <path
       style="opacity:1;fill:#0000ff;fill-opacity:1;stroke-width:1.0145781;stroke-miterlimit:4;stroke-dasharray:none;stroke-dashoffset:0"
       id="path4365"
       d="m 567.1752,328.3641 c -3.04888,4.22496 -5.99978,8.51654 -9.03647,12.75151 -3.45339,5.01472 -7.17293,9.82555 -11.08013,14.49411 -4.74809,6.04125 -9.53221,12.05777 -14.08428,18.24928 -8.1089,11.15925 -14.52712,23.41718 -21.23982,35.43532 -5.88377,10.88141 -12.00714,21.63944 -18.58806,32.11552 -4.89718,7.96132 -11.38949,14.66173 -18.01945,21.16931 -9.10128,8.81935 -18.79965,16.97996 -28.49507,25.13008 -7.34141,6.47353 -14.95137,12.63503 -22.3505,19.03995 -2.83264,2.45701 -5.79114,4.77322 -8.58995,7.26787 -1.34837,1.32345 -3.32808,2.20416 -4.13753,3.99213 -0.89851,1.45427 -1.54372,3.03429 -2.37377,4.53008 -0.94058,1.85149 -2.14759,3.55413 -3.43994,5.17435 -1.38152,1.82842 -2.65686,3.7299 -3.99726,5.58762 -0.18471,0.28446 -0.36942,0.56893 -0.55414,0.8534 -3.13201,4.77949 -9.89123,0.35014 -6.75921,-4.42935 l 0,0 c 0.25489,-0.38638 0.50979,-0.77277 0.76469,-1.15915 1.42383,-1.9642 2.76828,-3.98378 4.24383,-5.91115 1.02676,-1.26799 1.97524,-2.60996 2.69719,-4.07508 0.86124,-1.50029 1.46036,-3.12636 2.40283,-4.58133 1.49143,-2.45716 3.49367,-4.32565 5.79513,-6.03098 2.83675,-2.50026 5.78983,-4.86886 8.66116,-7.33021 7.43224,-6.42511 15.06398,-12.61939 22.43753,-19.11417 9.53709,-8.01663 19.08006,-16.04011 28.03529,-24.71239 6.18244,-6.06364 12.27016,-12.27822 16.83697,-19.70102 6.51099,-10.35555 12.55451,-20.99918 18.37498,-31.75618 6.8767,-12.31173 13.46411,-24.86081 21.78534,-36.28305 4.65541,-6.32587 9.53815,-12.48049 14.39833,-18.64923 3.7803,-4.51142 7.37286,-9.16439 10.70851,-14.0149 3.15063,-4.39376 6.19524,-8.85886 9.39563,-13.21581 3.6582,-4.38984 9.86636,0.78363 6.20817,5.17347 z"
       inkscape:connector-curvature="0" />
    <path
       style="opacity:1;fill:#0000ff;fill-opacity:1;stroke-width:1.0145781;stroke-miterlimit:4;stroke-dasharray:none;stroke-dashoffset:0"
       id="path4367"
       d="m 391.93919,526.02923 c 0.0976,2.77233 0.20074,5.62682 0.77912,8.34961 0.40219,1.00655 1.17074,1.87019 2.16956,2.32229 2.15456,0.49096 4.37997,0.46573 6.577,0.50545 2.89132,-0.0848 5.80368,0.16665 8.693,0.008 1.02286,-0.0561 3.26863,-0.40583 4.24453,-0.54716 2.98067,-0.64627 5.97645,-1.29785 8.84421,-2.34918 5.38098,-1.92305 8.10058,5.68681 2.7196,7.60986 l 0,0 c -3.39274,1.19089 -6.88865,2.05144 -10.41756,2.73883 -4.73151,0.67165 -9.45778,0.76628 -14.23361,0.61924 -3.57166,-0.0678 -7.23486,-0.0428 -10.52906,-1.62248 -2.92261,-1.83494 -5.13564,-4.32743 -6.00141,-7.74823 -0.59605,-3.25114 -0.87778,-6.58412 -0.9266,-9.88647 0,-5.71429 8.08122,-5.71429 8.08122,0 z"
       inkscape:connector-curvature="0" />
    <path
       style="opacity:1;fill:#0000ff;fill-opacity:1;stroke-width:1.0145781;stroke-miterlimit:4;stroke-dasharray:none;stroke-dashoffset:0"
       id="path4369"
       d="m 603.30112,325.00067 c 3.99951,9.6617 8.33789,19.17962 12.45651,28.79132 4.44668,10.25512 7.8943,20.9057 10.56988,31.74929 1.35395,5.68943 2.1364,11.47109 2.84408,17.26627 1.22275,9.01933 2.75107,17.99278 4.33866,26.95389 1.76659,11.04674 3.99258,22.00509 6.16759,32.97537 0.83683,4.13348 1.51997,8.29687 1.7608,12.50959 0.0917,2.44812 0.0474,4.89888 0.0345,7.34802 -0.0176,3.52052 -0.0213,7.04109 -0.0246,10.56164 0.14361,1.57935 0.0584,0.78632 0.25656,2.37898 0.68937,5.67255 -7.33283,6.64746 -8.0222,0.97491 l 0,0 c -0.25526,-2.1404 -0.14566,-1.02033 -0.31558,-3.36148 0.003,-3.53223 0.007,-7.06449 0.0247,-10.59669 0.0121,-2.28473 0.0526,-4.57079 -0.022,-6.85479 -0.20809,-3.83695 -0.86898,-7.62377 -1.61909,-11.38864 -2.18545,-11.02416 -4.4215,-22.03653 -6.19797,-33.13725 -1.6127,-9.10399 -3.1646,-18.22075 -4.40302,-27.38439 -0.66799,-5.47474 -1.39425,-10.93782 -2.66941,-16.31397 -2.55781,-10.41907 -5.88475,-20.64628 -10.15097,-30.49806 -4.17745,-9.75053 -8.59044,-19.40104 -12.62308,-29.21231 -1.95282,-5.37025 5.64186,-8.13195 7.59467,-2.7617 z"
       inkscape:connector-curvature="0" />
    <path
       style="opacity:1;fill:#0000ff;fill-opacity:1;stroke-width:1.0145781;stroke-miterlimit:4;stroke-dasharray:none;stroke-dashoffset:0"
       id="path4371"
       d="m 621.40774,486.01326 c 4.25945,2.6412 8.0916,5.85636 11.77862,9.22996 3.13893,2.99575 5.87634,6.36325 8.85594,9.51106 0.2808,0.29308 0.54525,0.60276 0.8424,0.87926 0.0678,0.0631 -0.0629,-0.20106 -0.14932,-0.23436 -0.69522,-0.26788 -1.40151,-0.75126 -2.13929,-0.64748 -3.47935,-3.01628 -1.92304,1.90106 -3.17594,2.08323 -0.22778,0.0331 0.0197,-0.45992 0.0295,-0.68988 0.18856,-3.93051 1.35605,-7.63391 2.72701,-11.28918 1.21002,-3.18396 3.03482,-6.07942 4.27096,-9.24567 2.10903,-5.31085 9.6197,-2.32823 7.51067,2.98262 l 0,0 c -1.25233,3.11522 -2.94598,6.01067 -4.22153,9.11804 -1.118,2.9359 -2.09804,5.86979 -2.22856,9.03913 -0.10687,1.19261 -0.15498,3.0731 -0.96834,3.9905 -2.91914,3.29254 -5.90268,2.31891 -8.36781,-0.43223 -2.84546,-3.00877 -5.47279,-6.213 -8.44174,-9.10367 -3.44686,-3.15549 -7.02802,-6.1567 -11.01972,-8.61537 -4.6499,-3.32136 0.0472,-9.89732 4.69712,-6.57596 z"
       inkscape:connector-curvature="0" />
    <text
       xml:space="preserve"
       style="font-style:normal;font-variant:normal;font-weight:600;font-stretch:normal;font-size:20px;line-height:177.99999714%;font-family:'Segoe UI';-inkscape-font-specification:'Segoe UI, Semi-Bold';text-align:end;letter-spacing:0px;word-spacing:0px;writing-mode:lr-tb;text-anchor:end;fill:#0000ff;fill-opacity:1;stroke:none;stroke-width:1px;stroke-linecap:butt;stroke-linejoin:miter;stroke-opacity:1"
       x="-112.80947"
       y="419.52887"
       id="text4373"
       sodipodi:linespacing="178%"
       transform="matrix(0.56782239,-0.8231511,0.8231511,0.56782239,0,0)"><tspan
         sodipodi:role="line"
         x="-112.80947"
         y="419.52887"
         id="tspan4377">Faster than</tspan></text>
    <text
       xml:space="preserve"
       style="font-style:normal;font-variant:normal;font-weight:600;font-stretch:normal;font-size:20px;line-height:169.00000572%;font-family:'Segoe UI';-inkscape-font-specification:'Segoe UI, Semi-Bold';text-align:end;letter-spacing:0px;word-spacing:0px;writing-mode:lr-tb;text-anchor:end;fill:#0000ff;fill-opacity:1;stroke:none;stroke-width:1px;stroke-linecap:butt;stroke-linejoin:miter;stroke-opacity:1"
       x="-13.552363"
       y="600.76508"
       id="text4373-0"
       sodipodi:linespacing="169.00001%"
       transform="matrix(0.56782239,-0.8231511,0.8231511,0.56782239,0,0)"><tspan
         sodipodi:role="line"
         x="-13.552363"
         y="600.76508"
         id="tspan4403" /><tspan
         sodipodi:role="line"
         x="-13.552363"
         y="634.56506"
         id="tspan4431">Not as good as</tspan><tspan
         sodipodi:role="line"
         x="-13.552363"
         y="668.36505"
         id="tspan4433">(but not directly</tspan><tspan
         sodipodi:role="line"
         x="-13.552363"
         y="702.1651"
         id="tspan4435">Comparable)</tspan></text>
    <text
       xml:space="preserve"
       style="font-style:normal;font-variant:normal;font-weight:600;font-stretch:normal;font-size:20px;line-height:177.99999714%;font-family:'Segoe UI';-inkscape-font-specification:'Segoe UI, Semi-Bold';text-align:end;letter-spacing:0px;word-spacing:0px;writing-mode:lr-tb;text-anchor:end;fill:#0000ff;fill-opacity:1;stroke:none;stroke-width:1px;stroke-linecap:butt;stroke-linejoin:miter;stroke-opacity:1"
       x="677.82709"
       y="-431.18158"
       id="text4373-0-5"
       sodipodi:linespacing="178%"
       transform="matrix(0.40628523,0.91374631,-0.91374631,0.40628523,0,0)"><tspan
         sodipodi:role="line"
         x="677.82709"
         y="-431.18158"
         id="tspan4403-5">Better than</tspan></text>
    <path
       style="opacity:1;fill:#ff5555;fill-opacity:1;stroke-width:1.0145781;stroke-miterlimit:4;stroke-dasharray:none;stroke-dashoffset:0"
       id="path4445"
       d="m 149.45353,281.46708 c 1.29066,2.6419 2.89307,5.11589 4.61816,7.49246 1.45835,2.02988 3.25941,3.74608 5.03958,5.48002 1.99953,1.81569 3.37485,4.07874 4.57282,6.46483 1.22147,2.55434 2.23941,5.20583 3.31199,7.82678 1.02075,2.21768 1.95554,4.4829 2.72666,6.79994 0.70415,1.94391 0.95669,4.05496 1.64877,5.99295 0.75512,1.97764 1.06715,4.06064 1.247,6.15727 0.14351,2.23991 0.12831,4.48595 0.12942,6.72929 -0.18933,1.81625 0.24397,3.53713 0.54317,5.30894 0.27721,2.01048 0.35247,4.02481 0.67769,6.02775 0.46817,2.56804 0.63257,5.17071 0.72518,7.77469 0.10548,2.96995 0.55264,5.91736 0.78943,8.88121 0.16342,2.73274 0.68743,5.42619 0.99028,8.14602 0.23034,2.12085 0.16011,4.24599 0.53361,6.34676 0.44366,2.61797 0.56041,5.26475 0.96055,7.8883 0.22968,2.36613 0.87126,4.65142 1.31082,6.98052 0.33451,1.7678 0.56278,3.63185 1.33867,5.27247 0.65232,1.81003 1.60188,3.46842 2.48834,5.16736 1.31307,2.19991 2.73279,4.33589 4.04146,6.54002 1.26156,1.93343 2.55391,3.88308 3.9778,5.7043 0.84864,1.17522 1.76901,2.30095 2.69191,3.42121 3.62832,4.41456 -2.61482,9.54578 -6.24314,5.13122 l 0,0 c -0.9819,-1.19701 -1.95675,-2.40615 -2.87418,-3.65139 -1.58055,-2.1024 -3.10884,-4.2629 -4.50698,-6.48955 -1.3779,-2.33741 -2.91379,-4.57835 -4.25986,-6.93367 -0.96839,-1.88012 -2.01069,-3.72093 -2.74558,-5.7118 -0.91275,-2.23183 -1.49257,-4.57927 -1.85191,-6.96439 -0.4475,-2.41994 -1.12045,-4.79549 -1.35698,-7.2531 -0.38856,-2.56896 -0.53386,-5.15443 -0.93329,-7.72061 -0.38663,-2.27017 -0.42847,-4.54699 -0.60343,-6.83884 -0.30787,-2.8024 -0.8595,-5.57632 -1.01385,-8.39383 -0.24423,-3.083 -0.71641,-6.14808 -0.80995,-9.23963 -0.0779,-2.26746 -0.21264,-4.53391 -0.62684,-6.76937 -0.31925,-1.98752 -0.45003,-3.97888 -0.66931,-5.97692 -0.36776,-2.20327 -0.84008,-4.39163 -0.65483,-6.64377 -9.5e-4,-2.02198 0.0142,-4.04616 -0.10181,-6.06565 -0.11862,-1.50514 -0.33211,-2.98767 -0.90205,-4.39937 -0.58237,-1.95346 -1.00178,-3.95471 -1.61899,-5.90026 -0.68719,-2.14302 -1.60733,-4.20982 -2.52819,-6.26038 -0.99182,-2.42954 -1.93535,-4.88708 -3.05387,-7.25889 -0.79631,-1.58651 -1.62274,-3.12391 -2.9961,-4.30823 -2.10572,-2.06195 -4.22263,-4.11664 -5.9435,-6.52825 -1.8832,-2.6145 -3.6633,-5.32027 -5.08514,-8.217 -2.83508,-4.96139 4.18139,-8.9708 7.01647,-4.00941 z"
       inkscape:connector-curvature="0" />
    <path
       style="opacity:1;fill:#ff5555;fill-opacity:1;stroke-width:1.0145781;stroke-miterlimit:4;stroke-dasharray:none;stroke-dashoffset:0"
       id="path4447"
       d="m 163.58057,300.9605 c 3.05171,1.73425 6.44278,2.57701 9.8586,3.22971 2.93681,0.5198 5.9213,0.63564 8.89677,0.68471 1.78603,-0.0259 3.5766,0.15732 5.32782,-0.21978 2.11648,-0.30122 4.08524,-1.08172 6.03921,-1.90822 2.12328,-0.87175 4.37738,-1.49644 6.41725,-2.55888 1.82716,-0.86867 3.65014,-1.73273 5.4802,-2.59631 2.0559,-1.02789 4.20021,-1.87326 6.1871,-3.03445 2.14117,-1.16428 4.35654,-2.19446 6.57483,-3.20365 1.71734,-0.86588 3.61629,-1.36033 5.35392,-2.15666 1.55229,-0.82398 3.09253,-1.57193 4.81897,-2.03271 2.20097,-0.81819 4.52099,-1.27664 6.74784,-2.00443 1.98884,-0.84848 4.15724,-0.9693 6.23147,-1.45203 1.74905,-0.50606 3.41435,-1.21379 5.20782,-1.62132 1.53057,-0.70814 3.22212,-0.86169 4.8265,-1.30264 2.016,-0.45912 3.96322,-1.13886 5.98019,-1.59683 5.57725,-1.24395 7.33647,6.64346 1.75922,7.88742 l 0,0 c -1.94477,0.42234 -3.81073,1.12672 -5.75763,1.54387 -1.70894,0.41406 -3.43841,0.70332 -5.08256,1.36299 -1.81356,0.36678 -3.43305,1.29983 -5.25762,1.63204 -1.84483,0.37188 -3.73255,0.54144 -5.495,1.25925 -2.39376,0.72889 -4.83425,1.2997 -7.19759,2.13095 -1.37135,0.28127 -2.4237,1.1993 -3.73006,1.67636 -1.69893,0.66258 -3.41793,1.25109 -5.07022,2.0346 -1.98598,0.89531 -3.96286,1.82455 -5.88426,2.84985 -2.19733,1.24795 -4.51091,2.25012 -6.7856,3.34583 -1.77086,0.82462 -3.52875,1.66807 -5.29329,2.50583 -2.2236,1.08674 -4.57042,1.9018 -6.88392,2.77397 -2.45018,1.03591 -4.94129,1.9672 -7.58261,2.38557 -2.33987,0.45734 -4.69092,0.43279 -7.06809,0.37945 -3.44497,-0.0591 -6.89857,-0.21355 -10.29605,-0.83076 -4.46154,-0.87248 -8.88108,-2.06032 -12.80586,-4.43974 -4.75458,-3.16972 -0.27192,-9.8937 4.48265,-6.72399 z"
       inkscape:connector-curvature="0" />
    <path
       style="opacity:1;fill:#ff5555;fill-opacity:1;stroke-width:1.0145781;stroke-miterlimit:4;stroke-dasharray:none;stroke-dashoffset:0"
       id="path4453"
       d="m 501.88148,276.56505 c 3.00402,-0.0425 5.98848,-0.0526 8.97239,0.31984 3.02541,0.52782 5.9443,1.99811 7.19808,4.97874 0.22566,0.53648 0.29997,1.1247 0.44995,1.68705 0.3127,2.52082 -0.18485,4.9627 -0.98341,7.3412 -0.81607,2.44243 -2.03625,4.69752 -3.36611,6.89056 -1.14663,1.75185 -0.55075,0.87907 -1.78963,2.61697 -3.32631,4.64636 -9.89726,-0.0578 -6.57095,-4.70412 l 0,0 c 1.00129,-1.39124 0.51749,-0.6891 1.45226,-2.10584 1.04262,-1.71609 2.02713,-3.46315 2.65242,-5.38292 0.40305,-1.02786 0.59991,-2.07136 0.663,-3.16453 0.73664,1.08124 0.87611,0.0815 -0.72398,-0.14032 -2.64335,-0.34329 -5.29124,-0.26919 -7.95402,-0.25541 -5.71428,0 -5.71428,-8.08122 0,-8.08122 z"
       inkscape:connector-curvature="0" />
    <path
       style="opacity:1;fill:#ff5555;fill-opacity:1;stroke-width:1.0145781;stroke-miterlimit:4;stroke-dasharray:none;stroke-dashoffset:0"
       id="path4455"
       d="m 250.92493,270.66558 c 3.5528,0.43709 7.07509,1.10107 10.57585,1.84243 2.9886,0.74845 6.05131,2.27311 7.2634,5.32405 0.25998,0.6544 0.35346,1.36323 0.5302,2.04484 0.0807,2.84752 -1.03031,5.29935 -2.61645,7.58303 -0.64682,0.95987 -1.41502,1.82562 -2.07531,2.77471 -3.31336,4.65561 -9.89739,-0.0302 -6.58402,-4.6858 l 0,0 c 0.70681,-0.97994 1.47136,-1.91113 2.16616,-2.89983 0.4672,-0.41824 0.67802,-1.11012 0.89331,-1.67286 0.0295,-0.0772 0.0545,-0.27848 0.11342,-0.22051 0.11474,0.11291 0.0893,0.30931 0.13399,0.46397 0.59268,0.68377 0.3791,-0.54568 -1.49937,-0.8058 -3.32459,-0.70444 -6.6691,-1.33902 -10.04404,-1.74823 -5.65685,-0.80813 -4.514,-8.80813 1.14286,-8 z"
       inkscape:connector-curvature="0" />
    <path
       style="opacity:1;fill:#ff5555;fill-opacity:1;stroke-width:1.0145781;stroke-miterlimit:4;stroke-dasharray:none;stroke-dashoffset:0"
       id="path4457"
       d="m 186.28526,415.64515 c 2.74926,1.31523 5.56748,2.46128 8.27699,3.86074 0.37845,-0.007 1.67298,1.17969 2.12739,0.82012 0.0477,-0.0378 -0.16065,-0.0695 -0.13387,-0.12411 0.0747,-0.15235 0.50976,-0.051 0.0352,-0.12372 -1.09003,0.17991 -0.99194,1.72252 -1.42993,0.0836 -0.0771,-0.17859 -0.1542,-0.35719 -0.2313,-0.53578 -2.02117,-5.3449 5.53765,-8.20327 7.55883,-2.85838 l 0,0 c 0.16999,0.47483 0.33998,0.94965 0.50997,1.42448 0.9367,3.85967 0.58703,6.92895 -3.02601,9.22581 -3.48041,1.33398 -5.86956,1.05851 -9.13612,-0.7409 -2.52483,-1.32189 -5.17489,-2.35519 -7.73452,-3.60401 -5.25226,-2.25097 -2.06891,-9.67878 3.18335,-7.42781 z"
       inkscape:connector-curvature="0" />
    <text
       xml:space="preserve"
       style="font-style:normal;font-variant:normal;font-weight:600;font-stretch:normal;font-size:13.75px;line-height:124.00000095%;font-family:'Segoe UI';-inkscape-font-specification:'Segoe UI, Semi-Bold';text-align:end;letter-spacing:0px;word-spacing:0px;writing-mode:lr-tb;text-anchor:end;fill:#000000;fill-opacity:1;stroke:none;stroke-width:1px;stroke-linecap:butt;stroke-linejoin:miter;stroke-opacity:1"
       x="-315.66898"
       y="275.27594"
       id="text4459"
       sodipodi:linespacing="124%"
       transform="matrix(0.50239195,-0.86464,0.86464,0.50239195,0,0)"><tspan
         sodipodi:role="line"
         id="tspan4461"
         x="-315.66898"
         y="275.27594"
         style="font-size:16.25px;line-height:124.00000095%;text-align:start;text-anchor:start;fill:#ff5555">Demomonstrates</tspan><tspan
         sodipodi:role="line"
         x="-315.66898"
         y="295.42593"
         id="tspan4463"
         style="font-size:16.25px;line-height:124.00000095%;text-align:start;text-anchor:start;fill:#ff5555">Improvement</tspan><tspan
         sodipodi:role="line"
         x="-315.66898"
         y="315.57596"
         id="tspan4465"
         style="font-size:16.25px;line-height:124.00000095%;text-align:start;text-anchor:start;fill:#ff5555">with</tspan></text>
  </g>
</svg>
