<?xml version="1.0" encoding="UTF-8" standalone="no"?>
<!-- Created with Inkscape (http://www.inkscape.org/) -->

<svg
   xmlns:dc="http://purl.org/dc/elements/1.1/"
   xmlns:cc="http://creativecommons.org/ns#"
   xmlns:rdf="http://www.w3.org/1999/02/22-rdf-syntax-ns#"
   xmlns:svg="http://www.w3.org/2000/svg"
   xmlns="http://www.w3.org/2000/svg"
   xmlns:sodipodi="http://sodipodi.sourceforge.net/DTD/sodipodi-0.dtd"
   xmlns:inkscape="http://www.inkscape.org/namespaces/inkscape"
   id="svg2"
   version="1.1"
   inkscape:version="0.91 r13725"
   xml:space="preserve"
   width="382.5"
   height="354.89999"
   viewBox="0 0 382.5 354.9"
   sodipodi:docname="constparse.svg"><metadata
     id="metadata8"><rdf:RDF><cc:Work
         rdf:about=""><dc:format>image/svg+xml</dc:format><dc:type
           rdf:resource="http://purl.org/dc/dcmitype/StillImage" /><dc:title></dc:title></cc:Work></rdf:RDF></metadata><defs
     id="defs6"><clipPath
       clipPathUnits="userSpaceOnUse"
       id="clipPath20"><path
         d="m 36,805.89 0,-768.96 522.96,0 0,768.96 -522.96,0 z"
         id="path22"
         inkscape:connector-curvature="0"
         style="clip-rule:evenodd" /></clipPath><clipPath
       clipPathUnits="userSpaceOnUse"
       id="clipPath30"><path
         d="m 36,805.89 0,-768.96 522.96,0 0,768.96 -522.96,0 z"
         id="path32"
         inkscape:connector-curvature="0"
         style="clip-rule:evenodd" /></clipPath></defs><sodipodi:namedview
     pagecolor="#ffffff"
     bordercolor="#666666"
     borderopacity="1"
     objecttolerance="10"
     gridtolerance="10"
     guidetolerance="10"
     inkscape:pageopacity="0"
     inkscape:pageshadow="2"
     inkscape:window-width="805"
     inkscape:window-height="480"
     id="namedview4"
     showgrid="false"
     fit-margin-top="0"
     fit-margin-left="0"
     fit-margin-right="0"
     fit-margin-bottom="0"
     inkscape:zoom="0.31714785"
     inkscape:cx="667.8948"
     inkscape:cy="-253.98088"
     inkscape:window-x="1775"
     inkscape:window-y="411"
     inkscape:window-maximized="0"
     inkscape:current-layer="g10" /><g
     id="g10"
     inkscape:groupmode="layer"
     inkscape:label="constparse_raw"
     transform="matrix(1.25,0,0,-1.25,-56.325,996.0375)"><g
       id="g38"
       transform="matrix(0.12,0,0,-0.12,0,841.89)"><path
         d="m 1376,508 0,188"
         style="fill:none;stroke:#a9a9a9;stroke-width:5;stroke-linecap:butt;stroke-linejoin:miter;stroke-miterlimit:4;stroke-dasharray:none;stroke-opacity:1"
         id="path40"
         inkscape:connector-curvature="0" /></g><g
       id="g42"
       transform="matrix(0.12,0,0,-0.12,0,841.89)"><path
         d="m 1320,771 -863,150 0,94"
         style="fill:none;stroke:#a9a9a9;stroke-width:5;stroke-linecap:butt;stroke-linejoin:miter;stroke-miterlimit:4;stroke-dasharray:none;stroke-opacity:1"
         id="path44"
         inkscape:connector-curvature="0" /></g><g
       id="g46"
       transform="matrix(0.12,0,0,-0.12,0,841.89)"><path
         d="m 457,1146 0,187"
         style="fill:none;stroke:#a9a9a9;stroke-width:5;stroke-linecap:butt;stroke-linejoin:miter;stroke-miterlimit:4;stroke-dasharray:none;stroke-opacity:1"
         id="path48"
         inkscape:connector-curvature="0" /></g><g
       id="g50"
       transform="matrix(0.12,0,0,-0.12,0,841.89)"><path
         d="m 457,1465 0,187"
         style="fill:none;stroke:#a9a9a9;stroke-width:5;stroke-linecap:butt;stroke-linejoin:miter;stroke-miterlimit:4;stroke-dasharray:none;stroke-opacity:1"
         id="path52"
         inkscape:connector-curvature="0" /></g><g
       id="g54"
       transform="matrix(0.12,0,0,-0.12,0,841.89)"><path
         d="m 1432,812 118,109 0,94"
         style="fill:none;stroke:#a9a9a9;stroke-width:5;stroke-linecap:butt;stroke-linejoin:miter;stroke-miterlimit:4;stroke-dasharray:none;stroke-opacity:1"
         id="path56"
         inkscape:connector-curvature="0" /></g><g
       id="g58"
       transform="matrix(0.12,0,0,-0.12,0,841.89)"><path
         d="m 1477,1096 -671,144 0,93"
         style="fill:none;stroke:#a9a9a9;stroke-width:5;stroke-linecap:butt;stroke-linejoin:miter;stroke-miterlimit:4;stroke-dasharray:none;stroke-opacity:1"
         id="path60"
         inkscape:connector-curvature="0" /></g><g
       id="g62"
       transform="matrix(0.12,0,0,-0.12,0,841.89)"><path
         d="m 806,1465 0,187"
         style="fill:none;stroke:#a9a9a9;stroke-width:5;stroke-linecap:butt;stroke-linejoin:miter;stroke-miterlimit:4;stroke-dasharray:none;stroke-opacity:1"
         id="path64"
         inkscape:connector-curvature="0" /></g><g
       id="g66"
       transform="matrix(0.12,0,0,-0.12,0,841.89)"><path
         d="m 1622,1146 103,94 0,93"
         style="fill:none;stroke:#a9a9a9;stroke-width:5;stroke-linecap:butt;stroke-linejoin:miter;stroke-miterlimit:4;stroke-dasharray:none;stroke-opacity:1"
         id="path68"
         inkscape:connector-curvature="0" /></g><g
       id="g70"
       transform="matrix(0.12,0,0,-0.12,0,841.89)"><path
         d="m 1652,1419 -496,139 0,94"
         style="fill:none;stroke:#a9a9a9;stroke-width:5;stroke-linecap:butt;stroke-linejoin:miter;stroke-miterlimit:4;stroke-dasharray:none;stroke-opacity:1"
         id="path72"
         inkscape:connector-curvature="0" /></g><g
       id="g74"
       transform="matrix(0.12,0,0,-0.12,0,841.89)"><path
         d="m 1083,1740 -454,137 0,94"
         style="fill:none;stroke:#a9a9a9;stroke-width:5;stroke-linecap:butt;stroke-linejoin:miter;stroke-miterlimit:4;stroke-dasharray:none;stroke-opacity:1"
         id="path76"
         inkscape:connector-curvature="0" /></g><g
       id="g78"
       transform="matrix(0.12,0,0,-0.12,0,841.89)"><path
         d="m 629,2102 0,188"
         style="fill:none;stroke:#a9a9a9;stroke-width:5;stroke-linecap:butt;stroke-linejoin:miter;stroke-miterlimit:4;stroke-dasharray:none;stroke-opacity:1"
         id="path80"
         inkscape:connector-curvature="0" /></g><g
       id="g82"
       transform="matrix(0.12,0,0,-0.12,0,841.89)"><path
         d="m 1085,1783 -101,94 0,94"
         style="fill:none;stroke:#a9a9a9;stroke-width:5;stroke-linecap:butt;stroke-linejoin:miter;stroke-miterlimit:4;stroke-dasharray:none;stroke-opacity:1"
         id="path84"
         inkscape:connector-curvature="0" /></g><g
       id="g86"
       transform="matrix(0.12,0,0,-0.12,0,841.89)"><path
         d="m 984,2102 0,188"
         style="fill:none;stroke:#a9a9a9;stroke-width:5;stroke-linecap:butt;stroke-linejoin:miter;stroke-miterlimit:4;stroke-dasharray:none;stroke-opacity:1"
         id="path88"
         inkscape:connector-curvature="0" /></g><g
       id="g90"
       transform="matrix(0.12,0,0,-0.12,0,841.89)"><path
         d="m 1229,1762 189,115 0,94"
         style="fill:none;stroke:#a9a9a9;stroke-width:5;stroke-linecap:butt;stroke-linejoin:miter;stroke-miterlimit:4;stroke-dasharray:none;stroke-opacity:1"
         id="path92"
         inkscape:connector-curvature="0" /></g><g
       id="g94"
       transform="matrix(0.12,0,0,-0.12,0,841.89)"><path
         d="m 1418,2102 0,188"
         style="fill:none;stroke:#a9a9a9;stroke-width:5;stroke-linecap:butt;stroke-linejoin:miter;stroke-miterlimit:4;stroke-dasharray:none;stroke-opacity:1"
         id="path96"
         inkscape:connector-curvature="0" /></g><g
       id="g98"
       transform="matrix(0.12,0,0,-0.12,0,841.89)"><path
         d="m 1798,1419 514,139 0,94"
         style="fill:none;stroke:#a9a9a9;stroke-width:5;stroke-linecap:butt;stroke-linejoin:miter;stroke-miterlimit:4;stroke-dasharray:none;stroke-opacity:1"
         id="path100"
         inkscape:connector-curvature="0" /></g><g
       id="g102"
       transform="matrix(0.12,0,0,-0.12,0,841.89)"><path
         d="m 2240,1740 -438,137 0,94"
         style="fill:none;stroke:#a9a9a9;stroke-width:5;stroke-linecap:butt;stroke-linejoin:miter;stroke-miterlimit:4;stroke-dasharray:none;stroke-opacity:1"
         id="path104"
         inkscape:connector-curvature="0" /></g><g
       id="g106"
       transform="matrix(0.12,0,0,-0.12,0,841.89)"><path
         d="m 1802,2102 0,188"
         style="fill:none;stroke:#a9a9a9;stroke-width:5;stroke-linecap:butt;stroke-linejoin:miter;stroke-miterlimit:4;stroke-dasharray:none;stroke-opacity:1"
         id="path108"
         inkscape:connector-curvature="0" /></g><g
       id="g110"
       transform="matrix(0.12,0,0,-0.12,0,841.89)"><path
         d="m 2384,1752 262,125 0,94"
         style="fill:none;stroke:#a9a9a9;stroke-width:5;stroke-linecap:butt;stroke-linejoin:miter;stroke-miterlimit:4;stroke-dasharray:none;stroke-opacity:1"
         id="path112"
         inkscape:connector-curvature="0" /></g><g
       id="g114"
       transform="matrix(0.12,0,0,-0.12,0,841.89)"><path
         d="m 2573,2059 -450,137 0,94"
         style="fill:none;stroke:#a9a9a9;stroke-width:5;stroke-linecap:butt;stroke-linejoin:miter;stroke-miterlimit:4;stroke-dasharray:none;stroke-opacity:1"
         id="path116"
         inkscape:connector-curvature="0" /></g><g
       id="g118"
       transform="matrix(0.12,0,0,-0.12,0,841.89)"><path
         d="m 2123,2421 0,187"
         style="fill:none;stroke:#a9a9a9;stroke-width:5;stroke-linecap:butt;stroke-linejoin:miter;stroke-miterlimit:4;stroke-dasharray:none;stroke-opacity:1"
         id="path120"
         inkscape:connector-curvature="0" /></g><g
       id="g122"
       transform="matrix(0.12,0,0,-0.12,0,841.89)"><path
         d="m 2573,2102 -106,94 0,94"
         style="fill:none;stroke:#a9a9a9;stroke-width:5;stroke-linecap:butt;stroke-linejoin:miter;stroke-miterlimit:4;stroke-dasharray:none;stroke-opacity:1"
         id="path124"
         inkscape:connector-curvature="0" /></g><g
       id="g126"
       transform="matrix(0.12,0,0,-0.12,0,841.89)"><path
         d="m 2467,2421 0,187"
         style="fill:none;stroke:#a9a9a9;stroke-width:5;stroke-linecap:butt;stroke-linejoin:miter;stroke-miterlimit:4;stroke-dasharray:none;stroke-opacity:1"
         id="path128"
         inkscape:connector-curvature="0" /></g><g
       id="g130"
       transform="matrix(0.12,0,0,-0.12,0,841.89)"><path
         d="m 2719,2096 121,100 0,94"
         style="fill:none;stroke:#a9a9a9;stroke-width:5;stroke-linecap:butt;stroke-linejoin:miter;stroke-miterlimit:4;stroke-dasharray:none;stroke-opacity:1"
         id="path132"
         inkscape:connector-curvature="0" /></g><g
       id="g134"
       transform="matrix(0.12,0,0,-0.12,0,841.89)"><path
         d="m 2840,2421 0,187"
         style="fill:none;stroke:#a9a9a9;stroke-width:5;stroke-linecap:butt;stroke-linejoin:miter;stroke-miterlimit:4;stroke-dasharray:none;stroke-opacity:1"
         id="path136"
         inkscape:connector-curvature="0" /></g><path
       d="m 154.08,796.65 22.08,0 c 1.32,0 2.28,-0.96 2.28,-2.28 l 0,-11.28 c 0,-1.2 -0.96,-2.16 -2.28,-2.16 l -22.08,0 c -1.32,0 -2.28,0.96 -2.28,2.16 l 0,11.28 c 0,1.32 0.96,2.28 2.28,2.28 z"
       style="fill:#c0d9af;fill-opacity:1;fill-rule:nonzero;stroke:none"
       id="path138"
       inkscape:connector-curvature="0" /><g
       id="g140"
       transform="matrix(0.12,0,0,-0.12,0,841.89)"><path
         d="m 1284,377 184,0 c 11,0 19,8 19,19 l 0,94 c 0,10 -8,18 -19,18 l -184,0 c -11,0 -19,-8 -19,-18 l 0,-94 c 0,-11 8,-19 19,-19 z"
         style="fill:none;stroke:#333333;stroke-width:3;stroke-linecap:butt;stroke-linejoin:miter;stroke-miterlimit:4;stroke-dasharray:none;stroke-opacity:1"
         id="path142"
         inkscape:connector-curvature="0" /></g><text
       transform="matrix(1,0,0,-1,156.83724,786.20892)"
       style="font-variant:normal;font-weight:normal;font-size:5.88000011px;font-family:'Liberation Sans';-inkscape-font-specification:'Liberation Sans';writing-mode:lr-tb;fill:#000000;fill-opacity:1;fill-rule:nonzero;stroke:none"
       id="text144"><tspan
         x="0 4.3200006 8.9999981 13.679996"
         y="0"
         sodipodi:role="line"
         id="tspan146">ROOT</tspan></text>
<path
       d="m 160.68,758.37 8.88,0 c 1.2,0 2.28,-0.96 2.28,-2.28 l 0,-11.16 c 0,-1.32 -1.08,-2.28 -2.28,-2.28 l -8.88,0 c -1.2,0 -2.28,0.96 -2.28,2.28 l 0,11.16 c 0,1.32 1.08,2.28 2.28,2.28 z"
       style="fill:#c0d9af;fill-opacity:1;fill-rule:nonzero;stroke:none"
       id="path148"
       inkscape:connector-curvature="0" /><g
       id="g150"
       transform="matrix(0.12,0,0,-0.12,0,841.89)"><path
         d="m 1339,696 74,0 c 10,0 19,8 19,19 l 0,93 c 0,11 -9,19 -19,19 l -74,0 c -10,0 -19,-8 -19,-19 l 0,-93 c 0,-11 9,-19 19,-19 z"
         style="fill:none;stroke:#333333;stroke-width:3;stroke-linecap:butt;stroke-linejoin:miter;stroke-miterlimit:4;stroke-dasharray:none;stroke-opacity:1"
         id="path152"
         inkscape:connector-curvature="0" /></g><text
       transform="matrix(1,0,0,-1,163.44048,747.93012)"
       style="font-variant:normal;font-weight:normal;font-size:5.88000011px;font-family:'Liberation Sans';-inkscape-font-specification:'Liberation Sans';writing-mode:lr-tb;fill:#000000;fill-opacity:1;fill-rule:nonzero;stroke:none"
       id="text154"><tspan
         x="0"
         y="0"
         id="tspan156">S</tspan></text>
<path
       d="m 48.36,720.09 12.96,0 c 1.2,0 2.28,-0.96 2.28,-2.16 l 0,-11.28 c 0,-1.2 -1.08,-2.28 -2.28,-2.28 l -12.96,0 c -1.32,0 -2.28,1.08 -2.28,2.28 l 0,11.28 c 0,1.2 0.96,2.16 2.28,2.16 z"
       style="fill:#c0d9af;fill-opacity:1;fill-rule:nonzero;stroke:none"
       id="path158"
       inkscape:connector-curvature="0" /><g
       id="g160"
       transform="matrix(0.12,0,0,-0.12,0,841.89)"><path
         d="m 403,1015 108,0 c 10,0 19,8 19,18 l 0,94 c 0,10 -9,19 -19,19 l -108,0 c -11,0 -19,-9 -19,-19 l 0,-94 c 0,-10 8,-18 19,-18 z"
         style="fill:none;stroke:#333333;stroke-width:3;stroke-linecap:butt;stroke-linejoin:miter;stroke-miterlimit:4;stroke-dasharray:none;stroke-opacity:1"
         id="path162"
         inkscape:connector-curvature="0" /></g><text
       transform="matrix(1,0,0,-1,51.12072,709.76892)"
       style="font-variant:normal;font-weight:normal;font-size:5.88000011px;font-family:'Liberation Sans';-inkscape-font-specification:'Liberation Sans';writing-mode:lr-tb;fill:#000000;fill-opacity:1;fill-rule:nonzero;stroke:none"
       id="text164"><tspan
         x="0 4.3200006"
         y="0"
         sodipodi:role="line"
         id="tspan166">NP</tspan></text>
<path
       d="m 48.36,681.93 12.84,0 c 1.32,0 2.28,-1.08 2.28,-2.28 l 0,-11.28 c 0,-1.2 -0.96,-2.28 -2.28,-2.28 l -12.84,0 c -1.2,0 -2.16,1.08 -2.16,2.28 l 0,11.28 c 0,1.2 0.96,2.28 2.16,2.28 z"
       style="fill:#c0d9af;fill-opacity:1;fill-rule:nonzero;stroke:none"
       id="path168"
       inkscape:connector-curvature="0" /><g
       id="g170"
       transform="matrix(0.12,0,0,-0.12,0,841.89)"><path
         d="m 403,1333 107,0 c 11,0 19,9 19,19 l 0,94 c 0,10 -8,19 -19,19 l -107,0 c -10,0 -18,-9 -18,-19 l 0,-94 c 0,-10 8,-19 18,-19 z"
         style="fill:none;stroke:#333333;stroke-width:3;stroke-linecap:butt;stroke-linejoin:miter;stroke-miterlimit:4;stroke-dasharray:none;stroke-opacity:1"
         id="path172"
         inkscape:connector-curvature="0" /></g><text
       transform="matrix(1,0,0,-1,51.12072,671.49012)"
       style="font-variant:normal;font-weight:normal;font-size:5.88000011px;font-family:'Liberation Sans';-inkscape-font-specification:'Liberation Sans';writing-mode:lr-tb;fill:#000000;fill-opacity:1;fill-rule:nonzero;stroke:none"
       id="text174"><tspan
         x="0 4.4399996"
         y="0"
         sodipodi:role="line"
         id="tspan176">DT</tspan></text>
<path
       d="m 47.52,643.65 14.64,0 c 1.2,0 2.28,-0.96 2.28,-2.28 l 0,-11.28 c 0,-1.2 -1.08,-2.16 -2.28,-2.16 l -14.64,0 c -1.32,0 -2.28,0.96 -2.28,2.16 l 0,11.28 c 0,1.32 0.96,2.28 2.28,2.28 z"
       style="fill:#eee8aa;fill-opacity:1;fill-rule:nonzero;stroke:none"
       id="path178"
       inkscape:connector-curvature="0" /><g
       id="g180"
       transform="matrix(0.12,0,0,-0.12,0,841.89)"><path
         d="m 396,1652 122,0 c 10,0 19,8 19,19 l 0,94 c 0,10 -9,18 -19,18 l -122,0 c -11,0 -19,-8 -19,-18 l 0,-94 c 0,-11 8,-19 19,-19 z"
         style="fill:none;stroke:#333333;stroke-width:3;stroke-linecap:butt;stroke-linejoin:miter;stroke-miterlimit:4;stroke-dasharray:none;stroke-opacity:1"
         id="path182"
         inkscape:connector-curvature="0" /></g><text
       transform="matrix(1,0,0,-1,50.27988,633.21132)"
       style="font-variant:normal;font-weight:normal;font-size:5.88000011px;font-family:'Liberation Sans';-inkscape-font-specification:'Liberation Sans';writing-mode:lr-tb;fill:#000000;fill-opacity:1;fill-rule:nonzero;stroke:none"
       id="text184"><tspan
         x="0 1.63464 5.0400009 6.480001"
         y="0"
         sodipodi:role="line"
         id="tspan186">this</tspan></text>
<path
       d="m 179.52,720.09 13.08,0 c 1.2,0 2.28,-0.96 2.28,-2.16 l 0,-11.28 c 0,-1.2 -1.08,-2.28 -2.28,-2.28 l -13.08,0 c -1.2,0 -2.28,1.08 -2.28,2.28 l 0,11.28 c 0,1.2 1.08,2.16 2.28,2.16 z"
       style="fill:#c0d9af;fill-opacity:1;fill-rule:nonzero;stroke:none"
       id="path188"
       inkscape:connector-curvature="0" /><g
       id="g190"
       transform="matrix(0.12,0,0,-0.12,0,841.89)"><path
         d="m 1496,1015 109,0 c 10,0 19,8 19,18 l 0,94 c 0,10 -9,19 -19,19 l -109,0 c -10,0 -19,-9 -19,-19 l 0,-94 c 0,-10 9,-18 19,-18 z"
         style="fill:none;stroke:#333333;stroke-width:3;stroke-linecap:butt;stroke-linejoin:miter;stroke-miterlimit:4;stroke-dasharray:none;stroke-opacity:1"
         id="path192"
         inkscape:connector-curvature="0" /></g><text
       transform="matrix(1,0,0,-1,182.28,709.76892)"
       style="font-variant:normal;font-weight:normal;font-size:5.88000011px;font-family:'Liberation Sans';-inkscape-font-specification:'Liberation Sans';writing-mode:lr-tb;fill:#000000;fill-opacity:1;fill-rule:nonzero;stroke:none"
       id="text194"><tspan
         x="0 3.9219601"
         y="0"
         sodipodi:role="line"
         id="tspan196">VP</tspan></text>
<path
       d="m 88.2,681.93 16.92,0 c 1.32,0 2.28,-1.08 2.28,-2.28 l 0,-11.28 c 0,-1.2 -0.96,-2.28 -2.28,-2.28 l -16.92,0 c -1.2,0 -2.16,1.08 -2.16,2.28 l 0,11.28 c 0,1.2 0.96,2.28 2.16,2.28 z"
       style="fill:#c0d9af;fill-opacity:1;fill-rule:nonzero;stroke:none"
       id="path198"
       inkscape:connector-curvature="0" /><g
       id="g200"
       transform="matrix(0.12,0,0,-0.12,0,841.89)"><path
         d="m 735,1333 141,0 c 11,0 19,9 19,19 l 0,94 c 0,10 -8,19 -19,19 l -141,0 c -10,0 -18,-9 -18,-19 l 0,-94 c 0,-10 8,-19 18,-19 z"
         style="fill:none;stroke:#333333;stroke-width:3;stroke-linecap:butt;stroke-linejoin:miter;stroke-miterlimit:4;stroke-dasharray:none;stroke-opacity:1"
         id="path202"
         inkscape:connector-curvature="0" /></g><text
       transform="matrix(1,0,0,-1,90.95772,671.49012)"
       style="font-variant:normal;font-weight:normal;font-size:5.88000011px;font-family:'Liberation Sans';-inkscape-font-specification:'Liberation Sans';writing-mode:lr-tb;fill:#000000;fill-opacity:1;fill-rule:nonzero;stroke:none"
       id="text204"><tspan
         x="0 4.0800028 8.0019627"
         y="0"
         sodipodi:role="line"
         id="tspan206">VBZ</tspan></text>
<path
       d="m 92.04,643.65 9.24,0 c 1.32,0 2.28,-0.96 2.28,-2.28 l 0,-11.28 c 0,-1.2 -0.96,-2.16 -2.28,-2.16 l -9.24,0 c -1.2,0 -2.16,0.96 -2.16,2.16 l 0,11.28 c 0,1.32 0.96,2.28 2.16,2.28 z"
       style="fill:#eee8aa;fill-opacity:1;fill-rule:nonzero;stroke:none"
       id="path208"
       inkscape:connector-curvature="0" /><g
       id="g210"
       transform="matrix(0.12,0,0,-0.12,0,841.89)"><path
         d="m 767,1652 77,0 c 11,0 19,8 19,19 l 0,94 c 0,10 -8,18 -19,18 l -77,0 c -10,0 -18,-8 -18,-18 l 0,-94 c 0,-11 8,-19 18,-19 z"
         style="fill:none;stroke:#333333;stroke-width:3;stroke-linecap:butt;stroke-linejoin:miter;stroke-miterlimit:4;stroke-dasharray:none;stroke-opacity:1"
         id="path212"
         inkscape:connector-curvature="0" /></g><text
       transform="matrix(1,0,0,-1,94.79736,633.21132)"
       style="font-variant:normal;font-weight:normal;font-size:5.88000011px;font-family:'Liberation Sans';-inkscape-font-specification:'Liberation Sans';writing-mode:lr-tb;fill:#000000;fill-opacity:1;fill-rule:nonzero;stroke:none"
       id="text214"><tspan
         x="0 1.4400003"
         y="0"
         sodipodi:role="line"
         id="tspan216">is</tspan></text>
<path
       d="m 200.52,681.93 13.08,0 c 1.2,0 2.16,-1.08 2.16,-2.28 l 0,-11.28 c 0,-1.2 -0.96,-2.28 -2.16,-2.28 l -13.08,0 c -1.2,0 -2.28,1.08 -2.28,2.28 l 0,11.28 c 0,1.2 1.08,2.28 2.28,2.28 z"
       style="fill:#c0d9af;fill-opacity:1;fill-rule:nonzero;stroke:none"
       id="path218"
       inkscape:connector-curvature="0" /><g
       id="g220"
       transform="matrix(0.12,0,0,-0.12,0,841.89)"><path
         d="m 1671,1333 109,0 c 10,0 18,9 18,19 l 0,94 c 0,10 -8,19 -18,19 l -109,0 c -10,0 -19,-9 -19,-19 l 0,-94 c 0,-10 9,-19 19,-19 z"
         style="fill:none;stroke:#333333;stroke-width:3;stroke-linecap:butt;stroke-linejoin:miter;stroke-miterlimit:4;stroke-dasharray:none;stroke-opacity:1"
         id="path222"
         inkscape:connector-curvature="0" /></g><text
       transform="matrix(1,0,0,-1,203.27748,671.49012)"
       style="font-variant:normal;font-weight:normal;font-size:5.88000011px;font-family:'Liberation Sans';-inkscape-font-specification:'Liberation Sans';writing-mode:lr-tb;fill:#000000;fill-opacity:1;fill-rule:nonzero;stroke:none"
       id="text224"><tspan
         x="0 4.3200006"
         y="0"
         sodipodi:role="line"
         id="tspan226">NP</tspan></text>
<path
       d="m 132.12,643.65 13.08,0 c 1.2,0 2.28,-0.96 2.28,-2.28 l 0,-11.28 c 0,-1.2 -1.08,-2.16 -2.28,-2.16 l -13.08,0 c -1.2,0 -2.16,0.96 -2.16,2.16 l 0,11.28 c 0,1.32 0.96,2.28 2.16,2.28 z"
       style="fill:#c0d9af;fill-opacity:1;fill-rule:nonzero;stroke:none"
       id="path228"
       inkscape:connector-curvature="0" /><g
       id="g230"
       transform="matrix(0.12,0,0,-0.12,0,841.89)"><path
         d="m 1101,1652 109,0 c 10,0 19,8 19,19 l 0,94 c 0,10 -9,18 -19,18 l -109,0 c -10,0 -18,-8 -18,-18 l 0,-94 c 0,-11 8,-19 18,-19 z"
         style="fill:none;stroke:#333333;stroke-width:3;stroke-linecap:butt;stroke-linejoin:miter;stroke-miterlimit:4;stroke-dasharray:none;stroke-opacity:1"
         id="path232"
         inkscape:connector-curvature="0" /></g><text
       transform="matrix(1,0,0,-1,134.88132,633.21132)"
       style="font-variant:normal;font-weight:normal;font-size:5.88000011px;font-family:'Liberation Sans';-inkscape-font-specification:'Liberation Sans';writing-mode:lr-tb;fill:#000000;fill-opacity:1;fill-rule:nonzero;stroke:none"
       id="text234"><tspan
         x="0 4.4399996"
         y="0"
         sodipodi:role="line"
         id="tspan236">NP</tspan></text>
<path
       d="m 69,605.37 12.84,0 c 1.32,0 2.28,-0.96 2.28,-2.28 l 0,-11.16 c 0,-1.32 -0.96,-2.28 -2.28,-2.28 l -12.84,0 c -1.2,0 -2.16,0.96 -2.16,2.28 l 0,11.16 c 0,1.32 0.96,2.28 2.16,2.28 z"
       style="fill:#c0d9af;fill-opacity:1;fill-rule:nonzero;stroke:none"
       id="path238"
       inkscape:connector-curvature="0" /><g
       id="g240"
       transform="matrix(0.12,0,0,-0.12,0,841.89)"><path
         d="m 575,1971 107,0 c 11,0 19,8 19,19 l 0,93 c 0,11 -8,19 -19,19 l -107,0 c -10,0 -18,-8 -18,-19 l 0,-93 c 0,-11 8,-19 18,-19 z"
         style="fill:none;stroke:#333333;stroke-width:3;stroke-linecap:butt;stroke-linejoin:miter;stroke-miterlimit:4;stroke-dasharray:none;stroke-opacity:1"
         id="path242"
         inkscape:connector-curvature="0" /></g><text
       transform="matrix(1,0,0,-1,71.75952,594.93252)"
       style="font-variant:normal;font-weight:normal;font-size:5.88000011px;font-family:'Liberation Sans';-inkscape-font-specification:'Liberation Sans';writing-mode:lr-tb;fill:#000000;fill-opacity:1;fill-rule:nonzero;stroke:none"
       id="text244"><tspan
         x="0 4.4399996"
         y="0"
         sodipodi:role="line"
         id="tspan246">DT</tspan></text>
<path
       d="m 71.16,567.09 8.52,0 c 1.32,0 2.28,-0.96 2.28,-2.16 l 0,-11.28 c 0,-1.2 -0.96,-2.28 -2.28,-2.28 l -8.52,0 c -1.2,0 -2.16,1.08 -2.16,2.28 l 0,11.28 c 0,1.2 0.96,2.16 2.16,2.16 z"
       style="fill:#eee8aa;fill-opacity:1;fill-rule:nonzero;stroke:none"
       id="path248"
       inkscape:connector-curvature="0" /><g
       id="g250"
       transform="matrix(0.12,0,0,-0.12,0,841.89)"><path
         d="m 593,2290 71,0 c 11,0 19,8 19,18 l 0,94 c 0,10 -8,19 -19,19 l -71,0 c -10,0 -18,-9 -18,-19 l 0,-94 c 0,-10 8,-18 18,-18 z"
         style="fill:none;stroke:#333333;stroke-width:3;stroke-linecap:butt;stroke-linejoin:miter;stroke-miterlimit:4;stroke-dasharray:none;stroke-opacity:1"
         id="path252"
         inkscape:connector-curvature="0" /></g><text
       transform="matrix(1,0,0,-1,73.91748,556.77132)"
       style="font-variant:normal;font-weight:normal;font-size:5.88000011px;font-family:'Liberation Sans';-inkscape-font-specification:'Liberation Sans';writing-mode:lr-tb;fill:#000000;fill-opacity:1;fill-rule:nonzero;stroke:none"
       id="text254"><tspan
         x="0"
         y="0"
         id="tspan256">a</tspan></text>
<path
       d="m 112.56,605.37 10.92,0 c 1.32,0 2.28,-0.96 2.28,-2.28 l 0,-11.16 c 0,-1.32 -0.96,-2.28 -2.28,-2.28 l -10.92,0 c -1.32,0 -2.28,0.96 -2.28,2.28 l 0,11.16 c 0,1.32 0.96,2.28 2.28,2.28 z"
       style="fill:#c0d9af;fill-opacity:1;fill-rule:nonzero;stroke:none"
       id="path258"
       inkscape:connector-curvature="0" /><g
       id="g260"
       transform="matrix(0.12,0,0,-0.12,0,841.89)"><path
         d="m 938,1971 91,0 c 11,0 19,8 19,19 l 0,93 c 0,11 -8,19 -19,19 l -91,0 c -11,0 -19,-8 -19,-19 l 0,-93 c 0,-11 8,-19 19,-19 z"
         style="fill:none;stroke:#333333;stroke-width:3;stroke-linecap:butt;stroke-linejoin:miter;stroke-miterlimit:4;stroke-dasharray:none;stroke-opacity:1"
         id="path262"
         inkscape:connector-curvature="0" /></g><text
       transform="matrix(1,0,0,-1,115.31856,594.93252)"
       style="font-variant:normal;font-weight:normal;font-size:5.88000011px;font-family:'Liberation Sans';-inkscape-font-specification:'Liberation Sans';writing-mode:lr-tb;fill:#000000;fill-opacity:1;fill-rule:nonzero;stroke:none"
       id="text264"><tspan
         x="0 2.9999995"
         y="0"
         sodipodi:role="line"
         id="tspan266">JJ</tspan></text>
<path
       d="m 106.68,567.09 22.68,0 c 1.2,0 2.16,-0.96 2.16,-2.16 l 0,-11.28 c 0,-1.2 -0.96,-2.28 -2.16,-2.28 l -22.68,0 c -1.2,0 -2.16,1.08 -2.16,2.28 l 0,11.28 c 0,1.2 0.96,2.16 2.16,2.16 z"
       style="fill:#eee8aa;fill-opacity:1;fill-rule:nonzero;stroke:none"
       id="path268"
       inkscape:connector-curvature="0" /><g
       id="g270"
       transform="matrix(0.12,0,0,-0.12,0,841.89)"><path
         d="m 889,2290 189,0 c 10,0 18,8 18,18 l 0,94 c 0,10 -8,19 -18,19 l -189,0 c -10,0 -18,-9 -18,-19 l 0,-94 c 0,-10 8,-18 18,-18 z"
         style="fill:none;stroke:#333333;stroke-width:3;stroke-linecap:butt;stroke-linejoin:miter;stroke-miterlimit:4;stroke-dasharray:none;stroke-opacity:1"
         id="path272"
         inkscape:connector-curvature="0" /></g><text
       transform="matrix(1,0,0,-1,109.43856,556.77132)"
       style="font-variant:normal;font-weight:normal;font-size:5.88000011px;font-family:'Liberation Sans';-inkscape-font-specification:'Liberation Sans';writing-mode:lr-tb;fill:#000000;fill-opacity:1;fill-rule:nonzero;stroke:none"
       id="text274"><tspan
         x="0 3.1199985 4.559999 9.4580383 12.839997 14.279998"
         y="0"
         sodipodi:role="line"
         id="tspan276">simple</tspan></text>
<path
       d="m 163.68,605.37 13.08,0 c 1.32,0 2.28,-0.96 2.28,-2.28 l 0,-11.16 c 0,-1.32 -0.96,-2.28 -2.28,-2.28 l -13.08,0 c -1.32,0 -2.28,0.96 -2.28,2.28 l 0,11.16 c 0,1.32 0.96,2.28 2.28,2.28 z"
       style="fill:#c0d9af;fill-opacity:1;fill-rule:nonzero;stroke:none"
       id="path278"
       inkscape:connector-curvature="0" /><g
       id="g280"
       transform="matrix(0.12,0,0,-0.12,0,841.89)"><path
         d="m 1364,1971 109,0 c 11,0 19,8 19,19 l 0,93 c 0,11 -8,19 -19,19 l -109,0 c -11,0 -19,-8 -19,-19 l 0,-93 c 0,-11 8,-19 19,-19 z"
         style="fill:none;stroke:#333333;stroke-width:3;stroke-linecap:butt;stroke-linejoin:miter;stroke-miterlimit:4;stroke-dasharray:none;stroke-opacity:1"
         id="path282"
         inkscape:connector-curvature="0" /></g><text
       transform="matrix(1,0,0,-1,166.43928,594.93252)"
       style="font-variant:normal;font-weight:normal;font-size:5.88000011px;font-family:'Liberation Sans';-inkscape-font-specification:'Liberation Sans';writing-mode:lr-tb;fill:#000000;fill-opacity:1;fill-rule:nonzero;stroke:none"
       id="text284"><tspan
         x="0 4.3200006"
         y="0"
         sodipodi:role="line"
         id="tspan286">NN</tspan></text>
<path
       d="m 156.36,567.09 27.72,0 c 1.32,0 2.28,-0.96 2.28,-2.16 l 0,-11.28 c 0,-1.2 -0.96,-2.28 -2.28,-2.28 l -27.72,0 c -1.32,0 -2.28,1.08 -2.28,2.28 l 0,11.28 c 0,1.2 0.96,2.16 2.28,2.16 z"
       style="fill:#eee8aa;fill-opacity:1;fill-rule:nonzero;stroke:none"
       id="path288"
       inkscape:connector-curvature="0" /><g
       id="g290"
       transform="matrix(0.12,0,0,-0.12,0,841.89)"><path
         d="m 1303,2290 231,0 c 11,0 19,8 19,18 l 0,94 c 0,10 -8,19 -19,19 l -231,0 c -11,0 -19,-9 -19,-19 l 0,-94 c 0,-10 8,-18 19,-18 z"
         style="fill:none;stroke:#333333;stroke-width:3;stroke-linecap:butt;stroke-linejoin:miter;stroke-miterlimit:4;stroke-dasharray:none;stroke-opacity:1"
         id="path292"
         inkscape:connector-curvature="0" /></g><text
       transform="matrix(1,0,0,-1,159.11868,556.77132)"
       style="font-variant:normal;font-weight:normal;font-size:5.88000011px;font-family:'Liberation Sans';-inkscape-font-specification:'Liberation Sans';writing-mode:lr-tb;fill:#000000;fill-opacity:1;fill-rule:nonzero;stroke:none"
       id="text294"><tspan
         x="0 3.3600025 6.3000026 9.720005 14.760005 18.120008 19.560009"
         y="0"
         sodipodi:role="line"
         id="tspan296">example</tspan></text>
<path
       d="m 271.08,643.65 12.72,0 c 1.2,0 2.28,-0.96 2.28,-2.28 l 0,-11.28 c 0,-1.2 -1.08,-2.16 -2.28,-2.16 l -12.72,0 c -1.2,0 -2.28,0.96 -2.28,2.16 l 0,11.28 c 0,1.32 1.08,2.28 2.28,2.28 z"
       style="fill:#c0d9af;fill-opacity:1;fill-rule:nonzero;stroke:none"
       id="path298"
       inkscape:connector-curvature="0" /><g
       id="g300"
       transform="matrix(0.12,0,0,-0.12,0,841.89)"><path
         d="m 2259,1652 106,0 c 10,0 19,8 19,19 l 0,94 c 0,10 -9,18 -19,18 l -106,0 c -10,0 -19,-8 -19,-18 l 0,-94 c 0,-11 9,-19 19,-19 z"
         style="fill:none;stroke:#333333;stroke-width:3;stroke-linecap:butt;stroke-linejoin:miter;stroke-miterlimit:4;stroke-dasharray:none;stroke-opacity:1"
         id="path302"
         inkscape:connector-curvature="0" /></g><text
       transform="matrix(1,0,0,-1,273.83748,633.21132)"
       style="font-variant:normal;font-weight:normal;font-size:5.88000011px;font-family:'Liberation Sans';-inkscape-font-specification:'Liberation Sans';writing-mode:lr-tb;fill:#000000;fill-opacity:1;fill-rule:nonzero;stroke:none"
       id="text304"><tspan
         x="0 4.0800028"
         y="0"
         sodipodi:role="line"
         id="tspan306">PP</tspan></text>
<path
       d="m 210.96,605.37 10.56,0 c 1.32,0 2.28,-0.96 2.28,-2.28 l 0,-11.16 c 0,-1.32 -0.96,-2.28 -2.28,-2.28 l -10.56,0 c -1.2,0 -2.28,0.96 -2.28,2.28 l 0,11.16 c 0,1.32 1.08,2.28 2.28,2.28 z"
       style="fill:#c0d9af;fill-opacity:1;fill-rule:nonzero;stroke:none"
       id="path308"
       inkscape:connector-curvature="0" /><g
       id="g310"
       transform="matrix(0.12,0,0,-0.12,0,841.89)"><path
         d="m 1758,1971 88,0 c 11,0 19,8 19,19 l 0,93 c 0,11 -8,19 -19,19 l -88,0 c -10,0 -19,-8 -19,-19 l 0,-93 c 0,-11 9,-19 19,-19 z"
         style="fill:none;stroke:#333333;stroke-width:3;stroke-linecap:butt;stroke-linejoin:miter;stroke-miterlimit:4;stroke-dasharray:none;stroke-opacity:1"
         id="path312"
         inkscape:connector-curvature="0" /></g><text
       transform="matrix(1,0,0,-1,213.72036,594.93252)"
       style="font-variant:normal;font-weight:normal;font-size:5.88000011px;font-family:'Liberation Sans';-inkscape-font-specification:'Liberation Sans';writing-mode:lr-tb;fill:#000000;fill-opacity:1;fill-rule:nonzero;stroke:none"
       id="text314"><tspan
         x="0 1.7999973"
         y="0"
         sodipodi:role="line"
         id="tspan316">IN</tspan></text>
<path
       d="m 211.08,567.09 10.32,0 c 1.2,0 2.28,-0.96 2.28,-2.16 l 0,-11.28 c 0,-1.2 -1.08,-2.28 -2.28,-2.28 l -10.32,0 c -1.2,0 -2.16,1.08 -2.16,2.28 l 0,11.28 c 0,1.2 0.96,2.16 2.16,2.16 z"
       style="fill:#eee8aa;fill-opacity:1;fill-rule:nonzero;stroke:none"
       id="path318"
       inkscape:connector-curvature="0" /><g
       id="g320"
       transform="matrix(0.12,0,0,-0.12,0,841.89)"><path
         d="m 1759,2290 86,0 c 10,0 19,8 19,18 l 0,94 c 0,10 -9,19 -19,19 l -86,0 c -10,0 -18,-9 -18,-19 l 0,-94 c 0,-10 8,-18 18,-18 z"
         style="fill:none;stroke:#333333;stroke-width:3;stroke-linecap:butt;stroke-linejoin:miter;stroke-miterlimit:4;stroke-dasharray:none;stroke-opacity:1"
         id="path322"
         inkscape:connector-curvature="0" /></g><text
       transform="matrix(1,0,0,-1,213.83796,556.77132)"
       style="font-variant:normal;font-weight:normal;font-size:5.88000011px;font-family:'Liberation Sans';-inkscape-font-specification:'Liberation Sans';writing-mode:lr-tb;fill:#000000;fill-opacity:1;fill-rule:nonzero;stroke:none"
       id="text324"><tspan
         x="0 3.3600025"
         y="0"
         sodipodi:role="line"
         id="tspan326">of</tspan></text>
<path
       d="m 310.92,605.37 13.08,0 c 1.2,0 2.28,-0.96 2.28,-2.28 l 0,-11.16 c 0,-1.32 -1.08,-2.28 -2.28,-2.28 l -13.08,0 c -1.2,0 -2.16,0.96 -2.16,2.28 l 0,11.16 c 0,1.32 0.96,2.28 2.16,2.28 z"
       style="fill:#c0d9af;fill-opacity:1;fill-rule:nonzero;stroke:none"
       id="path328"
       inkscape:connector-curvature="0" /><g
       id="g330"
       transform="matrix(0.12,0,0,-0.12,0,841.89)"><path
         d="m 2591,1971 109,0 c 10,0 19,8 19,19 l 0,93 c 0,11 -9,19 -19,19 l -109,0 c -10,0 -18,-8 -18,-19 l 0,-93 c 0,-11 8,-19 18,-19 z"
         style="fill:none;stroke:#333333;stroke-width:3;stroke-linecap:butt;stroke-linejoin:miter;stroke-miterlimit:4;stroke-dasharray:none;stroke-opacity:1"
         id="path332"
         inkscape:connector-curvature="0" /></g><text
       transform="matrix(1,0,0,-1,313.68036,594.93252)"
       style="font-variant:normal;font-weight:normal;font-size:5.88000011px;font-family:'Liberation Sans';-inkscape-font-specification:'Liberation Sans';writing-mode:lr-tb;fill:#000000;fill-opacity:1;fill-rule:nonzero;stroke:none"
       id="text334"><tspan
         x="0 4.4399996"
         y="0"
         sodipodi:role="line"
         id="tspan336">NP</tspan></text>
<path
       d="m 248.4,567.09 12.84,0 c 1.2,0 2.28,-0.96 2.28,-2.16 l 0,-11.28 c 0,-1.2 -1.08,-2.28 -2.28,-2.28 l -12.84,0 c -1.2,0 -2.28,1.08 -2.28,2.28 l 0,11.28 c 0,1.2 1.08,2.16 2.28,2.16 z"
       style="fill:#c0d9af;fill-opacity:1;fill-rule:nonzero;stroke:none"
       id="path338"
       inkscape:connector-curvature="0" /><g
       id="g340"
       transform="matrix(0.12,0,0,-0.12,0,841.89)"><path
         d="m 2070,2290 107,0 c 10,0 19,8 19,18 l 0,94 c 0,10 -9,19 -19,19 l -107,0 c -10,0 -19,-9 -19,-19 l 0,-94 c 0,-10 9,-18 19,-18 z"
         style="fill:none;stroke:#333333;stroke-width:3;stroke-linecap:butt;stroke-linejoin:miter;stroke-miterlimit:4;stroke-dasharray:none;stroke-opacity:1"
         id="path342"
         inkscape:connector-curvature="0" /></g><text
       transform="matrix(1,0,0,-1,251.15832,556.77132)"
       style="font-variant:normal;font-weight:normal;font-size:5.88000011px;font-family:'Liberation Sans';-inkscape-font-specification:'Liberation Sans';writing-mode:lr-tb;fill:#000000;fill-opacity:1;fill-rule:nonzero;stroke:none"
       id="text344"><tspan
         x="0 4.3200006"
         y="0"
         sodipodi:role="line"
         id="tspan346">DT</tspan></text>
<path
       d="m 250.56,528.93 8.52,0 c 1.2,0 2.28,-1.08 2.28,-2.28 l 0,-11.28 c 0,-1.2 -1.08,-2.28 -2.28,-2.28 l -8.52,0 c -1.2,0 -2.28,1.08 -2.28,2.28 l 0,11.28 c 0,1.2 1.08,2.28 2.28,2.28 z"
       style="fill:#eee8aa;fill-opacity:1;fill-rule:nonzero;stroke:none"
       id="path348"
       inkscape:connector-curvature="0" /><g
       id="g350"
       transform="matrix(0.12,0,0,-0.12,0,841.89)"><path
         d="m 2088,2608 71,0 c 10,0 19,9 19,19 l 0,94 c 0,10 -9,19 -19,19 l -71,0 c -10,0 -19,-9 -19,-19 l 0,-94 c 0,-10 9,-19 19,-19 z"
         style="fill:none;stroke:#333333;stroke-width:3;stroke-linecap:butt;stroke-linejoin:miter;stroke-miterlimit:4;stroke-dasharray:none;stroke-opacity:1"
         id="path352"
         inkscape:connector-curvature="0" /></g><text
       transform="matrix(1,0,0,-1,253.32216,518.49252)"
       style="font-variant:normal;font-weight:normal;font-size:5.88000011px;font-family:'Liberation Sans';-inkscape-font-specification:'Liberation Sans';writing-mode:lr-tb;fill:#000000;fill-opacity:1;fill-rule:nonzero;stroke:none"
       id="text354"><tspan
         x="0"
         y="0"
         id="tspan356">a</tspan></text>
<path
       d="m 289.44,567.09 13.2,0 c 1.2,0 2.28,-0.96 2.28,-2.16 l 0,-11.28 c 0,-1.2 -1.08,-2.28 -2.28,-2.28 l -13.2,0 c -1.2,0 -2.28,1.08 -2.28,2.28 l 0,11.28 c 0,1.2 1.08,2.16 2.28,2.16 z"
       style="fill:#c0d9af;fill-opacity:1;fill-rule:nonzero;stroke:none"
       id="path358"
       inkscape:connector-curvature="0" /><g
       id="g360"
       transform="matrix(0.12,0,0,-0.12,0,841.89)"><path
         d="m 2412,2290 110,0 c 10,0 19,8 19,18 l 0,94 c 0,10 -9,19 -19,19 l -110,0 c -10,0 -19,-9 -19,-19 l 0,-94 c 0,-10 9,-18 19,-18 z"
         style="fill:none;stroke:#333333;stroke-width:3;stroke-linecap:butt;stroke-linejoin:miter;stroke-miterlimit:4;stroke-dasharray:none;stroke-opacity:1"
         id="path362"
         inkscape:connector-curvature="0" /></g><text
       transform="matrix(1,0,0,-1,292.20072,556.77132)"
       style="font-variant:normal;font-weight:normal;font-size:5.88000011px;font-family:'Liberation Sans';-inkscape-font-specification:'Liberation Sans';writing-mode:lr-tb;fill:#000000;fill-opacity:1;fill-rule:nonzero;stroke:none"
       id="text364"><tspan
         x="0 4.3200006"
         y="0"
         sodipodi:role="line"
         id="tspan366">NN</tspan></text>
<path
       d="m 286.08,528.93 19.92,0 c 1.32,0 2.28,-1.08 2.28,-2.28 l 0,-11.28 c 0,-1.2 -0.96,-2.28 -2.28,-2.28 l -19.92,0 c -1.2,0 -2.28,1.08 -2.28,2.28 l 0,11.28 c 0,1.2 1.08,2.28 2.28,2.28 z"
       style="fill:#eee8aa;fill-opacity:1;fill-rule:nonzero;stroke:none"
       id="path368"
       inkscape:connector-curvature="0" /><g
       id="g370"
       transform="matrix(0.12,0,0,-0.12,0,841.89)"><path
         d="m 2384,2608 166,0 c 11,0 19,9 19,19 l 0,94 c 0,10 -8,19 -19,19 l -166,0 c -10,0 -19,-9 -19,-19 l 0,-94 c 0,-10 9,-19 19,-19 z"
         style="fill:none;stroke:#333333;stroke-width:3;stroke-linecap:butt;stroke-linejoin:miter;stroke-miterlimit:4;stroke-dasharray:none;stroke-opacity:1"
         id="path372"
         inkscape:connector-curvature="0" /></g><text
       transform="matrix(1,0,0,-1,288.83736,518.49252)"
       style="font-variant:normal;font-weight:normal;font-size:5.88000011px;font-family:'Liberation Sans';-inkscape-font-specification:'Liberation Sans';writing-mode:lr-tb;fill:#000000;fill-opacity:1;fill-rule:nonzero;stroke:none"
       id="text374"><tspan
         x="0 3.3600025 6.720005 8.760006 11.880005"
         y="0"
         sodipodi:role="line"
         id="tspan376">parse</tspan></text>
<path
       d="m 334.2,567.09 13.2,0 c 1.32,0 2.28,-0.96 2.28,-2.16 l 0,-11.28 c 0,-1.2 -0.96,-2.28 -2.28,-2.28 l -13.2,0 c -1.2,0 -2.16,1.08 -2.16,2.28 l 0,11.28 c 0,1.2 0.96,2.16 2.16,2.16 z"
       style="fill:#c0d9af;fill-opacity:1;fill-rule:nonzero;stroke:none"
       id="path378"
       inkscape:connector-curvature="0" /><g
       id="g380"
       transform="matrix(0.12,0,0,-0.12,0,841.89)"><path
         d="m 2785,2290 110,0 c 11,0 19,8 19,18 l 0,94 c 0,10 -8,19 -19,19 l -110,0 c -10,0 -18,-9 -18,-19 l 0,-94 c 0,-10 8,-18 18,-18 z"
         style="fill:none;stroke:#333333;stroke-width:3;stroke-linecap:butt;stroke-linejoin:miter;stroke-miterlimit:4;stroke-dasharray:none;stroke-opacity:1"
         id="path382"
         inkscape:connector-curvature="0" /></g><text
       transform="matrix(1,0,0,-1,336.95928,556.77132)"
       style="font-variant:normal;font-weight:normal;font-size:5.88000011px;font-family:'Liberation Sans';-inkscape-font-specification:'Liberation Sans';writing-mode:lr-tb;fill:#000000;fill-opacity:1;fill-rule:nonzero;stroke:none"
       id="text384"><tspan
         x="0 4.4399996"
         y="0"
         sodipodi:role="line"
         id="tspan386">NN</tspan></text>
<path
       d="m 333,528.93 15.6,0 c 1.32,0 2.28,-1.08 2.28,-2.28 l 0,-11.28 c 0,-1.2 -0.96,-2.28 -2.28,-2.28 l -15.6,0 c -1.2,0 -2.16,1.08 -2.16,2.28 l 0,11.28 c 0,1.2 0.96,2.28 2.16,2.28 z"
       style="fill:#eee8aa;fill-opacity:1;fill-rule:nonzero;stroke:none"
       id="path388"
       inkscape:connector-curvature="0" /><g
       id="g390"
       transform="matrix(0.12,0,0,-0.12,0,841.89)"><path
         d="m 2775,2608 130,0 c 11,0 19,9 19,19 l 0,94 c 0,10 -8,19 -19,19 l -130,0 c -10,0 -18,-9 -18,-19 l 0,-94 c 0,-10 8,-19 18,-19 z"
         style="fill:none;stroke:#333333;stroke-width:3;stroke-linecap:butt;stroke-linejoin:miter;stroke-miterlimit:4;stroke-dasharray:none;stroke-opacity:1"
         id="path392"
         inkscape:connector-curvature="0" /></g><text
       transform="matrix(1,0,0,-1,335.75976,518.49252)"
       style="font-variant:normal;font-weight:normal;font-size:5.88000011px;font-family:'Liberation Sans';-inkscape-font-specification:'Liberation Sans';writing-mode:lr-tb;fill:#000000;fill-opacity:1;fill-rule:nonzero;stroke:none"
       id="text394"><tspan
         x="0 1.7999973 3.8399987 7.2000012"
         y="0"
         sodipodi:role="line"
         id="tspan396">tree</tspan></text>
</g></svg>