<?xml version="1.0" encoding="UTF-8" standalone="no"?>
<!-- Created with Inkscape (http://www.inkscape.org/) -->

<svg
   xmlns:dc="http://purl.org/dc/elements/1.1/"
   xmlns:cc="http://creativecommons.org/ns#"
   xmlns:rdf="http://www.w3.org/1999/02/22-rdf-syntax-ns#"
   xmlns:svg="http://www.w3.org/2000/svg"
   xmlns="http://www.w3.org/2000/svg"
   xmlns:sodipodi="http://sodipodi.sourceforge.net/DTD/sodipodi-0.dtd"
   xmlns:inkscape="http://www.inkscape.org/namespaces/inkscape"
   id="svg2"
   version="1.1"
   inkscape:version="0.91 r13725"
   xml:space="preserve"
   width="182.77499"
   height="44.400002"
   viewBox="0 0 182.77499 44.400002"
   sodipodi:docname="depparse.svg"><metadata
     id="metadata8"><rdf:RDF><cc:Work
         rdf:about=""><dc:format>image/svg+xml</dc:format><dc:type
           rdf:resource="http://purl.org/dc/dcmitype/StillImage" /><dc:title></dc:title></cc:Work></rdf:RDF></metadata><defs
     id="defs6"><clipPath
       clipPathUnits="userSpaceOnUse"
       id="clipPath18"><path
         d="m 36,805.89 0,-768.96 522.96,0 0,768.96 -522.96,0 z"
         id="path20"
         inkscape:connector-curvature="0"
         style="clip-rule:evenodd" /></clipPath><clipPath
       clipPathUnits="userSpaceOnUse"
       id="clipPath28"><path
         d="m 36,805.89 0,-768.96 522.96,0 0,768.96 -522.96,0 z"
         id="path30"
         inkscape:connector-curvature="0"
         style="clip-rule:evenodd" /></clipPath><clipPath
       clipPathUnits="userSpaceOnUse"
       id="clipPath40"><path
         d="m 36.24,805.65 0,-35.88 522.72,0 0,35.88 -522.72,0 z"
         id="path42"
         inkscape:connector-curvature="0"
         style="clip-rule:evenodd" /></clipPath><clipPath
       clipPathUnits="userSpaceOnUse"
       id="clipPath110"><path
         d="m 36.24,805.65 0,-35.88 522.72,0 0,35.88 -522.72,0 z"
         id="path112"
         inkscape:connector-curvature="0"
         style="clip-rule:evenodd" /></clipPath><clipPath
       clipPathUnits="userSpaceOnUse"
       id="clipPath256"><path
         d="m 157.32,785.97 -0.36,-0.12 -1.44,-0.48 0.12,-0.12 0,-0.36 0.12,0 0,-0.36 0.12,0 0,-0.36 0.12,0 0,-0.36 0.12,0 0,-0.36 0.12,0 0,-0.24 1.8,0.6 0.36,0 0,0.36 -0.12,0 0,0.36 -0.12,0 0,0.36 -0.12,0 0,0.36 -0.12,0 0,0.36 -0.12,0 0,0.36 -0.48,0 z"
         id="path258"
         inkscape:connector-curvature="0"
         style="clip-rule:evenodd" /></clipPath><clipPath
       clipPathUnits="userSpaceOnUse"
       id="clipPath278"><path
         d="m 93.36,785.97 -0.36,-0.12 -1.44,-0.48 0.12,-0.12 0,-0.36 0.12,0 0,-0.36 0.12,0 0,-0.36 0.12,0 0,-0.36 0.12,0 0,-0.36 0.12,0 0,-0.24 1.8,0.6 0.36,0 0,0.36 -0.12,0 0,0.36 -0.12,0 0,0.36 -0.12,0 0,0.36 -0.12,0 0,0.36 -0.12,0 0,0.36 -0.48,0 z"
         id="path280"
         inkscape:connector-curvature="0"
         style="clip-rule:evenodd" /></clipPath><clipPath
       clipPathUnits="userSpaceOnUse"
       id="clipPath300"><path
         d="m 142.8,786.69 -0.12,-0.12 -0.12,-0.24 -0.12,-0.12 -0.12,-0.24 -0.12,-0.12 -0.24,-0.48 -0.12,-0.12 -0.12,-0.24 -0.12,-0.12 0.48,-0.24 0.12,-0.12 0.24,-0.12 0.12,-0.12 0.48,-0.24 0.12,-0.12 0.48,-0.24 0,0.12 0.12,0.24 0.12,0.12 0.24,0.48 0.12,0.12 0.12,0.24 0.12,0.12 0.24,0.48 -0.12,0.12 -0.24,0.12 -0.12,0.12 -0.48,0.24 -0.12,0.12 -0.24,0.12 -0.12,0.12 -0.24,0.12 -0.24,0 z"
         id="path302"
         inkscape:connector-curvature="0"
         style="clip-rule:evenodd" /></clipPath><clipPath
       clipPathUnits="userSpaceOnUse"
       id="clipPath322"><path
         d="m 78.84,786.69 -0.12,-0.12 -0.12,-0.24 -0.12,-0.12 -0.12,-0.24 -0.12,-0.12 -0.24,-0.48 -0.12,-0.12 -0.12,-0.24 -0.12,-0.12 0.48,-0.24 0.12,-0.12 0.24,-0.12 0.12,-0.12 0.48,-0.24 0.12,-0.12 0.48,-0.24 0,0.12 0.12,0.24 0.12,0.12 0.24,0.48 0.12,0.12 0.12,0.24 0.12,0.12 0.24,0.48 -0.12,0.12 -0.24,0.12 -0.12,0.12 -0.48,0.24 -0.12,0.12 -0.24,0.12 -0.12,0.12 -0.24,0.12 -0.24,0 z"
         id="path324"
         inkscape:connector-curvature="0"
         style="clip-rule:evenodd" /></clipPath><clipPath
       clipPathUnits="userSpaceOnUse"
       id="clipPath344"><path
         d="m 132.36,786.69 -0.12,-0.24 -0.6,-1.8 1.8,-0.6 0.48,-0.12 0,0.24 0.6,1.8 -0.24,0.12 -0.36,0.12 -0.24,0.12 -0.36,0.12 -0.24,0.12 -0.36,0.12 -0.36,0 z"
         id="path346"
         inkscape:connector-curvature="0"
         style="clip-rule:evenodd" /></clipPath><clipPath
       clipPathUnits="userSpaceOnUse"
       id="clipPath366"><path
         d="m 68.4,786.69 -0.12,-0.24 -0.6,-1.8 1.8,-0.6 0.48,-0.12 0,0.24 0.6,1.8 -0.24,0.12 -0.36,0.12 -0.24,0.12 -0.36,0.12 -0.24,0.12 -0.36,0.12 -0.36,0 z"
         id="path368"
         inkscape:connector-curvature="0"
         style="clip-rule:evenodd" /></clipPath><clipPath
       clipPathUnits="userSpaceOnUse"
       id="clipPath392"><path
         d="m 182.52,786.57 -0.6,-0.12 -0.48,-0.12 -0.6,-0.12 0.12,-0.12 0,-0.48 0.12,0 0,-0.6 0.12,0 0,-0.48 0.12,0 0,-0.48 0.6,0.12 0.48,0.12 0.6,0.12 0.48,0 0,0.6 -0.12,0 0,0.48 -0.12,0 0,0.6 -0.12,0 0,0.48 -0.6,0 z"
         id="path394"
         inkscape:connector-curvature="0"
         style="clip-rule:evenodd" /></clipPath><clipPath
       clipPathUnits="userSpaceOnUse"
       id="clipPath410"><path
         d="m 55.32,786.57 -0.12,-0.36 -0.12,-0.48 -0.12,-0.36 -0.12,-0.48 -0.12,-0.36 0.6,-0.12 0.48,-0.12 1.2,-0.24 0,0.36 0.12,0.48 0.12,0.36 0.24,0.96 -0.48,0.12 -0.6,0.12 -0.48,0.12 -0.6,0 z"
         id="path412"
         inkscape:connector-curvature="0"
         style="clip-rule:evenodd" /></clipPath></defs><sodipodi:namedview
     pagecolor="#ffffff"
     bordercolor="#666666"
     borderopacity="1"
     objecttolerance="10"
     gridtolerance="10"
     guidetolerance="10"
     inkscape:pageopacity="0"
     inkscape:pageshadow="2"
     inkscape:window-width="1920"
     inkscape:window-height="1138"
     id="namedview4"
     showgrid="false"
     fit-margin-top="0"
     fit-margin-left="0"
     fit-margin-right="0"
     fit-margin-bottom="0"
     inkscape:zoom="2.5371828"
     inkscape:cx="135.12988"
     inkscape:cy="-43.673239"
     inkscape:window-x="1672"
     inkscape:window-y="39"
     inkscape:window-maximized="1"
     inkscape:current-layer="g10" /><g
     id="g10"
     inkscape:groupmode="layer"
     inkscape:label="depparse_raw"
     transform="matrix(1.25,0,0,-1.25,-56.55,1007.0625)"><path
       d="m 48.36,776.85 6.48,0 c 0.72,0 1.32,-0.6 1.32,-1.32 l 0,-3.6 c 0,-0.72 -0.6,-1.44 -1.32,-1.44 l -6.48,0 c -0.72,0 -1.32,0.72 -1.32,1.44 l 0,3.6 c 0,0.72 0.6,1.32 1.32,1.32 z"
       style="fill:#f4eefd;fill-opacity:1;fill-rule:nonzero;stroke:none"
       id="path46"
       inkscape:connector-curvature="0" /><path
       d="m 62.28,776.85 1.44,0 c 0.72,0 1.32,-0.6 1.32,-1.32 l 0,-3.6 c 0,-0.72 -0.6,-1.44 -1.32,-1.44 l -1.44,0 c -0.84,0 -1.44,0.72 -1.44,1.44 l 0,3.6 c 0,0.72 0.6,1.32 1.44,1.32 z"
       style="fill:#eefdec;fill-opacity:1;fill-rule:nonzero;stroke:none"
       id="path48"
       inkscape:connector-curvature="0" /><path
       d="m 73.92,776.85 0.6,0 c 0.72,0 1.32,-0.6 1.32,-1.32 l 0,-3.6 c 0,-0.72 -0.6,-1.44 -1.32,-1.44 l -0.6,0 c -0.72,0 -1.32,0.72 -1.32,1.44 l 0,3.6 c 0,0.72 0.6,1.32 1.32,1.32 z"
       style="fill:#f4eefd;fill-opacity:1;fill-rule:nonzero;stroke:none"
       id="path50"
       inkscape:connector-curvature="0" /><path
       d="m 81.84,776.85 14.16,0 c 0.72,0 1.32,-0.6 1.32,-1.32 l 0,-3.6 c 0,-0.72 -0.6,-1.44 -1.32,-1.44 l -14.16,0 c -0.84,0 -1.44,0.72 -1.44,1.44 l 0,3.6 c 0,0.72 0.6,1.32 1.44,1.32 z"
       style="fill:#fffeed;fill-opacity:1;fill-rule:nonzero;stroke:none"
       id="path52"
       inkscape:connector-curvature="0" /><path
       d="m 103.8,776.85 19.44,0 c 0.72,0 1.32,-0.6 1.32,-1.32 l 0,-3.6 c 0,-0.72 -0.6,-1.44 -1.32,-1.44 l -19.44,0 c -0.72,0 -1.32,0.72 -1.32,1.44 l 0,3.6 c 0,0.72 0.6,1.32 1.32,1.32 z"
       style="fill:#ecf1fb;fill-opacity:1;fill-rule:nonzero;stroke:none"
       id="path54"
       inkscape:connector-curvature="0" /><path
       d="m 128.04,776.85 2.16,0 c 0.72,0 1.32,-0.6 1.32,-1.32 l 0,-3.6 c 0,-0.72 -0.6,-1.44 -1.32,-1.44 l -2.16,0 c -0.84,0 -1.44,0.72 -1.44,1.44 l 0,3.6 c 0,0.72 0.6,1.32 1.44,1.32 z"
       style="fill:#fffaf2;fill-opacity:1;fill-rule:nonzero;stroke:none"
       id="path56"
       inkscape:connector-curvature="0" /><path
       d="m 137.88,776.85 0.6,0 c 0.72,0 1.32,-0.6 1.32,-1.32 l 0,-3.6 c 0,-0.72 -0.6,-1.44 -1.32,-1.44 l -0.6,0 c -0.72,0 -1.32,0.72 -1.32,1.44 l 0,3.6 c 0,0.72 0.6,1.32 1.32,1.32 z"
       style="fill:#f4eefd;fill-opacity:1;fill-rule:nonzero;stroke:none"
       id="path58"
       inkscape:connector-curvature="0" /><path
       d="m 145.8,776.85 11.88,0 c 0.72,0 1.32,-0.6 1.32,-1.32 l 0,-3.6 c 0,-0.72 -0.6,-1.44 -1.32,-1.44 l -11.88,0 c -0.84,0 -1.44,0.72 -1.44,1.44 l 0,3.6 c 0,0.72 0.6,1.32 1.44,1.32 z"
       style="fill:#ecf1fb;fill-opacity:1;fill-rule:nonzero;stroke:none"
       id="path60"
       inkscape:connector-curvature="0" /><path
       d="m 182.64,776.85 7.44,0 c 0.72,0 1.32,-0.6 1.32,-1.32 l 0,-3.6 c 0,-0.72 -0.6,-1.44 -1.32,-1.44 l -7.44,0 c -0.72,0 -1.32,0.72 -1.32,1.44 l 0,3.6 c 0,0.72 0.6,1.32 1.32,1.32 z"
       style="fill:#ecf1fb;fill-opacity:1;fill-rule:nonzero;stroke:none"
       id="path62"
       inkscape:connector-curvature="0" /><text
       transform="matrix(1,0,0,-1,47.1576,771.8088)"
       style="font-variant:normal;font-weight:normal;font-size:5.88000011px;font-family:'Liberation Sans';-inkscape-font-specification:'Liberation Sans';writing-mode:lr-tb;fill:#000000;fill-opacity:1;fill-rule:nonzero;stroke:none"
       id="text64"><tspan
         x="0 1.5599992 4.8292794 6.1346393 8.9999981"
         y="0"
         sodipodi:role="line"
         id="tspan66">this </tspan></text>
<text
       transform="matrix(1,0,0,-1,60.95796,771.8088)"
       style="font-variant:normal;font-weight:normal;font-size:5.88000011px;font-family:'Liberation Sans';-inkscape-font-specification:'Liberation Sans';writing-mode:lr-tb;fill:#000000;fill-opacity:1;fill-rule:nonzero;stroke:none"
       id="text68"><tspan
         x="0 1.30536 4.2453599"
         y="0"
         sodipodi:role="line"
         id="tspan70">is </tspan></text>
<text
       transform="matrix(1,0,0,-1,72.60036,771.8088)"
       style="font-variant:normal;font-weight:normal;font-size:5.88000011px;font-family:'Liberation Sans';-inkscape-font-specification:'Liberation Sans';writing-mode:lr-tb;fill:#000000;fill-opacity:1;fill-rule:nonzero;stroke:none"
       id="text72"><tspan
         x="0 3.26928"
         y="0"
         sodipodi:role="line"
         id="tspan74">a </tspan></text>
<text
       transform="matrix(1,0,0,-1,80.52072,771.8088)"
       style="font-variant:normal;font-weight:normal;font-size:5.88000011px;font-family:'Liberation Sans';-inkscape-font-specification:'Liberation Sans';writing-mode:lr-tb;fill:#000000;fill-opacity:1;fill-rule:nonzero;stroke:none"
       id="text76"><tspan
         x="0 2.9400001 4.2453599 9.1434002 12.41268 13.71804 16.92"
         y="0"
         sodipodi:role="line"
         id="tspan78">simple </tspan></text>
<text
       transform="matrix(1,0,0,-1,102.60012,771.8088)"
       style="font-variant:normal;font-weight:normal;font-size:5.88000011px;font-family:'Liberation Sans';-inkscape-font-specification:'Liberation Sans';writing-mode:lr-tb;fill:#000000;fill-opacity:1;fill-rule:nonzero;stroke:none"
       id="text80"><tspan
         x="0 3.26928 6.119998 9.3892784 14.287318 17.556599 18.861958 22.131239"
         y="0"
         sodipodi:role="line"
         id="tspan82">example </tspan></text>
<text
       transform="matrix(1,0,0,-1,126.71988,771.8088)"
       style="font-variant:normal;font-weight:normal;font-size:5.88000011px;font-family:'Liberation Sans';-inkscape-font-specification:'Liberation Sans';writing-mode:lr-tb;fill:#000000;fill-opacity:1;fill-rule:nonzero;stroke:none"
       id="text84"><tspan
         x="0 3.26928 4.8000026"
         y="0"
         sodipodi:role="line"
         id="tspan86">of </tspan></text>
<text
       transform="matrix(1,0,0,-1,136.55712,771.8088)"
       style="font-variant:normal;font-weight:normal;font-size:5.88000011px;font-family:'Liberation Sans';-inkscape-font-specification:'Liberation Sans';writing-mode:lr-tb;fill:#000000;fill-opacity:1;fill-rule:nonzero;stroke:none"
       id="text88"><tspan
         x="0 3.26928"
         y="0"
         sodipodi:role="line"
         id="tspan90">a </tspan></text>
<text
       transform="matrix(1,0,0,-1,144.47748,771.8088)"
       style="font-variant:normal;font-weight:normal;font-size:5.88000011px;font-family:'Liberation Sans';-inkscape-font-specification:'Liberation Sans';writing-mode:lr-tb;fill:#000000;fill-opacity:1;fill-rule:nonzero;stroke:none"
       id="text92"><tspan
         x="0 3.26928 6.5385599 8.3999977 11.399997 14.669277"
         y="0"
         sodipodi:role="line"
         id="tspan94">parse </tspan></text>
<text
       transform="matrix(1,0,0,-1,181.32156,771.8088)"
       style="font-variant:normal;font-weight:normal;font-size:5.88000011px;font-family:'Liberation Sans';-inkscape-font-specification:'Liberation Sans';writing-mode:lr-tb;fill:#000000;fill-opacity:1;fill-rule:nonzero;stroke:none"
       id="text96"><tspan
         x="0 1.63464 3.59268 6.8619599"
         y="0"
         sodipodi:role="line"
         id="tspan98">tree</tspan></text>
<path
       d="m 45.24,805.65 0,-35.52 0,35.52 z"
       style="fill:#000000;fill-opacity:1;fill-rule:nonzero;stroke:none"
       id="path104"
       inkscape:connector-curvature="0" /><path
       d="m 48.6,784.77 6.36,0 c 0.48,0 0.84,-0.24 0.84,-0.48 l 0,-4.56 c 0,-0.24 -0.36,-0.36 -0.84,-0.36 l -6.36,0 c -0.48,0 -0.84,0.12 -0.84,0.36 l 0,4.56 c 0,0.24 0.36,0.48 0.84,0.48 z"
       style="fill:#ccadf6;fill-opacity:1;fill-rule:nonzero;stroke:none"
       id="path118"
       inkscape:connector-curvature="0" /><g
       id="g120"
       transform="matrix(0.12,0,0,-0.12,0,841.89)"><path
         d="m 405,476 53,0 c 4,0 7,2 7,4 l 0,38 c 0,2 -3,3 -7,3 l -53,0 c -4,0 -7,-1 -7,-3 l 0,-38 c 0,-2 3,-4 7,-4 z"
         style="fill:none;stroke:#491097;stroke-width:2;stroke-linecap:butt;stroke-linejoin:miter;stroke-miterlimit:4;stroke-dasharray:none;stroke-opacity:1"
         id="path122"
         inkscape:connector-curvature="0" /></g><text
       transform="matrix(1,0,0,-1,48.84216,780.33)"
       style="font-variant:normal;font-weight:normal;font-size:4.55999994px;font-family:Arial;-inkscape-font-specification:Arial;writing-mode:lr-tb;fill:#000000;fill-opacity:1;fill-rule:nonzero;stroke:none"
       id="text124"><tspan
         x="0 3.29232"
         y="0"
         sodipodi:role="line"
         id="tspan126">DT</tspan></text>
<g
       id="g128"
       transform="matrix(0.12,0,0,-0.12,0,841.89)"><path
         d="m 392,540 c 0,-15 39,0 39,-15 0,15 37,0 37,15"
         style="fill:none;stroke:#491097;stroke-width:1;stroke-linecap:butt;stroke-linejoin:miter;stroke-miterlimit:4;stroke-dasharray:none;stroke-opacity:1"
         id="path130"
         inkscape:connector-curvature="0" /></g><path
       d="m 58.8,784.77 9,0 c 0.6,0 0.96,-0.24 0.96,-0.48 l 0,-4.56 c 0,-0.24 -0.36,-0.36 -0.96,-0.36 l -9,0 c -0.48,0 -0.84,0.12 -0.84,0.36 l 0,4.56 c 0,0.24 0.36,0.48 0.84,0.48 z"
       style="fill:#adf6a2;fill-opacity:1;fill-rule:nonzero;stroke:none"
       id="path132"
       inkscape:connector-curvature="0" /><g
       id="g134"
       transform="matrix(0.12,0,0,-0.12,0,841.89)"><path
         d="m 490,476 75,0 c 5,0 8,2 8,4 l 0,38 c 0,2 -3,3 -8,3 l -75,0 c -4,0 -7,-1 -7,-3 l 0,-38 c 0,-2 3,-4 7,-4 z"
         style="fill:none;stroke:#20940e;stroke-width:2;stroke-linecap:butt;stroke-linejoin:miter;stroke-miterlimit:4;stroke-dasharray:none;stroke-opacity:1"
         id="path136"
         inkscape:connector-curvature="0" /></g><text
       transform="matrix(1,0,0,-1,58.91976,780.33)"
       style="font-variant:normal;font-weight:normal;font-size:4.55999994px;font-family:Arial;-inkscape-font-specification:Arial;writing-mode:lr-tb;fill:#000000;fill-opacity:1;fill-rule:nonzero;stroke:none"
       id="text138"><tspan
         x="0 2.6399984 5.6815186"
         y="0"
         sodipodi:role="line"
         id="tspan140">VBZ</tspan></text>
<g
       id="g142"
       transform="matrix(0.12,0,0,-0.12,0,841.89)"><path
         d="m 507,540 c 0,-15 17,0 17,-15 0,15 18,0 18,15"
         style="fill:none;stroke:#20940e;stroke-width:1;stroke-linecap:butt;stroke-linejoin:miter;stroke-miterlimit:4;stroke-dasharray:none;stroke-opacity:1"
         id="path144"
         inkscape:connector-curvature="0" /></g><path
       d="m 71.4,784.77 6.36,0 c 0.48,0 0.84,-0.24 0.84,-0.48 l 0,-4.56 c 0,-0.24 -0.36,-0.36 -0.84,-0.36 l -6.36,0 c -0.48,0 -0.84,0.12 -0.84,0.36 l 0,4.56 c 0,0.24 0.36,0.48 0.84,0.48 z"
       style="fill:#ccadf6;fill-opacity:1;fill-rule:nonzero;stroke:none"
       id="path146"
       inkscape:connector-curvature="0" /><g
       id="g148"
       transform="matrix(0.12,0,0,-0.12,0,841.89)"><path
         d="m 595,476 53,0 c 4,0 7,2 7,4 l 0,38 c 0,2 -3,3 -7,3 l -53,0 c -4,0 -7,-1 -7,-3 l 0,-38 c 0,-2 3,-4 7,-4 z"
         style="fill:none;stroke:#491097;stroke-width:2;stroke-linecap:butt;stroke-linejoin:miter;stroke-miterlimit:4;stroke-dasharray:none;stroke-opacity:1"
         id="path150"
         inkscape:connector-curvature="0" /></g><text
       transform="matrix(1,0,0,-1,71.1588,780.33)"
       style="font-variant:normal;font-weight:normal;font-size:4.55999994px;font-family:Arial;-inkscape-font-specification:Arial;writing-mode:lr-tb;fill:#000000;fill-opacity:1;fill-rule:nonzero;stroke:none"
       id="text152"><tspan
         x="0 3.3599994"
         y="0"
         sodipodi:role="line"
         id="tspan154">DT</tspan></text>
<g
       id="g156"
       transform="matrix(0.12,0,0,-0.12,0,841.89)"><path
         d="m 605,540 c 0,-15 13,0 13,-15 0,15 14,0 14,15"
         style="fill:none;stroke:#491097;stroke-width:1;stroke-linecap:butt;stroke-linejoin:miter;stroke-miterlimit:4;stroke-dasharray:none;stroke-opacity:1"
         id="path158"
         inkscape:connector-curvature="0" /></g><path
       d="m 86.52,784.77 4.56,0 c 0.48,0 0.84,-0.24 0.84,-0.48 l 0,-4.56 c 0,-0.24 -0.36,-0.36 -0.84,-0.36 l -4.56,0 c -0.48,0 -0.84,0.12 -0.84,0.36 l 0,4.56 c 0,0.24 0.36,0.48 0.84,0.48 z"
       style="fill:#fffda8;fill-opacity:1;fill-rule:nonzero;stroke:none"
       id="path160"
       inkscape:connector-curvature="0" /><g
       id="g162"
       transform="matrix(0.12,0,0,-0.12,0,841.89)"><path
         d="m 721,476 38,0 c 4,0 7,2 7,4 l 0,38 c 0,2 -3,3 -7,3 l -38,0 c -4,0 -7,-1 -7,-3 l 0,-38 c 0,-2 3,-4 7,-4 z"
         style="fill:none;stroke:#a9a500;stroke-width:2;stroke-linecap:butt;stroke-linejoin:miter;stroke-miterlimit:4;stroke-dasharray:none;stroke-opacity:1"
         id="path164"
         inkscape:connector-curvature="0" /></g><text
       transform="matrix(1,0,0,-1,86.75856,780.33)"
       style="font-variant:normal;font-weight:normal;font-size:4.55999994px;font-family:Arial;-inkscape-font-specification:Arial;writing-mode:lr-tb;fill:#000000;fill-opacity:1;fill-rule:nonzero;stroke:none"
       id="text166"><tspan
         x="0 2.0399981"
         y="0"
         sodipodi:role="line"
         id="tspan168">JJ</tspan></text>
<g
       id="g170"
       transform="matrix(0.12,0,0,-0.12,0,841.89)"><path
         d="m 670,540 c 0,-15 70,0 70,-15 0,15 71,0 71,15"
         style="fill:none;stroke:#a9a500;stroke-width:1;stroke-linecap:butt;stroke-linejoin:miter;stroke-miterlimit:4;stroke-dasharray:none;stroke-opacity:1"
         id="path172"
         inkscape:connector-curvature="0" /></g><path
       d="m 110.4,784.77 6.24,0 c 0.48,0 0.96,-0.24 0.96,-0.48 l 0,-4.56 c 0,-0.24 -0.48,-0.36 -0.96,-0.36 l -6.24,0 c -0.48,0 -0.96,0.12 -0.96,0.36 l 0,4.56 c 0,0.24 0.48,0.48 0.96,0.48 z"
       style="fill:#a4bced;fill-opacity:1;fill-rule:nonzero;stroke:none"
       id="path174"
       inkscape:connector-curvature="0" /><g
       id="g176"
       transform="matrix(0.12,0,0,-0.12,0,841.89)"><path
         d="m 920,476 52,0 c 4,0 8,2 8,4 l 0,38 c 0,2 -4,3 -8,3 l -52,0 c -4,0 -8,-1 -8,-3 l 0,-38 c 0,-2 4,-4 8,-4 z"
         style="fill:none;stroke:#1a3d85;stroke-width:2;stroke-linecap:butt;stroke-linejoin:miter;stroke-miterlimit:4;stroke-dasharray:none;stroke-opacity:1"
         id="path178"
         inkscape:connector-curvature="0" /></g><text
       transform="matrix(1,0,0,-1,110.63928,780.33)"
       style="font-variant:normal;font-weight:normal;font-size:4.55999994px;font-family:Arial;-inkscape-font-specification:Arial;writing-mode:lr-tb;fill:#000000;fill-opacity:1;fill-rule:nonzero;stroke:none"
       id="text180"><tspan
         x="0 3.0000012"
         y="0"
         sodipodi:role="line"
         id="tspan182">NN</tspan></text>
<g
       id="g184"
       transform="matrix(0.12,0,0,-0.12,0,841.89)"><path
         d="m 854,540 c 0,-15 92,0 92,-15 0,15 92,0 92,15"
         style="fill:none;stroke:#1a3d85;stroke-width:1;stroke-linecap:butt;stroke-linejoin:miter;stroke-miterlimit:4;stroke-dasharray:none;stroke-opacity:1"
         id="path186"
         inkscape:connector-curvature="0" /></g><path
       d="m 127.32,784.77 4.44,0 c 0.6,0 0.96,-0.24 0.96,-0.48 l 0,-4.56 c 0,-0.24 -0.36,-0.36 -0.96,-0.36 l -4.44,0 c -0.48,0 -0.96,0.12 -0.96,0.36 l 0,4.56 c 0,0.24 0.48,0.48 0.96,0.48 z"
       style="fill:#ffe8be;fill-opacity:1;fill-rule:nonzero;stroke:none"
       id="path188"
       inkscape:connector-curvature="0" /><g
       id="g190"
       transform="matrix(0.12,0,0,-0.12,0,841.89)"><path
         d="m 1061,476 37,0 c 5,0 8,2 8,4 l 0,38 c 0,2 -3,3 -8,3 l -37,0 c -4,0 -8,-1 -8,-3 l 0,-38 c 0,-2 4,-4 8,-4 z"
         style="fill:none;stroke:#b27300;stroke-width:2;stroke-linecap:butt;stroke-linejoin:miter;stroke-miterlimit:4;stroke-dasharray:none;stroke-opacity:1"
         id="path192"
         inkscape:connector-curvature="0" /></g><text
       transform="matrix(1,0,0,-1,127.2012,780.33)"
       style="font-variant:normal;font-weight:normal;font-size:4.55999994px;font-family:Arial;-inkscape-font-specification:Arial;writing-mode:lr-tb;fill:#000000;fill-opacity:1;fill-rule:nonzero;stroke:none"
       id="text194"><tspan
         x="0 0.95999855"
         y="0"
         sodipodi:role="line"
         id="tspan196">IN</tspan></text>
<g
       id="g198"
       transform="matrix(0.12,0,0,-0.12,0,841.89)"><path
         d="m 1055,540 c 0,-15 21,0 21,-15 0,15 20,0 20,15"
         style="fill:none;stroke:#b27300;stroke-width:1;stroke-linecap:butt;stroke-linejoin:miter;stroke-miterlimit:4;stroke-dasharray:none;stroke-opacity:1"
         id="path200"
         inkscape:connector-curvature="0" /></g><path
       d="m 135.36,784.77 6.36,0 c 0.48,0 0.84,-0.24 0.84,-0.48 l 0,-4.56 c 0,-0.24 -0.36,-0.36 -0.84,-0.36 l -6.36,0 c -0.48,0 -0.84,0.12 -0.84,0.36 l 0,4.56 c 0,0.24 0.36,0.48 0.84,0.48 z"
       style="fill:#ccadf6;fill-opacity:1;fill-rule:nonzero;stroke:none"
       id="path202"
       inkscape:connector-curvature="0" /><g
       id="g204"
       transform="matrix(0.12,0,0,-0.12,0,841.89)"><path
         d="m 1128,476 53,0 c 4,0 7,2 7,4 l 0,38 c 0,2 -3,3 -7,3 l -53,0 c -4,0 -7,-1 -7,-3 l 0,-38 c 0,-2 3,-4 7,-4 z"
         style="fill:none;stroke:#491097;stroke-width:2;stroke-linecap:butt;stroke-linejoin:miter;stroke-miterlimit:4;stroke-dasharray:none;stroke-opacity:1"
         id="path206"
         inkscape:connector-curvature="0" /></g><text
       transform="matrix(1,0,0,-1,135.12192,780.33)"
       style="font-variant:normal;font-weight:normal;font-size:4.55999994px;font-family:Arial;-inkscape-font-specification:Arial;writing-mode:lr-tb;fill:#000000;fill-opacity:1;fill-rule:nonzero;stroke:none"
       id="text208"><tspan
         x="0 3.3599994"
         y="0"
         sodipodi:role="line"
         id="tspan210">DT</tspan></text>
<g
       id="g212"
       transform="matrix(0.12,0,0,-0.12,0,841.89)"><path
         d="m 1138,540 c 0,-15 13,0 13,-15 0,15 14,0 14,15"
         style="fill:none;stroke:#491097;stroke-width:1;stroke-linecap:butt;stroke-linejoin:miter;stroke-miterlimit:4;stroke-dasharray:none;stroke-opacity:1"
         id="path214"
         inkscape:connector-curvature="0" /></g><path
       d="m 148.68,784.77 6.36,0 c 0.48,0 0.84,-0.24 0.84,-0.48 l 0,-4.56 c 0,-0.24 -0.36,-0.36 -0.84,-0.36 l -6.36,0 c -0.48,0 -0.84,0.12 -0.84,0.36 l 0,4.56 c 0,0.24 0.36,0.48 0.84,0.48 z"
       style="fill:#a4bced;fill-opacity:1;fill-rule:nonzero;stroke:none"
       id="path216"
       inkscape:connector-curvature="0" /><g
       id="g218"
       transform="matrix(0.12,0,0,-0.12,0,841.89)"><path
         d="m 1239,476 53,0 c 4,0 7,2 7,4 l 0,38 c 0,2 -3,3 -7,3 l -53,0 c -4,0 -7,-1 -7,-3 l 0,-38 c 0,-2 3,-4 7,-4 z"
         style="fill:none;stroke:#1a3d85;stroke-width:2;stroke-linecap:butt;stroke-linejoin:miter;stroke-miterlimit:4;stroke-dasharray:none;stroke-opacity:1"
         id="path220"
         inkscape:connector-curvature="0" /></g><text
       transform="matrix(1,0,0,-1,148.92048,780.33)"
       style="font-variant:normal;font-weight:normal;font-size:4.55999994px;font-family:Arial;-inkscape-font-specification:Arial;writing-mode:lr-tb;fill:#000000;fill-opacity:1;fill-rule:nonzero;stroke:none"
       id="text222"><tspan
         x="0 3.0000012"
         y="0"
         sodipodi:role="line"
         id="tspan224">NN</tspan></text>
<g
       id="g226"
       transform="matrix(0.12,0,0,-0.12,0,841.89)"><path
         d="m 1203,540 c 0,-15 62,0 62,-15 0,15 60,0 60,15"
         style="fill:none;stroke:#1a3d85;stroke-width:1;stroke-linecap:butt;stroke-linejoin:miter;stroke-miterlimit:4;stroke-dasharray:none;stroke-opacity:1"
         id="path228"
         inkscape:connector-curvature="0" /></g><path
       d="m 183.36,784.77 6.24,0 c 0.48,0 0.96,-0.24 0.96,-0.48 l 0,-4.56 c 0,-0.24 -0.48,-0.36 -0.96,-0.36 l -6.24,0 c -0.48,0 -0.96,0.12 -0.96,0.36 l 0,4.56 c 0,0.24 0.48,0.48 0.96,0.48 z"
       style="fill:#a4bced;fill-opacity:1;fill-rule:nonzero;stroke:none"
       id="path230"
       inkscape:connector-curvature="0" /><g
       id="g232"
       transform="matrix(0.12,0,0,-0.12,0,841.89)"><path
         d="m 1528,476 52,0 c 4,0 8,2 8,4 l 0,38 c 0,2 -4,3 -8,3 l -52,0 c -4,0 -8,-1 -8,-3 l 0,-38 c 0,-2 4,-4 8,-4 z"
         style="fill:none;stroke:#1a3d85;stroke-width:2;stroke-linecap:butt;stroke-linejoin:miter;stroke-miterlimit:4;stroke-dasharray:none;stroke-opacity:1"
         id="path234"
         inkscape:connector-curvature="0" /></g><text
       transform="matrix(1,0,0,-1,183.59928,780.33)"
       style="font-variant:normal;font-weight:normal;font-size:4.55999994px;font-family:Arial;-inkscape-font-specification:Arial;writing-mode:lr-tb;fill:#000000;fill-opacity:1;fill-rule:nonzero;stroke:none"
       id="text236"><tspan
         x="0 3.0000012"
         y="0"
         sodipodi:role="line"
         id="tspan238">NN</tspan></text>
<g
       id="g240"
       transform="matrix(0.12,0,0,-0.12,0,841.89)"><path
         d="m 1511,540 c 0,-15 43,0 43,-15 0,15 41,0 41,15"
         style="fill:none;stroke:#1a3d85;stroke-width:1;stroke-linecap:butt;stroke-linejoin:miter;stroke-miterlimit:4;stroke-dasharray:none;stroke-opacity:1"
         id="path242"
         inkscape:connector-curvature="0" /></g><text
       transform="matrix(1,0,0,-1,159.36072,783.44976)"
       style="font-variant:normal;font-weight:normal;font-size:4.07999992px;font-family:Arial;-inkscape-font-specification:Arial;writing-mode:lr-tb;fill:#000000;fill-opacity:1;fill-rule:nonzero;stroke:none"
       id="text244"><tspan
         x="0 2.04 4.4399986 7.8386388 10.2 12.599998 14.999997 17.399996"
         y="0"
         sodipodi:role="line"
         id="tspan246">compound</tspan></text>
<g
       id="g248"
       transform="matrix(0.12,0,0,-0.12,0,841.89)"><path
         d="m 1325,476 -3,0 c -8,0 -15,2 -23,4"
         style="fill:none;stroke:#000000;stroke-width:3;stroke-linecap:butt;stroke-linejoin:miter;stroke-miterlimit:4;stroke-dasharray:none;stroke-opacity:1"
         id="path250"
         inkscape:connector-curvature="0" /></g><g
       id="g252"><g
         id="g254"
         clip-path="url(#clipPath256)"><path
           d="m 158.4,783.93 -2.52,0.36 1.8,1.8 0.12,-1.2 0.6,-0.96 z"
           style="fill:#000000;fill-opacity:1;fill-rule:nonzero;stroke:none"
           id="path260"
           inkscape:connector-curvature="0" /></g></g><g
       id="g262"
       transform="matrix(0.12,0,0,-0.12,0,841.89)"><path
         d="m 1494,476 4,0 c 7,0 15,8 22,23"
         style="fill:none;stroke:#000000;stroke-width:3;stroke-linecap:butt;stroke-linejoin:miter;stroke-miterlimit:4;stroke-dasharray:none;stroke-opacity:1"
         id="path264"
         inkscape:connector-curvature="0" /></g><text
       transform="matrix(1,0,0,-1,95.52096,783.44976)"
       style="font-variant:normal;font-weight:normal;font-size:4.07999992px;font-family:Arial;-inkscape-font-specification:Arial;writing-mode:lr-tb;fill:#000000;fill-opacity:1;fill-rule:nonzero;stroke:none"
       id="text266"><tspan
         x="0 2.3999989 5.6400003 8.039999"
         y="0"
         sodipodi:role="line"
         id="tspan268">amod</tspan></text>
<g
       id="g270"
       transform="matrix(0.12,0,0,-0.12,0,841.89)"><path
         d="m 792,476 -3,0 c -8,0 -15,2 -23,4"
         style="fill:none;stroke:#000000;stroke-width:3;stroke-linecap:butt;stroke-linejoin:miter;stroke-miterlimit:4;stroke-dasharray:none;stroke-opacity:1"
         id="path272"
         inkscape:connector-curvature="0" /></g><g
       id="g274"><g
         id="g276"
         clip-path="url(#clipPath278)"><path
           d="m 94.44,783.93 -2.52,0.36 1.8,1.8 0.12,-1.2 0.6,-0.96 z"
           style="fill:#000000;fill-opacity:1;fill-rule:nonzero;stroke:none"
           id="path282"
           inkscape:connector-curvature="0" /></g></g><g
       id="g284"
       transform="matrix(0.12,0,0,-0.12,0,841.89)"><path
         d="m 886,476 4,0 c 7,0 15,8 22,23"
         style="fill:none;stroke:#000000;stroke-width:3;stroke-linecap:butt;stroke-linejoin:miter;stroke-miterlimit:4;stroke-dasharray:none;stroke-opacity:1"
         id="path286"
         inkscape:connector-curvature="0" /></g><text
       transform="matrix(1,0,0,-1,159.60144,788.37024)"
       style="font-variant:normal;font-weight:normal;font-size:4.07999992px;font-family:Arial;-inkscape-font-specification:Arial;writing-mode:lr-tb;fill:#000000;fill-opacity:1;fill-rule:nonzero;stroke:none"
       id="text288"><tspan
         x="0 2.3999989 4.7999978"
         y="0"
         sodipodi:role="line"
         id="tspan290">det</tspan></text>
<g
       id="g292"
       transform="matrix(0.12,0,0,-0.12,0,841.89)"><path
         d="m 1326,435 -81,0 c -19,0 -38,15 -57,45"
         style="fill:none;stroke:#000000;stroke-width:3;stroke-linecap:butt;stroke-linejoin:miter;stroke-miterlimit:4;stroke-dasharray:none;stroke-opacity:1"
         id="path294"
         inkscape:connector-curvature="0" /></g><g
       id="g296"><g
         id="g298"
         clip-path="url(#clipPath300)"><path
           d="m 144.72,785.61 -2.16,-1.32 0.24,2.52 0.96,-0.84 0.96,-0.36 z"
           style="fill:#000000;fill-opacity:1;fill-rule:nonzero;stroke:none"
           id="path304"
           inkscape:connector-curvature="0" /></g></g><g
       id="g306"
       transform="matrix(0.12,0,0,-0.12,0,841.89)"><path
         d="m 1383,435 81,0 c 19,0 38,21 56,64"
         style="fill:none;stroke:#000000;stroke-width:3;stroke-linecap:butt;stroke-linejoin:miter;stroke-miterlimit:4;stroke-dasharray:none;stroke-opacity:1"
         id="path308"
         inkscape:connector-curvature="0" /></g><text
       transform="matrix(1,0,0,-1,91.08192,788.37024)"
       style="font-variant:normal;font-weight:normal;font-size:4.07999992px;font-family:Arial;-inkscape-font-specification:Arial;writing-mode:lr-tb;fill:#000000;fill-opacity:1;fill-rule:nonzero;stroke:none"
       id="text310"><tspan
         x="0 2.3999989 4.7999978"
         y="0"
         sodipodi:role="line"
         id="tspan312">det</tspan></text>
<g
       id="g314"
       transform="matrix(0.12,0,0,-0.12,0,841.89)"><path
         d="m 756,435 -44,0 c -19,0 -38,15 -57,45"
         style="fill:none;stroke:#000000;stroke-width:3;stroke-linecap:butt;stroke-linejoin:miter;stroke-miterlimit:4;stroke-dasharray:none;stroke-opacity:1"
         id="path316"
         inkscape:connector-curvature="0" /></g><g
       id="g318"><g
         id="g320"
         clip-path="url(#clipPath322)"><path
           d="m 80.76,785.61 -2.16,-1.32 0.24,2.52 0.84,-0.84 1.08,-0.36 z"
           style="fill:#000000;fill-opacity:1;fill-rule:nonzero;stroke:none"
           id="path326"
           inkscape:connector-curvature="0" /></g></g><g
       id="g328"
       transform="matrix(0.12,0,0,-0.12,0,841.89)"><path
         d="m 812,435 44,0 c 19,0 38,21 56,64"
         style="fill:none;stroke:#000000;stroke-width:3;stroke-linecap:butt;stroke-linejoin:miter;stroke-miterlimit:4;stroke-dasharray:none;stroke-opacity:1"
         id="path330"
         inkscape:connector-curvature="0" /></g><text
       transform="matrix(1,0,0,-1,153.11832,792.45024)"
       style="font-variant:normal;font-weight:normal;font-size:4.07999992px;font-family:Arial;-inkscape-font-specification:Arial;writing-mode:lr-tb;fill:#000000;fill-opacity:1;fill-rule:nonzero;stroke:none"
       id="text332"><tspan
         x="0 2.160001 4.5599999 6.5999999"
         y="0"
         sodipodi:role="line"
         id="tspan334">case</tspan></text>
<g
       id="g336"
       transform="matrix(0.12,0,0,-0.12,0,841.89)"><path
         d="m 1272,401 -110,0 c -19,0 -37,27 -56,79"
         style="fill:none;stroke:#000000;stroke-width:3;stroke-linecap:butt;stroke-linejoin:miter;stroke-miterlimit:4;stroke-dasharray:none;stroke-opacity:1"
         id="path338"
         inkscape:connector-curvature="0" /></g><g
       id="g340"><g
         id="g342"
         clip-path="url(#clipPath344)"><path
           d="m 134.52,785.97 -1.8,-1.68 -0.36,2.52 1.08,-0.6 1.08,-0.24 z"
           style="fill:#000000;fill-opacity:1;fill-rule:nonzero;stroke:none"
           id="path348"
           inkscape:connector-curvature="0" /></g></g><g
       id="g350"
       transform="matrix(0.12,0,0,-0.12,0,841.89)"><path
         d="m 1354,401 110,0 c 19,0 38,33 56,98"
         style="fill:none;stroke:#000000;stroke-width:3;stroke-linecap:butt;stroke-linejoin:miter;stroke-miterlimit:4;stroke-dasharray:none;stroke-opacity:1"
         id="path352"
         inkscape:connector-curvature="0" /></g><text
       transform="matrix(1,0,0,-1,85.68,792.45024)"
       style="font-variant:normal;font-weight:normal;font-size:4.07999992px;font-family:Arial;-inkscape-font-specification:Arial;writing-mode:lr-tb;fill:#000000;fill-opacity:1;fill-rule:nonzero;stroke:none"
       id="text354"><tspan
         x="0 2.160001 4.5599999"
         y="0"
         sodipodi:role="line"
         id="tspan356">cop</tspan></text>
<g
       id="g358"
       transform="matrix(0.12,0,0,-0.12,0,841.89)"><path
         d="m 711,401 -82,0 c -19,0 -37,27 -56,79"
         style="fill:none;stroke:#000000;stroke-width:3;stroke-linecap:butt;stroke-linejoin:miter;stroke-miterlimit:4;stroke-dasharray:none;stroke-opacity:1"
         id="path360"
         inkscape:connector-curvature="0" /></g><g
       id="g362"><g
         id="g364"
         clip-path="url(#clipPath366)"><path
           d="m 70.56,785.97 -1.8,-1.68 -0.36,2.52 1.08,-0.6 1.08,-0.24 z"
           style="fill:#000000;fill-opacity:1;fill-rule:nonzero;stroke:none"
           id="path370"
           inkscape:connector-curvature="0" /></g></g><g
       id="g372"
       transform="matrix(0.12,0,0,-0.12,0,841.89)"><path
         d="m 774,401 82,0 c 19,0 38,33 56,98"
         style="fill:none;stroke:#000000;stroke-width:3;stroke-linecap:butt;stroke-linejoin:miter;stroke-miterlimit:4;stroke-dasharray:none;stroke-opacity:1"
         id="path374"
         inkscape:connector-curvature="0" /></g><text
       transform="matrix(1,0,0,-1,144.84,796.53024)"
       style="font-variant:normal;font-weight:normal;font-size:4.07999992px;font-family:Arial;-inkscape-font-specification:Arial;writing-mode:lr-tb;fill:#000000;fill-opacity:1;fill-rule:nonzero;stroke:none"
       id="text376"><tspan
         x="0 2.3999989 5.6400003 8.039999"
         y="0"
         sodipodi:role="line"
         id="tspan378">nmod</tspan></text>
<g
       id="g380"
       transform="matrix(0.12,0,0,-0.12,0,841.89)"><path
         d="m 1203,368 -167,0 c -19,0 -37,43 -56,131"
         style="fill:none;stroke:#000000;stroke-width:3;stroke-linecap:butt;stroke-linejoin:miter;stroke-miterlimit:4;stroke-dasharray:none;stroke-opacity:1"
         id="path382"
         inkscape:connector-curvature="0" /></g><g
       id="g384"
       transform="matrix(0.12,0,0,-0.12,0,841.89)"><path
         d="m 1297,368 167,0 c 19,0 38,37 56,112"
         style="fill:none;stroke:#000000;stroke-width:3;stroke-linecap:butt;stroke-linejoin:miter;stroke-miterlimit:4;stroke-dasharray:none;stroke-opacity:1"
         id="path386"
         inkscape:connector-curvature="0" /></g><g
       id="g388"><g
         id="g390"
         clip-path="url(#clipPath392)"><path
           d="m 183,786.69 -0.6,-2.4 -1.56,1.92 1.08,0.12 1.08,0.36 z"
           style="fill:#000000;fill-opacity:1;fill-rule:nonzero;stroke:none"
           id="path396"
           inkscape:connector-curvature="0" /></g></g><text
       transform="matrix(1,0,0,-1,77.63832,796.53024)"
       style="font-variant:normal;font-weight:normal;font-size:4.07999992px;font-family:Arial;-inkscape-font-specification:Arial;writing-mode:lr-tb;fill:#000000;fill-opacity:1;fill-rule:nonzero;stroke:none"
       id="text398"><tspan
         x="0 2.3999989 4.4399986 6.8399978 9.239996"
         y="0"
         sodipodi:role="line"
         id="tspan400">nsubj</tspan></text>
<g
       id="g402"
       transform="matrix(0.12,0,0,-0.12,0,841.89)"><path
         d="m 644,368 -123,0 c -18,0 -37,37 -56,112"
         style="fill:none;stroke:#000000;stroke-width:3;stroke-linecap:butt;stroke-linejoin:miter;stroke-miterlimit:4;stroke-dasharray:none;stroke-opacity:1"
         id="path404"
         inkscape:connector-curvature="0" /></g><g
       id="g406"><g
         id="g408"
         clip-path="url(#clipPath410)"><path
           d="m 57.48,786.21 -1.68,-1.92 -0.48,2.4 0.96,-0.36 1.2,-0.12 z"
           style="fill:#000000;fill-opacity:1;fill-rule:nonzero;stroke:none"
           id="path414"
           inkscape:connector-curvature="0" /></g></g><g
       id="g416"
       transform="matrix(0.12,0,0,-0.12,0,841.89)"><path
         d="m 734,368 122,0 c 19,0 38,43 56,131"
         style="fill:none;stroke:#000000;stroke-width:3;stroke-linecap:butt;stroke-linejoin:miter;stroke-miterlimit:4;stroke-dasharray:none;stroke-opacity:1"
         id="path418"
         inkscape:connector-curvature="0" /></g></g></svg>